<?xml version="1.0" encoding="UTF-8" standalone="no"?>
<!-- Generator: Gravit.io -->

<svg
   xmlns:osb="http://www.openswatchbook.org/uri/2009/osb"
   xmlns:dc="http://purl.org/dc/elements/1.1/"
   xmlns:cc="http://creativecommons.org/ns#"
   xmlns:rdf="http://www.w3.org/1999/02/22-rdf-syntax-ns#"
   xmlns:svg="http://www.w3.org/2000/svg"
   xmlns="http://www.w3.org/2000/svg"
   xmlns:xlink="http://www.w3.org/1999/xlink"
   xmlns:sodipodi="http://sodipodi.sourceforge.net/DTD/sodipodi-0.dtd"
   xmlns:inkscape="http://www.inkscape.org/namespaces/inkscape"
   style="isolation:isolate"
   width="302.79437"
   height="30.780001"
   id="svg2"
   version="1.1"
   inkscape:version="0.92.1 r15371"
   sodipodi:docname="wallace-initiative-logo-rev.svg">
  <metadata
     id="metadata14">
    <rdf:RDF>
      <cc:Work
         rdf:about="">
        <dc:format>image/svg+xml</dc:format>
        <dc:type
           rdf:resource="http://purl.org/dc/dcmitype/StillImage" />
        <dc:title></dc:title>
      </cc:Work>
    </rdf:RDF>
  </metadata>
  <defs
     id="defs12">
    <linearGradient
       id="linearGradient845"
       osb:paint="solid">
      <stop
         style="stop-color:#ffffff;stop-opacity:1;"
         offset="0"
         id="stop843" />
    </linearGradient>
    <linearGradient
       id="linearGradient839"
       osb:paint="solid">
      <stop
         style="stop-color:#000000;stop-opacity:1;"
         offset="0"
         id="stop837" />
    </linearGradient>
    <linearGradient
       inkscape:collect="always"
       xlink:href="#linearGradient845"
       id="linearGradient841"
       x1="25.945312"
       y1="52.254932"
       x2="365.94531"
       y2="52.254932"
       gradientUnits="userSpaceOnUse" />
    <linearGradient
       inkscape:collect="always"
       xlink:href="#linearGradient845"
       id="linearGradient847"
       x1="25.945312"
       y1="52.254932"
       x2="365.94531"
       y2="52.254932"
       gradientUnits="userSpaceOnUse" />
    <linearGradient
       inkscape:collect="always"
       xlink:href="#linearGradient845"
       id="linearGradient857"
       gradientUnits="userSpaceOnUse"
       x1="25.945312"
       y1="52.254932"
       x2="365.94531"
       y2="52.254932" />
    <linearGradient
       inkscape:collect="always"
       xlink:href="#linearGradient845"
       id="linearGradient859"
       gradientUnits="userSpaceOnUse"
       x1="25.945312"
       y1="52.254932"
       x2="365.94531"
       y2="52.254932" />
    <linearGradient
       inkscape:collect="always"
       xlink:href="#linearGradient845"
       id="linearGradient861"
       gradientUnits="userSpaceOnUse"
       x1="25.945312"
       y1="52.254932"
       x2="365.94531"
       y2="52.254932" />
    <linearGradient
       inkscape:collect="always"
       xlink:href="#linearGradient845"
       id="linearGradient863"
       gradientUnits="userSpaceOnUse"
       x1="25.945312"
       y1="52.254932"
       x2="365.94531"
       y2="52.254932" />
    <linearGradient
       inkscape:collect="always"
       xlink:href="#linearGradient845"
       id="linearGradient4503"
       gradientUnits="userSpaceOnUse"
       x1="25.945312"
       y1="52.254932"
       x2="365.94531"
       y2="52.254932" />
    <linearGradient
       inkscape:collect="always"
       xlink:href="#linearGradient845"
       id="linearGradient4505"
       gradientUnits="userSpaceOnUse"
       x1="25.945312"
       y1="52.254932"
       x2="365.94531"
       y2="52.254932" />
  </defs>
  <sodipodi:namedview
     pagecolor="#ff71ff"
     bordercolor="#666666"
     borderopacity="1"
     objecttolerance="10"
     gridtolerance="10"
     guidetolerance="10"
     inkscape:pageopacity="0"
     inkscape:pageshadow="2"
     inkscape:window-width="1521"
     inkscape:window-height="901"
     id="namedview10"
     showgrid="false"
     inkscape:zoom="0.95241285"
     inkscape:cx="96.134898"
     inkscape:cy="-55.324296"
     inkscape:window-x="147"
     inkscape:window-y="35"
     inkscape:window-maximized="0"
     inkscape:current-layer="svg2"
     inkscape:pagecheckerboard="true"
     fit-margin-top="0"
     fit-margin-left="0"
     fit-margin-right="0"
     fit-margin-bottom="0" />
  <flowRoot
     xml:space="preserve"
     id="flowRoot821"
     style="font-style:normal;font-weight:normal;font-size:40px;line-height:1.25;font-family:sans-serif;letter-spacing:0px;word-spacing:0px;fill:#000000;fill-opacity:1;stroke:none"
     transform="translate(-23.928437,-37.894297)"><flowRegion
       id="flowRegion823"><rect
         id="rect825"
         width="29.399015"
         height="69.297676"
         x="32.548908"
         y="77.902885" /></flowRegion><flowPara
       id="flowPara827" /></flowRoot>  <g
     aria-label="Wallace Initiative"
     transform="translate(-23.928437,-37.894297)"
     style="font-style:normal;font-weight:normal;font-size:40px;line-height:1.25;font-family:sans-serif;letter-spacing:0px;word-spacing:0px;fill:url(#linearGradient861);fill-opacity:1;stroke:url(#linearGradient863)"
     id="flowRoot829">
    <path
       d="m 24.428437,39.194297 h 3.22 q 0.52,0 0.86,0.26 0.34,0.26 0.46,0.66 l 5.920001,19.92 q 0.159999,0.54 0.28,1.16 0.139999,0.62 0.259999,1.3 0.140001,-0.68 0.280001,-1.3 0.14,-0.64 0.319999,-1.16 l 6.740001,-19.92 q 0.12,-0.34 0.459999,-0.62 0.36,-0.3 0.86,-0.3 h 1.120001 q 0.519999,0 0.839999,0.26 0.340001,0.26 0.48,0.66 l 6.7,19.92 q 0.36,1.04 0.64,2.38 0.120001,-0.66 0.22,-1.26 0.1,-0.6 0.260001,-1.12 l 5.939999,-19.92 q 0.100001,-0.36 0.44,-0.64 0.36,-0.28 0.860001,-0.28 h 3.02 l -8.94,28.66 h -3.48 l -7.260001,-21.86 q -0.219999,-0.62 -0.399999,-1.44 -0.100001,0.4 -0.2,0.78 -0.08,0.36 -0.180001,0.66 l -7.299999,21.86 h -3.480001 z"
       style="font-style:normal;font-variant:normal;font-weight:normal;font-stretch:normal;font-family:Lato;-inkscape-font-specification:Lato;fill:url(#linearGradient4503);fill-opacity:1;stroke:url(#linearGradient4505)"
       id="path30" />
    <path
       d="m 80.932812,67.854297 h -1.58 q -0.519999,0 -0.84,-0.16 -0.319999,-0.16 -0.419999,-0.68 l -0.4,-1.88 q -0.8,0.72 -1.560001,1.3 -0.76,0.56 -1.599999,0.96 -0.84,0.38 -1.800001,0.58 -0.94,0.2 -2.1,0.2 -1.18,0 -2.22,-0.32 -1.019999,-0.34 -1.78,-1 -0.76,-0.66 -1.22,-1.66 -0.439999,-1.02 -0.439999,-2.4 0,-1.2 0.659999,-2.3 0.66,-1.12 2.120001,-1.98 1.479999,-0.86 3.86,-1.4 2.379999,-0.56 5.819999,-0.64 v -1.58 q 0,-2.36 -1.02,-3.56 -1,-1.22 -2.98,-1.22 -1.3,0 -2.2,0.34 -0.88,0.32 -1.539999,0.74 -0.64,0.4 -1.120001,0.74 -0.459999,0.32 -0.92,0.32 -0.36,0 -0.64,-0.18 -0.259999,-0.2 -0.42,-0.48 l -0.64,-1.14 q 1.68,-1.62 3.62,-2.42 1.94,-0.8 4.3,-0.8 1.7,0 3.020001,0.56 1.319999,0.56 2.22,1.56 0.899999,1 1.36,2.42 0.459999,1.42 0.459999,3.12 z m -9.239999,-2.18 q 0.939999,0 1.719999,-0.18 0.780001,-0.2 1.46,-0.54 0.7,-0.36 1.320001,-0.86 0.64,-0.5 1.239999,-1.14 v -4.22 q -2.459999,0.08 -4.179999,0.4 -1.72,0.3 -2.800001,0.8 -1.08,0.5 -1.58,1.18 -0.479999,0.68 -0.479999,1.52 0,0.8 0.259999,1.38 0.26,0.58 0.7,0.96 0.44,0.36 1.040001,0.54 0.599999,0.16 1.3,0.16 z"
       style="font-style:normal;font-variant:normal;font-weight:normal;font-stretch:normal;font-family:Lato;-inkscape-font-specification:Lato;fill:url(#linearGradient4503);fill-opacity:1;stroke:url(#linearGradient4505)"
       id="path32" />
    <path
       d="m 90.325312,38.394297 v 29.46 h -3.56 v -29.46 z"
       style="font-style:normal;font-variant:normal;font-weight:normal;font-stretch:normal;font-family:Lato;-inkscape-font-specification:Lato;fill:url(#linearGradient4503);fill-opacity:1;stroke:url(#linearGradient4505)"
       id="path34" />
    <path
       d="m 100.55969,38.394297 v 29.46 h -3.560003 v -29.46 z"
       style="font-style:normal;font-variant:normal;font-weight:normal;font-stretch:normal;font-family:Lato;-inkscape-font-specification:Lato;fill:url(#linearGradient4503);fill-opacity:1;stroke:url(#linearGradient4505)"
       id="path36" />
    <path
       d="m 121.71406,67.854297 h -1.58 q -0.52,0 -0.84,-0.16 -0.32,-0.16 -0.42,-0.68 l -0.4,-1.88 q -0.8,0.72 -1.56,1.3 -0.76,0.56 -1.6,0.96 -0.84,0.38 -1.8,0.58 -0.94,0.2 -2.1,0.2 -1.18,0 -2.22,-0.32 -1.02,-0.34 -1.78,-1 -0.76,-0.66 -1.22,-1.66 -0.44,-1.02 -0.44,-2.4 0,-1.2 0.66,-2.3 0.66,-1.12 2.12,-1.98 1.48,-0.86 3.86,-1.4 2.38,-0.56 5.82,-0.64 v -1.58 q 0,-2.36 -1.02,-3.56 -1,-1.22 -2.98,-1.22 -1.3,0 -2.2,0.34 -0.88,0.32 -1.54,0.74 -0.64,0.4 -1.12,0.74 -0.46,0.32 -0.92,0.32 -0.36,0 -0.64,-0.18 -0.26,-0.2 -0.42,-0.48 l -0.64,-1.14 q 1.68,-1.62 3.62,-2.42 1.94,-0.8 4.3,-0.8 1.7,0 3.02,0.56 1.32,0.56 2.22,1.56 0.9,1 1.36,2.42 0.46,1.42 0.46,3.12 z m -9.24,-2.18 q 0.94,0 1.72,-0.18 0.78,-0.2 1.46,-0.54 0.7,-0.36 1.32,-0.86 0.64,-0.5 1.24,-1.14 v -4.22 q -2.46,0.08 -4.18,0.4 -1.72,0.3 -2.8,0.8 -1.08,0.5 -1.58,1.18 -0.48,0.68 -0.48,1.52 0,0.8 0.26,1.38 0.26,0.58 0.7,0.96 0.44,0.36 1.04,0.54 0.6,0.16 1.3,0.16 z"
       style="font-style:normal;font-variant:normal;font-weight:normal;font-stretch:normal;font-family:Lato;-inkscape-font-specification:Lato;fill:url(#linearGradient4503);fill-opacity:1;stroke:url(#linearGradient4505)"
       id="path38" />
    <path
       d="m 140.96656,51.194297 q -0.16,0.22 -0.32,0.34 -0.16,0.12 -0.46,0.12 -0.3,0 -0.66,-0.24 -0.34,-0.26 -0.88,-0.56 -0.54,-0.3 -1.32,-0.54 -0.76,-0.26 -1.88,-0.26 -1.48,0 -2.62,0.54 -1.14,0.52 -1.92,1.52 -0.76,1 -1.16,2.42 -0.38,1.42 -0.38,3.18 0,1.84 0.42,3.28 0.42,1.42 1.18,2.4 0.76,0.96 1.84,1.48 1.1,0.5 2.46,0.5 1.3,0 2.14,-0.3 0.84,-0.32 1.4,-0.7 0.56,-0.38 0.92,-0.68 0.36,-0.32 0.72,-0.32 0.46,0 0.68,0.34 l 1,1.3 q -1.32,1.62 -3.3,2.38 -1.98,0.74 -4.18,0.74 -1.9,0 -3.54,-0.7 -1.62,-0.7 -2.82,-2.02 -1.2,-1.34 -1.9,-3.28 -0.68,-1.94 -0.68,-4.42 0,-2.26 0.62,-4.18 0.64,-1.92 1.84,-3.3 1.22,-1.4 3,-2.18 1.78,-0.78 4.08,-0.78 2.12,0 3.76,0.7 1.64,0.68 2.9,1.94 z"
       style="font-style:normal;font-variant:normal;font-weight:normal;font-stretch:normal;font-family:Lato;-inkscape-font-specification:Lato;fill:url(#linearGradient4503);fill-opacity:1;stroke:url(#linearGradient4505)"
       id="path40" />
    <path
       d="m 153.83844,47.274297 q 1.82,0 3.36,0.62 1.54,0.6 2.66,1.76 1.12,1.14 1.74,2.84 0.64,1.68 0.64,3.84 0,0.84 -0.18,1.12 -0.18,0.28 -0.68,0.28 h -13.48 q 0.04,1.92 0.52,3.34 0.48,1.42 1.32,2.38 0.84,0.94 2,1.42 1.16,0.46 2.6,0.46 1.34,0 2.3,-0.3 0.98,-0.32 1.68,-0.68 0.7,-0.36 1.16,-0.66 0.48,-0.32 0.82,-0.32 0.44,0 0.68,0.34 l 1,1.3 q -0.66,0.8 -1.58,1.4 -0.92,0.58 -1.98,0.96 -1.04,0.38 -2.16,0.56 -1.12,0.2 -2.22,0.2 -2.1,0 -3.88,-0.7 -1.76,-0.72 -3.06,-2.08 -1.28,-1.38 -2,-3.4 -0.72,-2.02 -0.72,-4.64 0,-2.12 0.64,-3.96 0.66,-1.84 1.88,-3.18 1.22,-1.36 2.98,-2.12 1.76,-0.78 3.96,-0.78 z m 0.08,2.62 q -2.58,0 -4.06,1.5 -1.48,1.48 -1.84,4.12 h 11.02 q 0,-1.24 -0.34,-2.26 -0.34,-1.04 -1,-1.78 -0.66,-0.76 -1.62,-1.16 -0.94,-0.42 -2.16,-0.42 z"
       style="font-style:normal;font-variant:normal;font-weight:normal;font-stretch:normal;font-family:Lato;-inkscape-font-specification:Lato;fill:url(#linearGradient4503);fill-opacity:1;stroke:url(#linearGradient4505)"
       id="path42" />
    <path
       d="m 179.65031,67.854297 h -3.88 v -28.66 h 3.88 z"
       style="font-style:normal;font-variant:normal;font-weight:normal;font-stretch:normal;font-family:Lato;-inkscape-font-specification:Lato;fill:url(#linearGradient4503);fill-opacity:1;stroke:url(#linearGradient4505)"
       id="path44" />
    <path
       d="m 186.75594,67.854297 v -20.26 h 2.12 q 0.76,0 0.96,0.74 l 0.28,2.2 q 1.32,-1.46 2.94,-2.36 1.64,-0.9 3.78,-0.9 1.66,0 2.92,0.56 1.28,0.54 2.12,1.56 0.86,1 1.3,2.42 0.44,1.42 0.44,3.14 v 12.9 h -3.56 v -12.9 q 0,-2.3 -1.06,-3.56 -1.04,-1.28 -3.2,-1.28 -1.58,0 -2.96,0.76 -1.36,0.76 -2.52,2.06 v 14.92 z"
       style="font-style:normal;font-variant:normal;font-weight:normal;font-stretch:normal;font-family:Lato;-inkscape-font-specification:Lato;fill:url(#linearGradient4503);fill-opacity:1;stroke:url(#linearGradient4505)"
       id="path46" />
    <path
       d="m 212.98156,47.594297 v 20.26 h -3.56 v -20.26 z m 0.8,-6.36 q 0,0.52 -0.22,0.98 -0.2,0.44 -0.56,0.8 -0.34,0.34 -0.8,0.54 -0.46,0.2 -0.98,0.2 -0.52,0 -0.98,-0.2 -0.44,-0.2 -0.8,-0.54 -0.34,-0.36 -0.54,-0.8 -0.2,-0.46 -0.2,-0.98 0,-0.52 0.2,-0.98 0.2,-0.48 0.54,-0.82 0.36,-0.36 0.8,-0.56 0.46,-0.2 0.98,-0.2 0.52,0 0.98,0.2 0.46,0.2 0.8,0.56 0.36,0.34 0.56,0.82 0.22,0.46 0.22,0.98 z"
       style="font-style:normal;font-variant:normal;font-weight:normal;font-stretch:normal;font-family:Lato;-inkscape-font-specification:Lato;fill:url(#linearGradient4503);fill-opacity:1;stroke:url(#linearGradient4505)"
       id="path48" />
    <path
       d="m 225.39594,68.174297 q -2.4,0 -3.7,-1.34 -1.28,-1.34 -1.28,-3.86 v -12.4 h -2.44 q -0.32,0 -0.54,-0.18 -0.22,-0.2 -0.22,-0.6 v -1.42 l 3.32,-0.42 0.82,-6.26 q 0.04,-0.3 0.26,-0.48 0.22,-0.2 0.56,-0.2 h 1.8 v 6.98 h 5.8 v 2.58 h -5.8 v 12.16 q 0,1.28 0.62,1.9 0.62,0.62 1.6,0.62 0.56,0 0.96,-0.14 0.42,-0.16 0.72,-0.34 0.3,-0.18 0.5,-0.32 0.22,-0.16 0.38,-0.16 0.28,0 0.5,0.34 l 1.04,1.7 q -0.92,0.86 -2.22,1.36 -1.3,0.48 -2.68,0.48 z"
       style="font-style:normal;font-variant:normal;font-weight:normal;font-stretch:normal;font-family:Lato;-inkscape-font-specification:Lato;fill:url(#linearGradient4503);fill-opacity:1;stroke:url(#linearGradient4505)"
       id="path50" />
    <path
       d="m 238.13781,47.594297 v 20.26 h -3.56 v -20.26 z m 0.8,-6.36 q 0,0.52 -0.22,0.98 -0.2,0.44 -0.56,0.8 -0.34,0.34 -0.8,0.54 -0.46,0.2 -0.98,0.2 -0.52,0 -0.98,-0.2 -0.44,-0.2 -0.8,-0.54 -0.34,-0.36 -0.54,-0.8 -0.2,-0.46 -0.2,-0.98 0,-0.52 0.2,-0.98 0.2,-0.48 0.54,-0.82 0.36,-0.36 0.8,-0.56 0.46,-0.2 0.98,-0.2 0.52,0 0.98,0.2 0.46,0.2 0.8,0.56 0.36,0.34 0.56,0.82 0.22,0.46 0.22,0.98 z"
       style="font-style:normal;font-variant:normal;font-weight:normal;font-stretch:normal;font-family:Lato;-inkscape-font-specification:Lato;fill:url(#linearGradient4503);fill-opacity:1;stroke:url(#linearGradient4505)"
       id="path52" />
    <path
       d="m 259.29219,67.854297 h -1.58 q -0.52,0 -0.84,-0.16 -0.32,-0.16 -0.42,-0.68 l -0.4,-1.88 q -0.8,0.72 -1.56,1.3 -0.76,0.56 -1.6,0.96 -0.84,0.38 -1.8,0.58 -0.94,0.2 -2.1,0.2 -1.18,0 -2.22,-0.32 -1.02,-0.34 -1.78,-1 -0.76,-0.66 -1.22,-1.66 -0.44,-1.02 -0.44,-2.4 0,-1.2 0.66,-2.3 0.66,-1.12 2.12,-1.98 1.48,-0.86 3.86,-1.4 2.38,-0.56 5.82,-0.64 v -1.58 q 0,-2.36 -1.02,-3.56 -1,-1.22 -2.98,-1.22 -1.3,0 -2.2,0.34 -0.88,0.32 -1.54,0.74 -0.64,0.4 -1.12,0.74 -0.46,0.32 -0.92,0.32 -0.36,0 -0.64,-0.18 -0.26,-0.2 -0.42,-0.48 l -0.64,-1.14 q 1.68,-1.62 3.62,-2.42 1.94,-0.8 4.3,-0.8 1.7,0 3.02,0.56 1.32,0.56 2.22,1.56 0.9,1 1.36,2.42 0.46,1.42 0.46,3.12 z m -9.24,-2.18 q 0.94,0 1.72,-0.18 0.78,-0.2 1.46,-0.54 0.7,-0.36 1.32,-0.86 0.64,-0.5 1.24,-1.14 v -4.22 q -2.46,0.08 -4.18,0.4 -1.72,0.3 -2.8,0.8 -1.08,0.5 -1.58,1.18 -0.48,0.68 -0.48,1.52 0,0.8 0.26,1.38 0.26,0.58 0.7,0.96 0.44,0.36 1.04,0.54 0.6,0.16 1.3,0.16 z"
       style="font-style:normal;font-variant:normal;font-weight:normal;font-stretch:normal;font-family:Lato;-inkscape-font-specification:Lato;fill:url(#linearGradient4503);fill-opacity:1;stroke:url(#linearGradient4505)"
       id="path54" />
    <path
       d="m 270.86469,68.174297 q -2.4,0 -3.7,-1.34 -1.28,-1.34 -1.28,-3.86 v -12.4 h -2.44 q -0.32,0 -0.54,-0.18 -0.22,-0.2 -0.22,-0.6 v -1.42 l 3.32,-0.42 0.82,-6.26 q 0.04,-0.3 0.26,-0.48 0.22,-0.2 0.56,-0.2 h 1.8 v 6.98 h 5.8 v 2.58 h -5.8 v 12.16 q 0,1.28 0.62,1.9 0.62,0.62 1.6,0.62 0.56,0 0.96,-0.14 0.42,-0.16 0.72,-0.34 0.3,-0.18 0.5,-0.32 0.22,-0.16 0.38,-0.16 0.28,0 0.5,0.34 l 1.04,1.7 q -0.92,0.86 -2.22,1.36 -1.3,0.48 -2.68,0.48 z"
       style="font-style:normal;font-variant:normal;font-weight:normal;font-stretch:normal;font-family:Lato;-inkscape-font-specification:Lato;fill:url(#linearGradient4503);fill-opacity:1;stroke:url(#linearGradient4505)"
       id="path56" />
    <path
       d="m 283.60656,47.594297 v 20.26 h -3.56 v -20.26 z m 0.8,-6.36 q 0,0.52 -0.22,0.98 -0.2,0.44 -0.56,0.8 -0.34,0.34 -0.8,0.54 -0.46,0.2 -0.98,0.2 -0.52,0 -0.98,-0.2 -0.44,-0.2 -0.8,-0.54 -0.34,-0.36 -0.54,-0.8 -0.2,-0.46 -0.2,-0.98 0,-0.52 0.2,-0.98 0.2,-0.48 0.54,-0.82 0.36,-0.36 0.8,-0.56 0.46,-0.2 0.98,-0.2 0.52,0 0.98,0.2 0.46,0.2 0.8,0.56 0.36,0.34 0.56,0.82 0.22,0.46 0.22,0.98 z"
       style="font-style:normal;font-variant:normal;font-weight:normal;font-stretch:normal;font-family:Lato;-inkscape-font-specification:Lato;fill:url(#linearGradient4503);fill-opacity:1;stroke:url(#linearGradient4505)"
       id="path58" />
    <path
       d="m 287.32094,47.594297 h 2.92 q 0.42,0 0.7,0.22 0.28,0.22 0.4,0.52 l 5.14,13.04 q 0.28,0.72 0.44,1.44 0.16,0.72 0.3,1.42 0.16,-0.7 0.34,-1.42 0.18,-0.72 0.46,-1.44 l 5.2,-13.04 q 0.12,-0.32 0.38,-0.52 0.28,-0.22 0.68,-0.22 h 2.78 l -8.26,20.26 h -3.22 z"
       style="font-style:normal;font-variant:normal;font-weight:normal;font-stretch:normal;font-family:Lato;-inkscape-font-specification:Lato;fill:url(#linearGradient4503);fill-opacity:1;stroke:url(#linearGradient4505)"
       id="path60" />
    <path
       d="m 317.82281,47.274297 q 1.82,0 3.36,0.62 1.54,0.6 2.66,1.76 1.12,1.14 1.74,2.84 0.64,1.68 0.64,3.84 0,0.84 -0.18,1.12 -0.18,0.28 -0.68,0.28 h -13.48 q 0.04,1.92 0.52,3.34 0.48,1.42 1.32,2.38 0.84,0.94 2,1.42 1.16,0.46 2.6,0.46 1.34,0 2.3,-0.3 0.98,-0.32 1.68,-0.68 0.7,-0.36 1.16,-0.66 0.48,-0.32 0.82,-0.32 0.44,0 0.68,0.34 l 1,1.3 q -0.66,0.8 -1.58,1.4 -0.92,0.58 -1.98,0.96 -1.04,0.38 -2.16,0.56 -1.12,0.2 -2.22,0.2 -2.1,0 -3.88,-0.7 -1.76,-0.72 -3.06,-2.08 -1.28,-1.38 -2,-3.4 -0.72,-2.02 -0.72,-4.64 0,-2.12 0.64,-3.96 0.66,-1.84 1.88,-3.18 1.22,-1.36 2.98,-2.12 1.76,-0.78 3.96,-0.78 z m 0.08,2.62 q -2.58,0 -4.06,1.5 -1.48,1.48 -1.84,4.12 h 11.02 q 0,-1.24 -0.34,-2.26 -0.34,-1.04 -1,-1.78 -0.66,-0.76 -1.62,-1.16 -0.94,-0.42 -2.16,-0.42 z"
       style="font-style:normal;font-variant:normal;font-weight:normal;font-stretch:normal;font-family:Lato;-inkscape-font-specification:Lato;fill:url(#linearGradient4503);fill-opacity:1;stroke:url(#linearGradient4505)"
       id="path62" />
  </g>
</svg>
