<svg xmlns="http://www.w3.org/2000/svg" xmlns:xlink="http://www.w3.org/1999/xlink" viewBox="0 0 267.8 58.4"><defs><style>.a,.d{fill:none;}.b{clip-path:url(#a);}.c{fill:#f33;}.d{stroke:#000;stroke-miterlimit:10;stroke-width:0.96px;}</style><clipPath id="a" transform="translate(-5 -43.3)"><rect class="a" width="283.5" height="141.73"/></clipPath></defs><title>Tyndall Centre full version logo</title><g class="b"><polygon class="c" points="10 3.3 0 3.3 0 0.7 22.6 0.7 22.6 3.3 12.8 3.3 12.7 31.6 10 31.6 10 3.3"/><polygon class="c" points="23.5 10.1 30.7 28.1 37.9 10.1 40.7 10.1 28.8 39.8 26 39.8 29.3 31.6 20.4 10.1 23.5 10.1"/><path class="c" d="M52.5,74.9H49.9V58.2c0-1.7-.1-3.4-.2-4.8h2.7v3.1h.1a7.4,7.4,0,0,1,6.7-3.9c7,0,7.6,6.2,7.6,8.7V74.9H64.3V61c0-3.7-2.1-5.9-5.7-5.9s-6.2,3.6-6.2,7.4Z" transform="translate(-5 -43.3)"/><path class="c" d="M88.5,63.6c0,4.9-1.7,9.6-7.3,9.6s-6.1-5.5-6.1-9.5S76.6,55,81.5,55s6.9,4.2,6.9,8.6m.2,11.3h2.7c-.1-1.5-.2-3.2-.2-4.9V43.9H88.5V56.5h-.1a8.6,8.6,0,0,0-7.4-3.9c-6.4,0-8.8,5.7-8.8,11.3s2.4,11.5,8.8,11.5a8.7,8.7,0,0,0,7.4-4v3.3Z" transform="translate(-5 -43.3)"/><path class="c" d="M98.5,68.9c0-5.4,7.6-4.8,11.2-4.9.3,4.5-.8,9.2-6.4,9.2-2.6,0-4.8-1.4-4.8-4.3m11.2-7.2c-3.1.2-6.8-.3-9.7,1a6.6,6.6,0,0,0-4.3,6.2c0,4.2,3.1,6.7,7.1,6.7s5.8-1.7,6.7-3.5v-.3h.1v3.1h2.7c-.1-1.5-.3-3.2-.2-4.9V59.8c.1-4.9-2.9-7.1-7.6-7.1s-7.4,1.7-8,6.1h2.7c.3-2.9,2.6-3.7,5.2-3.7s4.8,1.1,5.1,4.6Z" transform="translate(-5 -43.3)"/><rect class="c" x="114" y="0.7" width="2.6" height="30.97"/><rect class="c" x="123.5" y="0.7" width="2.6" height="30.97"/><path d="M142.9,47.1a2.6,2.6,0,0,1-2.3,2.4,2.5,2.5,0,0,1-2.3-2.4,2.5,2.5,0,0,1,2.3-2.4,2.5,2.5,0,0,1,2.3,2.4m-6.1,0a3.8,3.8,0,1,0,7.5,0,3.8,3.8,0,1,0-7.5,0" transform="translate(-5 -43.3)"/><path d="M169.7,51.2c-.5-3.8-3.8-5.3-7.3-5.3-7.9,0-10.3,7.2-10.3,13.6S154.5,73,162.4,73c3.4,0,6.9-1.7,7.6-5.6h3c-.9,5.2-5.7,8.2-10.6,8.2-9.4,0-13.3-7.6-13.3-16.2s4-16.1,13.3-16.1c5.1,0,9.9,2.3,10.3,7.9Z" transform="translate(-5 -43.3)"/><path d="M180.1,62.4c.3-3.8,2.6-7.4,6.8-7.4s6.7,3.2,7,7.4H180.1m16.5,2.3c0-6.8-2.6-12-9.8-12s-9.5,5.6-9.5,11.5,3,11.4,9.4,11.4,8.4-2.3,9.7-7.5h-2.7a6.4,6.4,0,0,1-6.2,5.1c-5.3,0-7.4-3.9-7.4-8.5h16.6" transform="translate(-5 -43.3)"/><path d="M204.9,74.9h-2.6V58.2c0-1.7-.1-3.4-.2-4.8h2.7v3.1h.1a7.4,7.4,0,0,1,6.7-3.9c7,0,7.6,6.2,7.6,8.7V74.9h-2.6V61c0-3.7-2.1-5.9-5.7-5.9s-6.2,3.6-6.2,7.4Z" transform="translate(-5 -43.3)"/><path d="M228,55.7h-4.3V53.4H228V48.8l2.6-1.1v5.7h4.9v2.3h-4.9V70.2a2.7,2.7,0,0,0,3,3.1,7.5,7.5,0,0,0,2.2-.3v2.2a10.7,10.7,0,0,1-2.6.4c-5.5,0-5.2-3.5-5.2-6.4Z" transform="translate(-5 -43.3)"/><path d="M243,74.9h-2.6V58.2c0-1.7-.1-3.4-.2-4.8h2.7v3.1h.1a5.5,5.5,0,0,1,4.8-3.8h2.6v2.5l-1.6-.2c-3.8,0-5.8,2.7-5.9,6.9Z" transform="translate(-5 -43.3)"/><path d="M256.3,62.4c.3-3.8,2.6-7.4,6.8-7.4s6.7,3.2,7,7.4Zm16.5,2.3c0-6.8-2.6-12.1-9.8-12.1s-9.6,5.6-9.6,11.5,3,11.4,9.4,11.4,8.4-2.3,9.7-7.5h-2.7a6.4,6.4,0,0,1-6.2,5.1c-5.3,0-7.4-3.9-7.4-8.5Z" transform="translate(-5 -43.3)"/><path d="M67.1,98.5V91.3H65.5v-.9h1.6V88.8c0-1.4.6-2,1.9-2l.9.2v.8h-.6c-1.3,0-1.4.7-1.3,1.8v1h1.8v.9H68v7.2Z" transform="translate(-5 -43.3)"/><path d="M77.6,94.5c0,1.5-.8,3.4-2.7,3.4s-2.7-1.9-2.7-3.4.8-3.4,2.7-3.4,2.7,1.9,2.7,3.4m-2.7-4.3c-2.6,0-3.8,2.1-3.8,4.3s1.2,4.3,3.8,4.3,3.8-2.1,3.8-4.3-1.2-4.3-3.8-4.3" transform="translate(-5 -43.3)"/><path d="M81.6,98.5h-1V92.3c0-.6,0-1.3-.1-1.8h1v1.2h0a2.1,2.1,0,0,1,1.8-1.4h1v.9h-.6c-1.4,0-2.2,1-2.2,2.6Z" transform="translate(-5 -43.3)"/><path d="M97.9,89.7c-.2-1.4-1.4-2-2.7-2-3,0-3.9,2.7-3.9,5.1s.9,5.1,3.9,5.1A2.7,2.7,0,0,0,98,95.7h1.1a3.9,3.9,0,0,1-4,3c-3.5,0-5-2.8-5-6s1.5-6,5-6c1.9,0,3.7.9,3.9,2.9Z" transform="translate(-5 -43.3)"/><line class="d" x1="96.7" y1="55.3" x2="96.7" y2="43.7"/><path d="M105.7,98.5h-1V90.5h1Zm.1-10.4h-1.1V87h1.1Z" transform="translate(-5 -43.3)"/><path d="M109.3,91.7h0a2.8,2.8,0,0,1,2.5-1.5,2.6,2.6,0,0,1,2.6,1.8,3.3,3.3,0,0,1,2.8-1.8c2.6,0,2.8,2.3,2.8,3.3v5h-1V93.3a2,2,0,0,0-2.1-2.2c-1.6,0-2.3,1.3-2.3,2.8v4.6h-1V93.3a2,2,0,0,0-2.1-2.2c-1.6,0-2.3,1.3-2.3,2.8v4.6h-1V92.3c0-.6,0-1.3-.1-1.8h1Z" transform="translate(-5 -43.3)"/><path d="M123,96.3c0-2,2.9-1.8,4.2-1.8.1,1.7-.3,3.4-2.4,3.4a1.6,1.6,0,0,1-1.8-1.6m4.2-2.7a11.1,11.1,0,0,0-3.6.4,2.5,2.5,0,0,0,1.1,4.8,3,3,0,0,0,2.5-1.3h.1v1.2h1c0-.5-.1-1.2-.1-1.8V92.9c0-1.9-1.1-2.7-2.9-2.7s-2.8.6-3,2.3h1c.1-1.1,1-1.4,2-1.4a1.6,1.6,0,0,1,1.9,1.7Z" transform="translate(-5 -43.3)"/><path d="M131.3,91.3h-1.6v-.9h1.6V88.7l1-.4v2.1h1.8v.9h-1.8v5.4a1,1,0,0,0,1.1,1.1h.8v.8h-1c-2,0-1.9-1.3-1.9-2.4Z" transform="translate(-5 -43.3)"/><path d="M136.6,93.9c.1-1.4,1-2.7,2.5-2.7s2.5,1.2,2.6,2.7Zm6.2.9c0-2.5-1-4.5-3.7-4.5s-3.6,2.1-3.6,4.3,1.1,4.3,3.5,4.3a3.4,3.4,0,0,0,3.6-2.8h-1a2.4,2.4,0,0,1-2.3,1.9c-2,0-2.8-1.4-2.8-3.2Z" transform="translate(-5 -43.3)"/><path d="M156.8,89.7a2.4,2.4,0,0,0-2.7-2c-3,0-3.9,2.7-3.9,5.1s.9,5.1,3.9,5.1a2.7,2.7,0,0,0,2.8-2.1h1.1a3.8,3.8,0,0,1-4,3c-3.5,0-5-2.8-5-6s1.5-6,5-6c1.9,0,3.7.9,3.8,3h-1.1" transform="translate(-5 -43.3)"/><path d="M161.1,91.7h0a2.8,2.8,0,0,1,2.5-1.5c2.6,0,2.9,2.3,2.9,3.3v5h-1V93.3a2,2,0,0,0-2.1-2.2c-1.6,0-2.3,1.3-2.3,2.8v4.7h-1V87h1v4.7" transform="translate(-5 -43.3)"/><path d="M169.4,96.3c0-2,2.9-1.8,4.2-1.8.1,1.7-.3,3.4-2.4,3.4a1.6,1.6,0,0,1-1.8-1.6m4.2-2.7a11.2,11.2,0,0,0-3.7.4,2.5,2.5,0,0,0-1.6,2.3,2.5,2.5,0,0,0,2.7,2.5,3.1,3.1,0,0,0,2.5-1.3h.1v1.2h1c0-.6-.1-1.2-.1-1.8V92.9c0-1.9-1.1-2.7-2.9-2.7s-2.8.6-3,2.3h1c.1-1.1,1-1.4,2-1.4s1.8.4,1.9,1.7v.7" transform="translate(-5 -43.3)"/><path d="M178,98.5h-1V92.3c0-.6,0-1.3-.1-1.8h1v1.2h0a2.8,2.8,0,0,1,2.5-1.5c2.6,0,2.9,2.3,2.9,3.3v5h-1V93.3a2,2,0,0,0-2.1-2.2c-1.6,0-2.3,1.3-2.3,2.8v4.7" transform="translate(-5 -43.3)"/><path d="M191.6,94.3c0,1.6-.7,3.3-2.5,3.3s-2.5-1.8-2.5-3.3.7-3.2,2.5-3.2,2.6,1.7,2.6,3.2m0-2.7h0a3.1,3.1,0,0,0-2.6-1.5c-2.5,0-3.4,2-3.4,4.2s1,4.1,3.5,4.1a3,3,0,0,0,2.6-1.5h0v1.5a2.3,2.3,0,0,1-2.4,2.2c-1,0-2.2-.3-2.3-1.3h-1c0,1.7,1.7,2.2,3.2,2.2a3.7,3.7,0,0,0,1.8-.4c1.8-.8,1.7-2.5,1.7-4.1V92.3c0-.6,0-1.3.1-1.8h-1v1.2" transform="translate(-5 -43.3)"/><path d="M195.5,93.9a2.7,2.7,0,0,1,2.5-2.7c1.7,0,2.5,1.2,2.6,2.7h-5.2m6.2.9c0-2.5-1-4.5-3.7-4.5s-3.6,2.1-3.6,4.3,1.1,4.3,3.5,4.3a3.4,3.4,0,0,0,3.7-2.8h-1a2.4,2.4,0,0,1-2.3,1.9c-2,0-2.8-1.4-2.8-3.2h6.2" transform="translate(-5 -43.3)"/><path d="M209.8,92.1V87.9h2.3c1.1,0,3.2-.2,3.2,2.1s-1.8,2.1-3.3,2.1Zm0,1h2.9c2.1,0,2.3.5,2.5,3.1a9.3,9.3,0,0,0,.4,2.4h1.2c-.5-.7-.4-1.6-.6-3.5s-.5-2.3-1.9-2.6h0a2.7,2.7,0,0,0,1-4.9,4.8,4.8,0,0,0-2.7-.6h-3.8V98.5h1Z" transform="translate(-5 -43.3)"/><path d="M219.7,93.9c.1-1.4,1-2.7,2.5-2.7s2.5,1.2,2.6,2.7Zm6.2.9c0-2.5-1-4.5-3.7-4.5s-3.6,2.1-3.6,4.3,1.1,4.3,3.5,4.3a3.4,3.4,0,0,0,3.6-2.8h-1a2.4,2.4,0,0,1-2.3,1.9c-2,0-2.8-1.4-2.8-3.2Z" transform="translate(-5 -43.3)"/><path d="M230.7,90.2c1.5,0,2.8.5,2.9,2.2h-1c-.1-1-1-1.3-2-1.3s-1.8.4-1.8,1.3,1.6,1.1,3.8,1.8a2,2,0,0,1,1.4,1.9c0,1.8-1.7,2.6-3.4,2.6s-3-.7-3-2.4h1c.1,1.2,1.1,1.6,2.2,1.6s2.1-.5,2.1-1.6-1.3-1.4-2.6-1.6-2.6-.7-2.6-2.2,1.5-2.2,3-2.2" transform="translate(-5 -43.3)"/><path d="M236.6,93.9c.1-1.4,1-2.7,2.5-2.7s2.5,1.2,2.6,2.7Zm6.2.9c0-2.5-1-4.5-3.7-4.5s-3.6,2.1-3.6,4.3,1.1,4.3,3.5,4.3a3.4,3.4,0,0,0,3.6-2.8h-1a2.4,2.4,0,0,1-2.3,1.9c-2,0-2.8-1.4-2.8-3.2Z" transform="translate(-5 -43.3)"/><path d="M245.3,96.3c0-2,2.9-1.8,4.2-1.8.1,1.7-.3,3.4-2.4,3.4a1.6,1.6,0,0,1-1.8-1.6m4.2-2.7a11.1,11.1,0,0,0-3.6.4,2.5,2.5,0,0,0,1.1,4.8,3,3,0,0,0,2.5-1.3h.1v1.2h1c0-.5-.1-1.2-.1-1.8V92.9c0-1.9-1.1-2.7-2.9-2.7s-2.8.6-3,2.3h1c.1-1.1,1-1.4,2-1.4a1.6,1.6,0,0,1,1.9,1.7Z" transform="translate(-5 -43.3)"/><path d="M254,98.5h-1V92.3c0-.6,0-1.3-.1-1.8h1v1.2h0a2.1,2.1,0,0,1,1.8-1.4h1v.9h-.6c-1.4,0-2.2,1-2.2,2.6Z" transform="translate(-5 -43.3)"/><path d="M263.4,92.9c-.1-1.2-.9-1.8-2.2-1.8s-2.4,1.5-2.4,3.4.9,3.4,2.4,3.4a2,2,0,0,0,2.2-1.9h1a2.9,2.9,0,0,1-3.2,2.8c-2.4,0-3.5-2.1-3.5-4.3s1.2-4.3,3.6-4.3a2.9,2.9,0,0,1,3.1,2.7Z" transform="translate(-5 -43.3)"/><path d="M267.3,91.7h0a2.8,2.8,0,0,1,2.5-1.5c2.6,0,2.9,2.3,2.9,3.3v5h-1V93.3a2,2,0,0,0-2.1-2.2c-1.6,0-2.3,1.3-2.3,2.8v4.6h-1V86.9h1Z" transform="translate(-5 -43.3)"/></g></svg>