<svg xmlns="http://www.w3.org/2000/svg" version="1" height="81.413" width="261.852"><g font-family="Myriad Pro"><g style="line-height:0%;-inkscape-font-specification:'Myriad Pro Semi-Bold';text-align:start" aria-label="eRESEARCH" font-weight="700" fill="#deb326" font-size="51.375"><path style="line-height:100%;-inkscape-font-specification:'Myriad Pro Semi-Bold';text-align:start" d="M27.463 31.376c.098-.595.245-1.838.245-3.243 0-6.54-2.93-13.188-10.646-13.188C8.809 14.945 5 22.35 5 29.052c0 8.27 4.64 13.458 12.746 13.458 3.223 0 6.201-.54 8.643-1.675l-.977-5.567c-2.002.756-4.053 1.135-6.592 1.135-3.467 0-6.495-1.622-6.74-5.027zm-15.431-5.621c.195-2.162 1.465-5.351 4.64-5.351 3.369 0 4.15 3.351 4.15 5.35zM32.364 41.97h7.373V27.647h2.198c3.076.054 4.493 1.243 5.42 5.837.928 4.486 1.758 7.405 2.247 8.486h7.618c-.635-1.406-1.612-6.162-2.637-10.324-.83-3.35-2.1-5.729-4.395-6.756v-.162c2.832-1.135 5.811-4.324 5.811-8.918 0-3.351-1.074-5.892-3.077-7.621C50.578 6.08 47.16 5.27 42.277 5.27c-4.005 0-7.52.325-9.913.811zm7.373-30.268c.538-.162 1.563-.27 3.37-.27 3.418 0 5.47 1.73 5.47 5.026 0 3.19-2.198 5.243-5.91 5.243h-2.93zM80.94 19.864H68.83v-7.567h12.843V5.54H61.407v36.43h20.95v-6.756H68.83v-8.648h12.11zM86.127 40.24c1.856 1.135 5.567 2.27 9.327 2.27 9.034 0 13.234-5.189 13.234-11.296 0-5.135-2.686-8.486-8.497-10.864-4.297-1.784-6.104-2.81-6.104-5.135 0-1.837 1.563-3.513 4.786-3.513 3.174 0 5.567 1.027 6.836 1.73l1.66-6.594C105.417 5.81 102.73 5 98.97 5c-7.715 0-12.452 4.702-12.452 10.918 0 5.297 3.613 8.648 9.083 10.81 3.955 1.513 5.518 2.81 5.518 5.08 0 2.379-1.807 3.946-5.225 3.946-3.174 0-6.3-1.135-8.253-2.27zM133.303 19.864h-12.11v-7.567h12.843V5.54H113.77v36.43h20.95v-6.756h-13.527v-8.648h12.11zM156.85 32.62l2.54 9.35h8.009L157.144 5.54h-9.718l-10.06 36.43h7.716l2.295-9.35zm-8.398-6.162l2.002-7.73c.488-2.107 1.025-4.864 1.465-7.026h.146c.489 2.108 1.075 4.865 1.612 7.027l2.05 7.729zM171.806 41.97h7.374V27.647h2.198c3.076.054 4.492 1.243 5.42 5.837.928 4.486 1.758 7.405 2.246 8.486h7.618c-.634-1.406-1.611-6.162-2.637-10.324-.83-3.35-2.1-5.729-4.395-6.756v-.162c2.833-1.135 5.812-4.324 5.812-8.918 0-3.351-1.075-5.892-3.077-7.621-2.344-2.108-5.762-2.919-10.646-2.919-4.004 0-7.52.325-9.913.811zm7.374-30.268c.537-.162 1.563-.27 3.37-.27 3.418 0 5.469 1.73 5.469 5.026 0 3.19-2.198 5.243-5.909 5.243h-2.93zM223.66 34.457c-1.514.702-3.956 1.189-6.25 1.189-6.593 0-10.5-4.594-10.5-11.837 0-8.107 4.59-12.053 10.45-12.053 2.686 0 4.786.649 6.25 1.351l1.564-6.54C223.855 5.865 220.925 5 217.067 5c-9.962 0-17.97 6.864-17.97 19.242 0 10.377 5.86 18.268 17.238 18.268 3.955 0 7.08-.865 8.4-1.567zM229.75 5.54v36.43h7.422V26.782h12.257V41.97h7.423V5.54h-7.423v14.053h-12.257V5.54z"/></g><g style="line-height:0%;-inkscape-font-specification:'Myriad Pro';text-align:start" aria-label="Centre" font-weight="400" fill="#0066b3" font-size="40"><path style="line-height:125%;-inkscape-font-specification:'Myriad Pro';text-align:start" d="M24.944 72.333c-1.4.68-3.56 1.12-5.72 1.12-6.52 0-10.32-4.2-10.32-10.8 0-7.04 4.2-11.08 10.52-11.08 2.24 0 4.12.48 5.4 1.12l.88-2.88c-.92-.44-3.08-1.16-6.4-1.16-8.36 0-14.08 5.68-14.08 14.12 0 8.84 5.68 13.64 13.28 13.64 3.28 0 5.88-.64 7.12-1.28zM44.998 66.973c.08-.4.12-.92.12-1.64 0-3.56-1.64-9.12-7.96-9.12-5.64 0-9.12 4.6-9.12 10.44 0 5.8 3.6 9.76 9.52 9.76 3.08 0 5.24-.68 6.48-1.24l-.64-2.52c-1.28.56-2.84 1-5.36 1-3.52 0-6.52-1.96-6.6-6.68zm-13.52-2.52c.28-2.44 1.8-5.72 5.4-5.72 3.92 0 4.88 3.48 4.84 5.72zM49.516 76.013h3.52v-11.68c0-.56.08-1.2.24-1.64.64-1.96 2.44-3.6 4.72-3.6 3.32 0 4.48 2.64 4.48 5.76v11.16h3.52v-11.56c0-6.64-4.16-8.24-6.84-8.24-3.2 0-5.44 1.8-6.4 3.6h-.08l-.2-3.16h-3.12c.12 1.6.16 3.2.16 5.24zM72.347 53.093v3.56h-3v2.68h3v10.52c0 2.28.4 4 1.36 5.08.84.92 2.16 1.48 3.8 1.48 1.36 0 2.44-.24 3.12-.48l-.16-2.68c-.52.16-1.08.24-2.04.24-1.96 0-2.64-1.36-2.64-3.76v-10.4h5.04v-2.68h-5.04v-4.64zM84.75 76.013h3.52v-10.36c0-.56.04-1.12.12-1.64.48-2.6 2.24-4.48 4.72-4.48.48 0 .84.04 1.2.08v-3.32c-.32-.04-.6-.08-.96-.08-2.36 0-4.52 1.64-5.4 4.24h-.12l-.16-3.8h-3.08c.12 1.8.16 3.76.16 6.04zM112.967 66.973c.08-.4.12-.92.12-1.64 0-3.56-1.64-9.12-7.96-9.12-5.64 0-9.12 4.6-9.12 10.44 0 5.8 3.6 9.76 9.52 9.76 3.08 0 5.24-.68 6.48-1.24l-.64-2.52c-1.28.56-2.84 1-5.36 1-3.52 0-6.52-1.96-6.6-6.68zm-13.52-2.52c.28-2.44 1.8-5.72 5.4-5.72 3.92 0 4.88 3.48 4.84 5.72z"/></g></g></svg>