<?xml version="1.0" encoding="UTF-8" standalone="no"?>
<svg
   xmlns:dc="http://purl.org/dc/elements/1.1/"
   xmlns:cc="http://creativecommons.org/ns#"
   xmlns:rdf="http://www.w3.org/1999/02/22-rdf-syntax-ns#"
   xmlns:svg="http://www.w3.org/2000/svg"
   xmlns="http://www.w3.org/2000/svg"
   xmlns:xlink="http://www.w3.org/1999/xlink"
   version="1.1"
   id="svg2"
   viewBox="0 0 1841.4338 1004.4843"
   height="283.48779mm"
   width="519.69354mm">
  <defs
     id="defs4">
    <linearGradient
       id="linearGradient4293">
      <stop
         id="stop4295"
         offset="0"
         style="stop-color:#008663;stop-opacity:1" />
      <stop
         id="stop4297"
         offset="1"
         style="stop-color:#92c83e;stop-opacity:1" />
    </linearGradient>
    <linearGradient
       gradientUnits="userSpaceOnUse"
       y2="338.41989"
       x2="-307.65475"
       y1="442.70557"
       x1="-329.80701"
       id="linearGradient4299"
       xlink:href="#linearGradient4293" />
  </defs>
  <metadata
     id="metadata7">
    <rdf:RDF>
      <cc:Work
         rdf:about="">
        <dc:format>image/svg+xml</dc:format>
        <dc:type
           rdf:resource="http://purl.org/dc/dcmitype/StillImage" />
        <dc:title></dc:title>
      </cc:Work>
    </rdf:RDF>
  </metadata>
  <g
     transform="translate(1265.0035,109.96218)"
     id="layer1">
    <path
       id="path4205"
       d="M 88.360788,893.48802 C 2.4961,884.58374 -73.606775,855.10115 -139.41965,805.245 c -24.62344,-18.65333 -26.98153,-21.77091 -6.67575,-8.82576 94.936875,60.52334 205.712156,82.37741 315.582,62.25903 48.58556,-8.8965 97.90172,-27.12347 140.625,-51.97413 121.99481,-70.96021 201.50306,-195.26513 215.25188,-336.52943 1.78771,-18.36783 2.0264,-57.81344 0.45393,-75 -6.01762,-65.76833 -25.00509,-126.74044 -56.80443,-182.40932 -8.38697,-14.68242 -25.63988,-39.99134 -36.96704,-54.2283 -5.70778,-7.17412 -10.16484,-13.25686 -9.9045,-13.51718 0.9435,-0.94356 22.23666,15.19863 38.90766,29.49563 20.7735,17.81529 55.34147,54.11751 64.19034,67.41063 6.16294,9.25811 19.36332,39.67942 27.64407,63.70751 11.49618,33.35864 19.81734,74.56394 22.62393,112.0314 2.25554,30.1102 0.27563,72.55826 -4.83253,103.60338 -23.33015,141.79132 -114.3345,264.38468 -243.21956,327.64491 -46.68497,22.91428 -93.68484,36.73125 -148.59375,43.68337 -16.32862,2.06747 -73.70953,2.6325 -90.500812,0.89128 z"
       style="fill:#038663" />
    <path
       id="path4203"
       d="m 363.04191,672.61252 c -1.70878,-2.76491 0.92157,-15.49562 3.84263,-18.59812 1.06219,-1.12815 1.57828,-1.09461 3.60656,0.23437 3.29963,2.162 4.50047,1.96239 7.58925,-1.26158 1.482,-1.54687 3.50513,-2.8125 4.49578,-2.8125 1.48584,0 1.69069,0.44031 1.17,2.515 -1.84322,7.34417 -13.35412,20.9225 -17.73684,20.9225 -1.29225,0 -2.62753,-0.44985 -2.96738,-0.99967 z"
       style="fill:#038663" />
    <path
       id="path4201"
       d="m 377.6116,638.38003 c -3.14428,-1.3478 -7.05066,-2.22146 -10.01119,-2.23903 -2.97581,-0.0176 -5.38547,-0.55937 -6.22575,-1.39964 -0.75394,-0.75397 -1.9065,-4.97131 -2.56115,-9.37187 -0.96685,-6.49885 -0.96366,-8.94622 0.0178,-13.03549 1.82353,-7.60113 0.82275,-8.32328 -3.18,-2.29471 -3.47831,5.23878 -5.51259,6.89881 -7.18631,5.86438 -1.7461,-1.07912 -0.75478,-4.91202 2.42831,-9.38908 4.74094,-6.66823 4.12078,-11.33106 -0.99272,-7.46345 -2.26331,1.71193 -5.48775,1.82311 -6.80606,0.23466 -0.54835,-0.66077 -1.62394,-4.20827 -2.39025,-7.88333 -1.69388,-8.12364 -3.34257,-11.46995 -7.28635,-14.7884 -2.81353,-2.36743 -3.41643,-2.4949 -9.17428,-1.93954 -5.07328,0.48932 -7.55944,0.17173 -14.0624,-1.79646 -8.67272,-2.62486 -12.26044,-2.93636 -15.36516,-1.3341 -1.12631,0.58122 -5.65509,4.55989 -10.06397,8.84148 -4.40897,4.28159 -9.18009,8.07682 -10.60266,8.43386 -1.42256,0.35704 -4.56524,0.38543 -6.98381,0.0631 -14.07975,-1.87652 -13.95234,-1.88162 -21.97509,0.881 -12.64238,4.3534 -23.35641,3.395 -24.76453,-2.21527 -0.3151,-1.25547 -0.0309,-5.15323 0.63075,-8.66169 0.72806,-3.85866 0.99572,-9.46358 0.67753,-14.18601 -0.513,-7.6118 -1.30809,-10.75384 -8.61788,-34.05698 -6.66853,-21.2587 -5.16571,-27.75252 10.22419,-44.17765 13.28297,-14.17653 17.48485,-16.31898 37.30978,-19.02351 13.68553,-1.86699 26.82394,-10.74606 30.23269,-20.43159 4.09884,-11.64631 6.79266,-14.10087 20.47669,-18.65805 7.31972,-2.43771 9.56259,-4.00643 13.09293,-9.15769 2.62407,-3.82895 5.82722,-3.25589 10.3966,1.86001 7.44037,8.33034 10.86019,7.44096 15.51234,-4.03429 7.1611,-17.66387 6.17194,-16.84531 17.89678,-14.81102 11.38275,1.97494 12.84357,2.63007 18.09216,8.11399 3.657,3.82103 4.90959,4.59515 6.5625,4.05571 5.616,-1.83288 9.32887,0.0979 8.8875,4.62174 -0.23419,2.39997 -1.27744,3.53074 -6.12816,6.64235 -4.61268,2.95897 -5.84868,4.24778 -5.85937,6.10977 -0.009,1.37257 3.12459,7.22524 7.48762,13.98998 8.90016,13.79922 9.83278,14.9145 13.91578,16.6418 2.73,1.15494 3.41166,1.14567 5.2695,-0.0716 1.73841,-1.13907 2.4391,-3.10279 3.78085,-10.59655 2.41491,-13.48982 10.57565,-35.91713 13.06884,-35.91713 0.84375,0 1.34353,3.23102 1.77647,11.48437 0.69441,13.23675 1.79213,18.04329 4.87088,21.32813 3.72768,3.97711 4.10184,6.3978 3.52097,22.78208 -0.54722,15.43312 -0.5416,15.49155 1.88803,19.63743 2.86415,4.88719 6.28209,22.96307 6.28209,33.22256 0,3.59014 0.67303,10.44561 1.49559,15.23438 0.82266,4.78877 1.29,9.60921 1.03866,10.71208 -0.25134,1.10287 -1.34006,6.13455 -2.41922,11.18152 -2.34019,10.94354 -2.72269,11.72949 -9.20569,18.9142 -2.77443,3.07478 -6.82106,9.15105 -8.9925,13.50282 -2.95762,5.92727 -5.11997,8.87594 -8.61918,11.75325 -2.56904,2.11252 -6.68297,5.95031 -9.14204,8.52843 -6.5565,6.87399 -6.51112,6.82907 -10.3275,10.22139 -2.61103,2.32094 -3.51562,3.86075 -3.51562,5.98451 0,5.30641 -0.61913,5.82535 -6.94941,5.82535 -4.72659,0 -6.40425,0.43748 -8.98809,2.34375 -1.74722,1.28906 -3.20025,2.29662 -3.22903,2.23903 -0.0291,-0.0576 -2.37253,-1.09932 -5.20847,-2.31495 z"
       style="fill:#038663" />
    <path
       id="path4197"
       d="m 470.27663,427.18806 c -2.35087,-2.62683 -6.77512,-9.95774 -10.46991,-17.34851 -3.54253,-7.08623 -7.24209,-13.25072 -8.28815,-13.8106 -2.60991,-1.39674 -6.17869,0.2166 -10.683,4.82941 -6.45638,6.61192 -10.70925,4.34047 -14.94506,-7.98213 l -1.94916,-5.67027 -6.48516,-0.28166 c -3.56681,-0.15492 -7.03012,-0.73391 -7.69612,-1.28666 -2.90672,-2.41239 0.51928,-14.5158 5.4825,-19.36821 2.03784,-1.99241 2.69241,-3.33367 2.27241,-4.65684 -1.08507,-3.41863 -15.43622,-8.35239 -26.9386,-9.26117 -3.9554,-0.3125 -7.67578,-0.86748 -8.26772,-1.23329 -0.59184,-0.36582 -2.12484,-4.79511 -3.40669,-9.84289 -2.49253,-9.81608 -4.71131,-14.81465 -10.66424,-24.02505 -2.99326,-4.63111 -3.75038,-6.67401 -3.74766,-10.11145 0.009,-5.93223 2.78794,-10.40153 6.47719,-10.40153 4.74722,0 6.66243,3.78534 13.1339,25.9582 1.81097,6.20477 3.8205,9.6668 5.61103,9.6668 0.39422,0 2.63588,-1.49522 4.9815,-3.32271 4.88138,-3.80301 10.03407,-5.03402 13.44047,-3.21099 1.26225,0.67555 4.19841,4.28202 6.52463,8.01439 5.58122,8.95461 8.91159,11.70699 21.40528,17.6902 5.75522,2.75617 12.33759,6.67385 14.62744,8.70594 4.01737,3.56513 4.18518,3.93177 4.78284,10.45225 0.52331,5.70928 1.04006,7.20005 3.3315,9.61035 4.20084,4.41901 10.29581,7.67295 13.06856,6.97703 2.67019,-0.67018 5.60306,-4.91879 7.05253,-10.21655 0.834,-3.04851 0.69282,-4.06771 -0.94903,-6.85047 -2.00072,-3.39106 -2.5529,-6.91194 -1.08403,-6.91194 1.82963,0 9.49397,8.91232 10.95553,12.73934 2.07141,5.42379 1.3456,7.57392 -4.6695,13.8342 -4.35103,4.5284 -5.58853,5.30146 -8.48615,5.30146 -1.86582,0 -4.90688,-0.63281 -6.75797,-1.40625 -4.758,-1.988 -6.88669,-1.81775 -6.88669,0.5508 0,2.4138 5.96916,13.23943 9.54703,17.31435 1.45228,1.65406 2.64047,3.84992 2.64047,4.8797 0,1.02978 1.09294,4.25971 2.42887,7.17764 1.94672,4.25219 2.20304,5.57734 1.29141,6.67579 -1.69434,2.04157 -2.24137,1.78127 -6.68025,-3.17868 z"
       style="fill:#038663" />
    <path
       id="path4193"
       d="m 305.74163,385.2749 c -0.88706,-2.31162 0.6795,-4.27355 5.55722,-6.9599 2.35594,-1.29747 5.35753,-3.13576 6.67022,-4.08508 3.49425,-2.52706 19.107,-2.18438 24.36131,0.53471 1.54285,0.79843 1.58616,1.06938 0.36628,2.28933 -2.43422,2.43416 -8.172,3.22701 -14.55984,2.01187 -6.38447,-1.21448 -6.87441,-1.0647 -17.79291,5.43942 -3.61256,2.152 -4.04419,2.22418 -4.60228,0.76965 z"
       style="fill:#038663" />
    <path
       id="path4191"
       d="m 273.77307,368.61077 c -4.76128,-1.72676 -9.47569,-5.97755 -10.33538,-9.31885 -0.66656,-2.59081 -1.23965,-3.06024 -4.00509,-3.28047 -7.76522,-0.6184 -37.37663,-5.27811 -52.11731,-8.20126 -23.86819,-4.73322 -44.01835,-11.73478 -65.29603,-22.68843 -7.32647,-3.77162 -8.67891,-4.88815 -12.09788,-9.98732 -2.11715,-3.15754 -7.51284,-9.32692 -11.99044,-13.70973 -10.05412,-9.84119 -14.13262,-14.91659 -17.32771,-21.56278 -4.125005,-8.58078 -5.251411,-10.37746 -13.283349,-21.18687 -4.252687,-5.72324 -8.810343,-11.1124 -10.128187,-11.9759 -1.317844,-0.86349 -3.531469,-3.35272 -4.918969,-5.5316 -4.706906,-7.39107 -6.738,-9.00187 -12.868406,-10.20583 -3.910688,-0.76801 -6.481407,-1.90046 -8.192531,-3.60891 -2.551219,-2.54737 -5.342438,-9.81089 -4.206469,-10.94681 0.347343,-0.34739 3.262593,0.28304 6.478312,1.40095 3.215719,1.11791 8.799844,2.69572 12.409219,3.50625 8.009625,1.79865 11.869781,4.22839 21.5625,13.57222 9.911812,9.55508 15.4965,13.65993 19.6425,14.43773 4.03069,0.75617 7.07625,-0.0192 7.07625,-1.80163 0,-1.4182 -9.21684,-10.93999 -13.96678,-14.42887 l -3.047345,-2.23831 0.283125,-8.07419 c 0.304125,-8.67265 -0.193031,-10.41795 -2.96775,-10.41795 -1.24275,0 -2.056688,-1.01798 -2.712188,-3.39214 -1.326093,-4.8024 -3.556781,-6.92036 -7.288781,-6.92036 -2.57775,0 -3.344156,-0.47453 -4.164375,-2.57813 -1.199344,-3.07633 -0.477187,-12.77508 1.536657,-20.63572 1.155375,-4.50975 1.263093,-7.71932 0.571218,-17.00706 -0.810093,-10.87365 -1.067718,-11.89257 -5.133,-20.30116 -2.353968,-4.86912 -4.785656,-8.85293 -5.40375,-8.85293 -0.618093,0 -2.42925,0.97403 -4.024781,2.16452 -4.727719,3.52746 -9.674531,6.32996 -12.710344,7.2006 -4.582031,1.31411 -5.659406,-0.58245 -5.659406,-9.96247 0,-10.93593 -0.97875,-12.53883 -9.367219,-15.34015 -2.951906,-0.98577 -4.592156,-2.20468 -5.485968,-4.07654 -1.968188,-4.12223 -0.381094,-5.01972 6.186281,-3.49817 12.0885,2.80073 16.530094,1.9677 19.432312,-3.64461 2.125594,-4.11041 1.784906,-6.688758 -2.324719,-17.594283 -2.060718,-5.468541 -3.553218,-10.136391 -3.316593,-10.372997 0.236625,-0.236606 5.403187,1.715897 11.481187,4.3389 16.563281,7.147959 28.973438,11.4102 33.222469,11.4102 3.06844,0 4.40906,-0.611784 6.98475,-3.1875 3.88828,-3.888281 4.19625,-8.072212 1.17516,-15.966731 -1.10682,-2.892225 -1.7566,-5.514375 -1.44394,-5.827013 0.31265,-0.312637 4.48772,1.127681 9.27797,3.2007 10.32215,4.466991 23.8874,9.396207 26.52206,9.63735 4.30753,0.394247 6.22369,-0.186853 9.10481,-2.761153 2.62322,-2.343806 3.06291,-3.382144 3.20213,-7.562297 0.0891,-2.664993 0.37265,-5.056715 0.63084,-5.314931 0.25828,-0.258216 2.69756,0.659531 5.42063,2.039437 10.46521,5.303101 21.72525,9.081835 25.53853,8.570372 3.73743,-0.5013 8.13431,-3.738965 8.13431,-5.989828 0,-2.74709 3.04772,-2.063868 13.72734,3.077335 14.55788,7.008225 17.84597,7.190962 23.08866,1.283184 l 3.65044,-4.113572 2.9699,1.712503 c 13.06191,7.531772 17.04403,9.177141 20.78241,8.587135 3.73294,-0.589153 3.74147,-0.583519 1.875,1.241297 -1.58522,1.549856 -10.91634,7.13069 -31.18781,18.653042 -6.14288,3.49161 -12.69235,4.87674 -25.99969,5.49856 -14.29275,0.66787 -14.80463,0.97311 -13.94175,8.31443 1.31887,11.22217 -7.96856,17.7827 -14.55488,10.2813 -3.61715,-4.11965 -3.636,-5.70462 -0.12318,-10.34724 3.27628,-4.3301 3.41297,-5.21596 1.12415,-7.28733 -5.44425,-4.92696 -24.43537,1.74603 -27.15262,9.54073 -1.52925,4.38688 1.29497,9.12532 10.35394,17.37182 9.47512,8.62528 12.6704,14.51292 13.54631,24.96033 0.828,9.87648 -0.8716,13.3995 -10.34335,21.4409 -9.38578,7.96837 -17.11837,13.25967 -19.37746,13.25967 -2.36841,0 -10.34663,-9.02575 -17.11191,-19.35856 -3.15009,-4.81131 -6.53128,-9.00294 -7.51369,-9.31475 -5.08284,-1.61325 -25.99931,13.96691 -25.99931,19.36629 0,3.18532 4.120219,6.94646 14.75728,13.47113 10.35394,6.35101 13.47394,10.01449 14.10281,16.55945 0.35241,3.66755 -0.11822,6.16119 -2.13122,11.29195 -3.15468,8.04079 -2.70037,9.31519 5.0895,14.2779 2.96738,1.89048 6.32016,4.42172 7.4506,5.62497 2.88834,3.07447 3.47081,7.97915 1.54612,13.01888 -2.90334,7.60222 -2.2905,8.64735 10.06603,17.1668 12.8971,8.89219 15.68138,11.33183 15.68138,13.74047 0,0.97225 -2.08866,3.97615 -4.64147,6.67534 -3.51272,3.7142 -5.56772,7.17554 -8.45053,14.23363 -2.09503,5.1293 -3.60563,9.85654 -3.35681,10.505 0.30665,0.79913 2.67412,1.179 7.34793,1.179 4.63116,0 9.4516,0.76509 14.67966,2.32991 4.98731,1.49278 12.20466,2.67888 20.08706,3.30115 18.16941,1.43433 32.49525,2.87223 36.20916,3.63434 3.15122,0.64664 3.28125,0.83689 3.28125,4.80107 0,3.83382 0.2655,4.27764 3.72825,6.23277 2.05059,1.15775 7.74591,3.49765 12.65625,5.19976 l 8.928,3.09475 40.3125,0.0805 c 30.28209,0.0605 41.01225,0.37609 43.125,1.26842 l 2.8125,1.18792 -2.34375,0.95783 c -1.3215,0.54006 -12.97538,1.07782 -26.71875,1.23292 -13.40625,0.15129 -24.69141,0.30963 -25.07813,0.35187 -1.26328,0.13795 -0.74081,2.78213 1.16841,5.91349 2.26003,3.70683 2.32744,4.83037 0.40528,6.75257 -1.71159,1.71161 -4.32215,1.77881 -8.61534,0.22179 z"
       style="fill:#038663" />
    <path
       id="path4189"
       d="m 279.27076,343.81178 -3.73228,-3.55042 0.54384,-7.19065 c 0.53597,-7.08617 0.50784,-7.20705 -1.93219,-8.31882 -3.07444,-1.40082 -3.19537,-4.25347 -0.69412,-16.37308 2.07778,-10.06724 3.53278,-13.16425 8.04656,-17.12744 3.95719,-3.47446 3.15,-3.29359 15.01528,-3.36443 8.34291,-0.0498 9.97331,-0.34977 14.80978,-2.72466 3.55022,-1.74331 6.20691,-2.47489 7.66153,-2.1098 4.28072,1.07439 5.34882,10.66807 1.65403,14.8566 -1.91981,2.17636 -2.13628,2.14414 -10.41356,-1.55028 -8.84625,-3.94834 -13.31165,-4.6761 -19.33678,-3.15148 -3.72112,0.9416 -4.74975,1.62504 -4.98966,3.31504 -0.44325,3.12365 5.39185,5.44801 10.65394,4.24388 4.67344,-1.06946 6.05447,-0.67354 6.05447,1.73572 0,3.08922 -1.74534,5.38099 -5.59275,7.34379 -6.25303,3.19006 -5.9355,4.77977 1.79531,8.9874 6.44288,3.50662 7.93903,6.58758 7.1776,14.7802 -0.33929,3.65055 -1.13316,6.96536 -1.7641,7.36626 -3.72431,2.36613 -7.35468,-0.63454 -9.46153,-7.82049 -1.05909,-3.61213 -2.38303,-5.73709 -4.73119,-7.59379 -5.84062,-4.61803 -6.17175,-3.70674 -3.69375,10.16604 0.84807,4.74832 1.28325,9.30774 0.96685,10.13207 -0.95803,2.49679 -4.09856,1.69512 -8.03728,-2.05166 z"
       style="fill:#038663" />
    <path
       id="path4185"
       d="m 229.36979,315.76823 c -5.53182,-5.27647 -5.64047,-5.32834 -8.60222,-4.10706 -4.1086,1.69414 -13.59778,3.78278 -17.29388,3.8065 -3.9015,0.025 -10.54959,-5.66074 -10.54959,-9.02254 0,-1.24376 -1.32516,-4.88608 -2.94478,-8.09403 -1.61963,-3.20795 -3.29006,-7.03616 -3.71222,-8.50713 -1.03266,-3.59906 0.54412,-15.5207 2.28291,-17.25945 0.91368,-0.9137 3.46875,-1.43439 7.416,-1.51127 5.29453,-0.10312 6.41653,-0.46385 9.28884,-2.9863 1.79672,-1.57796 5.76909,-3.85563 8.82741,-5.06149 7.88484,-3.10891 12.68803,-6.28618 15.47006,-10.23341 1.8584,-2.63676 3.64828,-3.80908 7.82606,-5.12603 3.90244,-1.23014 6.96113,-3.12733 10.94175,-6.78687 3.03881,-2.79369 6.16969,-5.07944 6.95738,-5.07944 1.52456,0 14.9625,12.4321 16.53178,15.2943 1.29928,2.36963 -0.32138,4.03203 -4.60603,4.72476 -4.58513,0.74131 -10.35404,4.73809 -11.09391,7.68607 -0.50063,1.99433 0.53278,3.50725 6.98822,10.23142 10.03819,10.45601 11.13665,14.56345 3.89475,14.56345 -7.36941,0 -10.71506,2.78622 -8.44322,7.03125 1.61681,3.02107 0.60806,5.08152 -2.82403,5.76792 -4.26385,0.85278 -5.50856,3.27192 -4.93547,9.59236 0.56484,6.22869 -0.50831,7.88988 -6.10022,9.44291 -7.19194,1.99739 -9.26887,1.40547 -15.31959,-4.36592 z"
       style="fill:#038663" />
    <path
       id="path4181"
       d="m 314.68276,251.79837 c -2.61132,-2.70918 -4.93379,-6.21029 -5.60447,-8.44863 -1.97203,-6.5823 -2.92294,-6.49141 -8.77125,0.83834 -2.90138,3.6364 -5.66438,6.61163 -6.13988,6.61163 -1.52484,0 -2.80556,-3.50922 -2.80556,-7.68737 0,-6.23663 2.55516,-10.17751 8.49694,-13.10511 6.6224,-3.26294 6.73818,-5.07438 0.30272,-4.73871 -5.92313,0.30895 -6.74072,-0.55916 -7.51641,-7.98051 -0.46284,-4.42764 -0.25828,-6.14003 0.93741,-7.84702 2.21756,-3.16609 1.88653,-5.76076 -1.10007,-8.62213 -3.13359,-3.00217 -4.9439,-3.18079 -6.528,-0.64415 -2.91871,4.67361 -7.71759,0.004 -7.71759,-7.50956 0,-3.35487 -0.627,-4.51568 -4.85287,-8.98383 -5.21138,-5.51035 -5.29454,-5.83984 -3.99844,-15.85036 0.74747,-5.77257 2.56247,-7.96875 6.58593,-7.96875 6.9061,0 11.82666,11.51038 8.66185,20.26235 -1.42538,3.94175 -0.13378,5.61379 5.00719,6.48236 2.69437,0.4552 5.25243,1.96053 8.81634,5.18802 2.76141,2.50072 7.16306,5.46837 9.7815,6.59481 5.1975,2.2359 6.01275,3.29408 8.11284,10.53049 0.77382,2.66653 3.09507,7.72065 5.15841,11.2314 3.73097,6.34844 8.28975,18.15013 8.28975,21.46048 0,0.9912 -1.01325,2.11924 -2.36541,2.63331 -2.01225,0.76506 -2.2665,1.28643 -1.70353,3.49242 1.39716,5.4743 -0.15122,8.68686 -4.18697,8.68686 -1.6499,0 -3.79659,-1.44762 -6.86043,-4.62634 z"
       style="fill:#038663" />
    <path
       id="path4171"
       d="m 265.33501,135.33564 c -1.58269,-1.58272 -1.45772,-5.03325 0.31771,-8.77485 2.57982,-5.43645 5.18091,-5.07286 6.85135,0.95767 0.89156,3.21839 0.79331,4.08226 -0.69281,6.09375 -1.97804,2.67743 -4.77732,3.42235 -6.47625,1.72343 z"
       style="fill:#038663" />
    <path
       id="path4199"
       d="m -335.24022,553.87661 c -1.26953,-4.26548 -2.70005,-42.30383 -2.7071,-71.98315 -0.0113,-47.86428 2.51021,-80.33252 9.28311,-119.53125 4.83334,-27.97336 4.76012,-27.0118 2.09556,-27.5066 -21.14755,-3.92698 -32.57222,-8.50457 -45.351,-18.17104 -8.92306,-6.74983 -21.25716,-19.35394 -29.30247,-29.94397 -8.72666,-11.48686 -21.0613,-30.71547 -19.94241,-31.08843 1.93825,-0.64608 31.69518,6.66603 45.28368,11.12748 7.61821,2.50125 17.93591,6.48264 22.92822,8.84752 11.1008,5.25849 25.52567,14.7808 31.15004,20.5631 2.29875,2.36332 4.84575,4.29694 5.66007,4.29694 2.19159,0 8.10553,-18.30199 6.52809,-20.20267 -0.62072,-0.7479 -1.60425,-1.36755 -2.18559,-1.37699 -0.58144,-0.009 -4.55232,-1.45689 -8.82422,-3.21657 -22.5033,-9.26955 -40.97281,-28.41499 -55.45253,-57.4819 -8.30964,-16.68099 -17.9637,-43.34797 -15.69217,-43.34584 1.93361,0.002 34.50932,17.7622 44.22429,24.11125 19.71857,12.88673 36.86672,28.63192 45.46678,41.7471 2.28235,3.48046 4.71,6.32812 5.39494,6.32812 0.68484,0 3.42947,-4.4925 6.09909,-9.98333 l 4.85381,-9.98334 -6.06356,-5.18659 c -32.71415,-27.9827 -50.26138,-63.29538 -52.99923,-106.65773 -0.66016,-10.45546 0.0829,-22.87651 1.36843,-22.87651 1.60333,0 21.92274,17.13653 30.56977,25.78125 19.97119,19.96593 34.02825,43.82304 40.32459,68.4375 1.78454,6.97611 3.10782,9.25518 4.74329,8.16922 0.55425,-0.36807 2.8439,-3.41141 5.0879,-6.76297 2.2441,-3.35156 6.32569,-9.14827 9.07032,-12.88156 2.74453,-3.7333 4.99012,-7.34144 4.99012,-8.0181 0,-0.67666 -4.14788,-5.46018 -9.2175,-10.63003 -27.53466,-28.07887 -40.86684,-64.727532 -39.1755,-107.68906 0.65334,-16.595662 1.16878,-20.15625 2.91797,-20.15625 0.64969,0 6.4634,5.451806 12.91922,12.115125 23.49393,24.249141 38.31947,51.895378 47.54803,88.666125 2.24812,8.95779 3.99619,14.15615 4.81547,14.32048 0.70734,0.14189 4.43147,-2.90851 8.27578,-6.77868 l 6.98972,-7.03666 -2.39344,-2.59632 c -9.16369,-9.94043 -21.65841,-39.683801 -25.70512,-61.19007 -2.53397,-13.466653 -2.37057,-36.674166 0.35456,-50.369775 3.18469,-16.005225 11.14153,-37.680375 13.33472,-36.324919 1.52175,0.94051 11.03765,17.6655378 16.39237,28.8109315 5.80172,12.0759185 10.84388,26.8032185 13.28728,38.8093785 1.38328,6.797437 1.68769,12.94289 1.68769,34.074384 0,24.75636 -0.0834,25.96301 -2.10937,30.35355 -1.16016,2.51476 -2.10938,4.7296 -2.10938,4.92188 0,1.38942 3.40153,-0.77478 12.93497,-8.2298 6.03422,-4.71866 12.33309,-9.464758 13.99753,-10.546877 1.66453,-1.082128 3.22434,-2.471503 3.46631,-3.087497 0.24207,-0.615993 -0.6089,-3.780056 -1.89103,-7.03125 -2.65828,-6.741281 -7.31419,-23.82075 -8.76722,-32.161256 -5.54606,-31.8345 -0.78637,-66.408778 12.9706,-94.21875 4.97934,-10.065976 10.91887,-19.6875 12.15328,-19.6875 1.22915,0 7.36744,16.641728 10.88025,29.497976 7.929,29.01821463 8.23144,57.680908 0.984,93.265502 -2.65172,13.020197 -2.75663,14.111522 -1.35685,14.111522 1.33482,0 21.20391,-11.156353 22.2976,-12.519966 0.5355,-0.667565 0.19181,-4.62044 -0.90844,-10.448784 -2.40862,-12.759572 -3.30291,-38.445609 -1.80937,-51.9702281 3.49237,-31.6260179 14.67581,-58.9786819 33.180839,-81.1547229 3.011906,-3.609402 5.82375,-6.691241 6.248531,-6.848531 1.029938,-0.381324 1.477688,1.270338 3.636281,13.410982 6.958688,39.137903 4.276125,68.0499 -10.133812,109.21875 -2.616938,7.476563 -4.758188,13.699219 -4.758281,13.828125 -9.38e-4,1.111641 5.065687,-0.5619 14.534062,-4.80075 l 11.247,-5.035125 -0.304969,-5.51175 c -0.459937,-8.3124 1.546032,-27.5779031 4.171031,-40.0583625 7.710469,-36.6591155 27.614063,-71.6342935 54.089813,-95.0480075 4.218,-3.73017 8.2620937,-6.78876 8.986875,-6.79687 1.0971563,-0.0123 1.2181875,2.1419 0.7231875,12.875865 -0.9271875,20.106379 -4.6707187,38.732533 -11.5153125,57.294616 -6.443531,17.474562 -25.085062,52.872762 -33.240094,63.119159 -2.654156,3.334837 -3.468468,5.4456 -2.10075,5.4456 1.093125,0 24.141469,-7.768622 24.871688,-8.383219 0.374906,-0.315459 1.55925,-4.991878 2.632031,-10.392047 9.395531,-47.296789 40.310156,-92.773007 81.034406,-119.203724 10.110844,-6.56209 11.252531,-6.77561 10.388532,-1.94289 -2.937657,16.431461 -10.230375,37.092587 -18.613594,52.73438 C 41.95285,-40.359688 27.593444,-19.46759 14.18935,-2.9444994 0.7681,13.599694 -0.93224375,16.005863 0.081475,17.01961 c 0.5675625,0.567516 21.887531,-3.176897 28.015031,-4.920272 0.969,-0.275681 2.370375,-2.876428 3.628594,-6.7337624 1.127438,-3.4565437 4.494844,-11.4388781 7.483031,-17.7385406 17.98875,-37.923134 49.834219,-70.252203 86.684719,-88.000935 11.18222,-5.3858 15.46875,-6.82746 15.46875,-5.20243 0,1.89411 -5.57072,15.049054 -10.66556,25.186299 -12.48319,24.837634 -32.496752,49.266678 -63.836909,77.9208254 -5.893593,5.3884406 -9.0105,8.8657687 -8.4375,9.41295 0.557438,0.532275 5.913938,0.4824656 13.855219,-0.1288219 L 85.223444,5.8183506 87.180381,1.9823725 C 104.03251,-31.050603 134.52301,-61.190909 168.13876,-78.046204 c 12.62934,-6.332507 37.80843,-14.693509 39.414,-13.087895 0.65259,0.652568 -6.25782,11.819788 -12.6061,20.371309 -7.04662,9.49242 -27.3599,29.666008 -39.99131,39.716302 -5.67187,4.512891 -18.32812,13.911829 -28.125,20.886529 -9.79687,6.9746909 -17.8125,13.1728127 -17.8125,13.7735909 0,1.1180531 22.18275,2.9626125 24.63244,2.04825 0.74278,-0.277275 0.984,-1.286025 0.63759,-2.6664657 -0.43856,-1.7474343 0.6406,-3.72791245 5.06588,-9.2966625 20.77031,-26.1372997 49.72706,-46.3787587 81.46068,-56.9430157 12.72291,-4.235526 27.14729,-7.339138 37.99838,-8.175917 l 7.58072,-0.584583 -2.27569,3.199111 c -3.60628,5.069628 -17.53247,18.712362 -25.692,25.169111 -15.70012,12.423633 -30.35344,21.354912 -62.37675,38.0189469 -11.60156,6.03713435 -21.26953,11.1460687 -21.48441,11.3532 -0.21478,0.2071312 -0.11306,0.6540843 0.22604,0.9932343 0.80409,0.8041219 29.94862,4.9471028 30.86775,4.3879498 0.38671,-0.235256 0.70312,-1.1954904 0.70312,-2.1338529 0,-0.9383625 2.85422,-4.3986375 6.34266,-7.6894875 24.47878,-23.0919846 54.35915,-37.1024426 88.62722,-41.5559126 12.16143,-1.580492 38.66296,-1.954012 39.52631,-0.557094 1.3274,2.147761 -20.04891,17.163103 -36.05869,25.328691 -13.99912,7.140075 -20.60634,9.7572 -51.09375,20.2382062 -19.32384,6.6431908 -25.28166,9.0539528 -25.18228,10.1896778 0.16528,1.88881 -0.40116,1.872263 -13.06481,-0.381553 C 157.60023,7.8177006 112.07954,7.1859381 62.601381,12.711601 -39.121025,24.07186 -128.76121,66.22861 -194.77893,133.7547 c -30.40388,31.09856 -53.00409,63.01608 -73.06322,103.18463 -26.45887,52.98405 -41.58525,109.94601 -47.99484,180.73538 -2.38547,26.34683 -2.32407,83.7029 0.12009,112.03125 0.97875,11.34375 1.81163,21.67969 1.85091,22.96875 l 0.0713,2.34375 -10.47413,0.2644 c -9.36958,0.23652 -10.52665,0.0882 -10.97145,-1.40625 z"
       style="fill:url(#linearGradient4299);fill-opacity:1" />
    <path
       id="path4195"
       d="m -206.91965,381.63656 c -21.51984,-5.58387 -28.67147,-7.85387 -39.93309,-12.67518 -15.20747,-6.51062 -28.18144,-16.93617 -36.49416,-29.32581 l -3.93656,-5.86711 0.46228,-7.96875 c 0.44672,-7.70033 2.49759,-15.02665 4.95356,-17.69497 2.40028,-2.6079 22.65103,5.19738 35.29763,13.6048 9.0614,6.02401 19.68468,16.88883 39.65034,40.55175 18.16256,21.52591 19.67391,23.41671 19.11544,23.91461 -0.201,0.1792 -8.80294,-1.8635 -19.11544,-4.53934 z"
       style="fill:#92c83e;fill-opacity:1" />
    <path
       id="path4187"
       d="m -177.85715,335.56513 c -24.59044,-4.5781 -46.46494,-12.76951 -60.33919,-22.59532 -8.14912,-5.77123 -17.78681,-14.99963 -24.74972,-23.69866 l -5.60081,-6.99731 0.53128,-5.1472 c 0.60413,-5.85316 6.28678,-18.27774 9.03169,-19.74677 1.26328,-0.67609 4.19269,-0.31462 10.57922,1.30545 34.02684,8.63163 52.50506,24.51361 78.39262,67.37831 5.79141,9.58949 6.8355,12.11943 4.88925,11.84704 -0.30075,-0.0421 -6.03121,-1.09758 -12.73434,-2.34554 z"
       style="fill:#92c83e;fill-opacity:1" />
    <path
       id="path4183"
       d="m -149.2634,291.92926 c -24.06619,-6.51923 -32.67966,-9.52356 -44.49966,-15.52118 -18.654,-9.46537 -34.05159,-24.40985 -44.15878,-42.8593 -3.47972,-6.35192 -3.52481,-6.56237 -2.47612,-11.56189 2.43309,-11.59998 8.19272,-19.31218 14.42278,-19.31218 1.49381,0 6.28275,1.83366 10.64194,4.07479 21.0569,10.82562 42.59193,32.65108 59.43159,60.23304 4.29938,7.0419 13.17853,24.07087 13.19269,25.30154 0.0103,0.90088 -2.40085,0.77035 -6.55444,-0.35482 z"
       style="fill:#92c83e;fill-opacity:1" />
    <path
       id="path4179"
       d="m -121.60715,242.71668 c -39.98034,-11.85491 -60.61181,-22.52693 -76.73934,-39.69492 -7.39435,-7.87143 -15.60441,-19.94804 -15.60441,-22.95343 0,-4.23641 2.88,-11.51003 6.00141,-15.15659 4.69322,-5.48301 13.73709,-10.0821 18.71165,-9.51546 5.65931,0.64464 19.47422,6.8774 28.68338,12.94077 13.14647,8.6558 22.31175,19.69303 31.09519,37.44631 3.73096,7.54112 15.82087,36.5782 15.82087,37.99806 0,0.79046 -3.11644,0.37406 -7.96875,-1.06474 z"
       style="fill:#92c83e;fill-opacity:1" />
    <path
       id="path4177"
       d="m -94.41965,197.46229 c -15.36488,-5.70132 -20.67778,-8.11365 -29.81606,-13.53796 -15.91622,-9.44757 -28.14366,-20.97597 -38.23885,-36.05272 -8.7915,-13.12969 -9.16725,-15.30738 -3.76584,-21.82569 3.33478,-4.02444 13.15575,-9.46569 17.29641,-9.58307 3.76668,-0.10677 21.28453,8.17401 29.08228,13.74735 11.0565,7.90239 19.03762,18.00584 25.977935,32.88597 3.376594,7.23923 13.995375,36.08673 13.995375,38.02027 0,1.52765 -1.757531,1.08569 -14.53125,-3.65415 z"
       style="fill:#92c83e;fill-opacity:1" />
    <path
       id="path4175"
       d="M 472.2991,164.86536 C 443.52957,139.77594 389.95876,103.4105 341.95454,76.383638 c -17.154,-9.657881 -19.04372,-11.066409 -21.64069,-16.130803 -0.99159,-1.933594 -2.2485,-3.515625 -2.79309,-3.515625 -1.89854,0 -16.72322,-6.765666 -17.88075,-8.160394 -1.02535,-1.235531 -0.3781,-1.326028 5.35575,-0.748772 21.24768,2.139141 54.46603,9.210169 70.75612,15.061538 15.31556,5.501287 32.08885,13.983065 45.71363,23.116134 8.33109,5.584557 25.78453,19.530514 25.18856,20.126544 -0.23785,0.23779 -6.48291,-2.37612 -13.8781,-5.8087 -15.61443,-7.247734 -41.82009,-17.757841 -62.90296,-25.228028 -21.26766,-7.535653 -24.19388,-7.037813 -8.40957,1.430747 43.56169,23.371678 86.2035,54.762271 107.10357,78.843741 6.85021,7.893 12.61593,15.64056 12.02559,16.15936 -0.17859,0.15696 -3.91069,-2.84184 -8.2935,-6.66402 z"
       style="fill:#92c83e;fill-opacity:1" />
    <path
       id="path4173"
       d="m -52.23215,156.69819 c -23.1975,-8.44155 -43.2915,-21.78117 -57.37022,-38.08598 -6.99834,-8.10489 -16.22353,-21.569559 -16.22353,-23.679216 0,-3.408206 11.70328,-10.944112 17.064,-10.987697 2.95612,-0.024 15.191063,5.190197 23.529562,10.027707 15.003188,8.704006 24.501188,19.221476 32.410501,35.889206 3.704625,7.80688 11.370937,27.7782 11.370937,29.62198 0,0.8462 -2.759531,0.13312 -10.78125,-2.786 z"
       style="fill:#92c83e;fill-opacity:1" />
    <path
       id="path4169"
       d="M -8.9193688,125.62596 C -35.528712,115.20988 -54.272713,101.04629 -70.661806,78.971269 -78.695994,68.14966 -78.997213,67.330416 -75.9164,64.680394 c 3.1935,-2.746912 12.035906,-6.068184 16.155656,-6.068184 2.040844,0 7.520063,2.171203 15.275438,6.053034 17.567156,8.792907 26.547843,17.424235 34.320093,32.984672 C -7.4894,103.00718 1.6741,126.83896 1.6741,128.44093 c 0,1.00555 -2.59509375,0.31597 -10.5934688,-2.81497 z"
       style="fill:#92c83e;fill-opacity:1" />
    <path
       id="path4167"
       d="M 41.0491,95.748629 C 18.413444,86.269304 -4.3320875,70.321604 -24.5759,49.73656 c -7.625812,-7.754325 -7.889344,-8.162194 -6.122719,-9.476644 5.397563,-4.016128 14.996625,-4.328381 25.341469,-0.824325 25.45425,8.621991 39.617813,22.034588 50.263312,47.598385 5.114625,12.282009 5.04375,12.442134 -3.857062,8.714653 z"
       style="fill:#92c83e;fill-opacity:1" />
    <path
       id="path4165"
       d="m 341.0491,90.851616 c -3.35156,-2.317659 -14.10938,-9.21765 -23.90625,-15.333318 -9.79688,-6.115669 -20.76563,-13.323282 -24.375,-16.016916 -6.98156,-5.21026 -16.40625,-13.922822 -16.40625,-15.166603 0,-2.381053 30.44166,15.967059 47.50059,28.63005 9.63103,7.149197 26.08416,22.182384 24.21816,22.128019 -0.51563,-0.015 -3.67969,-1.923582 -7.03125,-4.241232 z"
       style="fill:#92c83e;fill-opacity:1" />
    <path
       id="path4163"
       d="M 86.490569,77.433179 C 66.19285,69.759966 57.388412,65.172666 44.905413,55.766438 35.895194,48.977007 18.347819,30.837694 18.742412,28.720801 19.1446,26.56336 27.351287,24.012929 34.01785,23.973591 c 4.70025,-0.02775 7.35525,0.715116 16.149656,4.518582 14.319375,6.1929 20.185875,9.827925 27.427969,16.995037 4.434844,4.388962 7.371375,8.454216 10.496437,14.53125 5.374125,10.450613 9.282,19.999369 8.406282,20.540569 -0.363,0.224343 -4.866375,-1.1823 -10.007625,-3.12585 z"
       style="fill:#92c83e;fill-opacity:1" />
    <path
       id="path4161"
       d="M 271.20535,59.397085 C 247.64448,45.03196 240.57826,40.240857 234.1741,34.288651 l -4.21875,-3.921019 4.21856,0.470747 c 5.29331,0.590672 22.27847,8.960662 33.94275,16.726425 10.77516,7.173787 29.23753,25.386872 25.38732,25.04444 -0.40491,-0.036 -10.43926,-5.981484 -22.29863,-13.212159 z"
       style="fill:#92c83e;fill-opacity:1" />
    <path
       id="path4159"
       d="M 127.41619,63.724163 C 112.93913,58.012538 101.28544,51.862173 92.259194,45.169604 84.807288,39.644401 66.3616,22.453491 66.3616,21.033779 c 0,-1.357669 4.009312,-2.019788 12.230438,-2.019788 7.757437,0 8.635031,0.217857 17.175656,4.2636 20.317876,9.624666 30.478596,19.215535 43.641376,41.193994 1.95403,3.262772 1.98197,3.513619 0.3884,3.487753 -0.94443,-0.01538 -6.516,-1.921162 -12.38128,-4.235175 z"
       style="fill:#92c83e;fill-opacity:1" />
    <path
       id="path4157"
       d="m 243.14448,61.811401 c -16.20994,-9.132094 -28.21913,-17.658769 -44.0625,-31.285032 -9.24066,-7.947487 -9.28819,-8.01014 -6.30863,-8.303137 10.77459,-1.059525 39.09919,14.287837 49.99838,27.091097 5.82159,6.838687 12.1814,17.735381 10.35103,17.735381 -0.37397,0 -4.86422,-2.357241 -9.97828,-5.238309 z"
       style="fill:#92c83e;fill-opacity:1" />
    <path
       id="path4155"
       d="m 206.51785,59.277188 c -12.51141,-6.482325 -13.87228,-7.315341 -23.90625,-14.633165 -7.35947,-5.367272 -27.1875,-24.099085 -27.1875,-25.68435 0,-0.564057 2.07881,-0.680785 5.39062,-0.302691 9.94144,1.134966 31.4131,13.138106 42.68204,23.860219 8.23903,7.8393 18.40425,22.707553 15.46706,22.62314 -0.65775,-0.01894 -6.25847,-2.657325 -12.44597,-5.863153 z"
       style="fill:#92c83e;fill-opacity:1" />
    <path
       id="path4153"
       d="m 172.2991,60.115997 c -11.86931,-5.163899 -19.9425,-9.551381 -30.10275,-16.3596 -11.43112,-7.659824 -30.22425,-23.065012 -30.69028,-25.157559 -0.28116,-1.26285 0.96215,-1.402959 9.375,-1.05645 9.22256,0.379856 10.09097,0.5988 17.66803,4.454831 11.12184,5.659978 18.21094,10.633932 25.37034,17.800772 9.03572,9.045169 19.36219,23.574347 16.65928,23.439385 -0.68662,-0.03431 -4.41243,-1.438903 -8.27962,-3.121379 z"
       style="fill:#92c83e;fill-opacity:1" />
    <path
       id="path4151"
       d="m 371.51785,52.870838 c -9.85744,-0.935184 -26.81578,-3.39075 -51.09375,-7.398356 -9.53906,-1.574635 -21.00497,-3.04095 -25.47975,-3.258488 -10.15163,-0.493509 -14.83275,-2.246653 -14.83275,-5.555062 0,-2.143434 0.71409,-2.577778 7.73437,-4.704581 32.23894,-9.7668 58.89985,-10.621641 86.48438,-2.772975 16.08741,4.577362 51.79284,20.454581 49.21875,21.886209 -4.39594,2.444897 -34.332,3.482391 -52.03125,1.803253 z"
       style="fill:#92c83e;fill-opacity:1" />
    <path
       id="path4143"
       d="m 245.65847,26.650547 c -3.3525,-1.062131 -5.85937,-2.394328 -5.85937,-3.113803 0,-0.691593 -0.63281,-1.782637 -1.40625,-2.424534 -0.77344,-0.641897 -1.40625,-1.521581 -1.40625,-1.954856 0,-1.329816 10.284,-7.858397 20.15625,-12.7958159 31.11506,-15.5615531 64.03509,-18.7791001 107.34375,-10.4915812 13.39406,2.5630687 13.63275,2.6456437 12.05766,4.17154685 -2.37113,2.29710935 -18.525,9.84486565 -26.99204,12.61174725 -11.8005,3.856228 -24.76753,6.185381 -49.48378,8.888353 -27.58247,3.016425 -43.63593,5.265572 -44.75372,6.27015 -1.2764,1.147153 -3.03928,0.935147 -9.65625,-1.161207 z"
       style="fill:#92c83e;fill-opacity:1" />
    <g
       id="text4203"
       style="font-style:normal;font-weight:normal;font-size:158.12652588px;line-height:0%;font-family:'Bitstream Vera Sans';letter-spacing:0px;word-spacing:0px;fill:#008663;fill-opacity:1;stroke:none;stroke-width:1px;stroke-linecap:butt;stroke-linejoin:miter;stroke-opacity:1">
      <path
         id="path4363"
         style="font-style:normal;font-variant:normal;font-weight:bold;font-stretch:normal;font-family:'Myriad Pro';-inkscape-font-specification:'Myriad Pro Bold';fill:#008663;fill-opacity:1"
         d="m -1236.2244,554.87549 24.0352,0 0,-86.33708 29.0953,0 0,-20.2402 -81.9096,0 0,20.2402 28.7791,0 0,86.33708 z" />
      <path
         id="path4365"
         style="font-style:normal;font-variant:normal;font-weight:bold;font-stretch:normal;font-family:'Myriad Pro';-inkscape-font-specification:'Myriad Pro Bold';fill:#008663;fill-opacity:1"
         d="m -1179.5929,554.87549 24.0352,0 0,-39.05725 c 0,-2.05565 0.1582,-3.79504 0.4744,-5.37631 1.5813,-7.59007 7.5901,-12.17574 16.4452,-12.17574 2.6881,0 4.5856,0.31626 6.4832,0.63251 l 0,-22.6121 c -1.7394,-0.31625 -2.8463,-0.47437 -5.0601,-0.47437 -7.5901,0 -16.9195,4.74379 -20.8727,16.1289 l -0.6325,0 -0.9488,-14.38951 -20.5564,0 c 0.4744,6.64131 0.6325,14.07326 0.6325,25.45837 l 0,51.8655 z" />
      <path
         id="path4367"
         style="font-style:normal;font-variant:normal;font-weight:bold;font-stretch:normal;font-family:'Myriad Pro';-inkscape-font-specification:'Myriad Pro Bold';fill:#008663;fill-opacity:1"
         d="m -1084.8677,556.61488 c 20.5564,0 40.6385,-12.96638 40.6385,-41.1129 0,-23.40272 -15.8126,-39.68975 -39.3735,-39.68975 -24.984,0 -41.4291,15.97077 -41.4291,40.95477 0,24.98399 17.3939,39.84788 40.006,39.84788 l 0.1581,0 z m 0.3163,-17.23579 c -10.1201,0 -15.6546,-9.96197 -15.6546,-23.08647 0,-11.54324 4.4276,-23.2446 15.8127,-23.2446 10.9107,0 15.3383,11.70136 15.3383,23.08647 0,13.91513 -5.8507,23.2446 -15.3383,23.2446 l -0.1581,0 z" />
      <path
         id="path4369"
         style="font-style:normal;font-variant:normal;font-weight:bold;font-stretch:normal;font-family:'Myriad Pro';-inkscape-font-specification:'Myriad Pro Bold';fill:#008663;fill-opacity:1"
         d="m -1029.4962,586.18454 24.0352,0 0,-38.42475 0.3162,0 c 3.4788,5.06005 10.75264,8.85509 20.0821,8.85509 17.2358,0 35.10409,-13.28263 35.10409,-41.42915 0,-24.66774 -15.18014,-39.3735 -32.09968,-39.3735 -11.22699,0 -20.08211,4.42754 -25.77461,12.49199 l -0.3163,0 -1.1069,-10.7526 -20.8727,0 c 0.3163,7.27382 0.6326,15.81265 0.6326,25.93275 l 0,82.70017 z m 24.0352,-75.1101 c 0,-1.42314 0.1581,-3.0044 0.4744,-4.26942 1.5812,-7.11569 7.59004,-12.17574 14.38948,-12.17574 10.7526,0 16.28703,9.32947 16.28703,21.66334 0,13.1245 -6.16694,21.82146 -16.60329,21.82146 -6.95756,0 -12.49202,-4.90193 -14.07322,-11.38511 -0.3163,-1.58127 -0.4744,-3.16253 -0.4744,-5.06005 l 0,-10.59448 z" />
      <path
         id="path4371"
         style="font-style:normal;font-variant:normal;font-weight:bold;font-stretch:normal;font-family:'Myriad Pro';-inkscape-font-specification:'Myriad Pro Bold';fill:#008663;fill-opacity:1"
         d="m -910.95571,554.87549 0,-77.32387 -24.03523,0 0,77.32387 24.03523,0 z m -12.01761,-86.81146 c 7.90632,0 12.80824,-5.37631 12.80824,-12.01762 -0.15812,-6.79944 -4.90192,-12.01762 -12.65012,-12.01762 -7.7482,0 -12.80825,5.21818 -12.80825,12.01762 0,6.64131 4.90193,12.01762 12.492,12.01762 l 0.15813,0 z" />
      <path
         id="path4373"
         style="font-style:normal;font-variant:normal;font-weight:bold;font-stretch:normal;font-family:'Myriad Pro';-inkscape-font-specification:'Myriad Pro Bold';fill:#008663;fill-opacity:1"
         d="m -836.56705,535.10967 c -3.63691,1.58127 -8.06445,2.53003 -13.75701,2.53003 -11.70136,0 -21.18895,-7.43195 -21.18895,-21.66334 -0.15813,-12.49199 8.06445,-21.5052 20.71457,-21.5052 6.32506,0 10.59448,1.10688 13.44076,2.37189 l 3.79503,-17.86829 c -5.06005,-1.89752 -12.01761,-3.00441 -18.34267,-3.00441 -28.77903,0 -44.27543,18.50081 -44.27543,40.95477 0,24.19336 15.97078,39.53163 40.95477,39.53163 9.17134,0 17.23579,-1.58126 21.50521,-3.63691 l -2.84628,-17.71017 z" />
      <path
         id="path4375"
         style="font-style:normal;font-variant:normal;font-weight:bold;font-stretch:normal;font-family:'Myriad Pro';-inkscape-font-specification:'Myriad Pro Bold';fill:#008663;fill-opacity:1"
         d="m -755.43581,509.17692 c 0,-18.18455 -8.06445,-33.36469 -33.83908,-33.36469 -14.07326,0 -24.66774,3.95316 -30.04404,6.95756 l 4.42754,15.33828 c 5.06005,-3.00441 13.44076,-5.69256 21.34709,-5.69256 11.85948,0 14.07326,5.85068 14.07326,9.96197 l 0,0.94876 c -27.35589,0 -45.38232,9.48759 -45.38232,29.56966 0,12.33387 9.32947,23.71898 24.98399,23.71898 9.17134,0 17.07767,-3.32066 22.13772,-9.48759 l 0.47438,0 1.42314,7.7482 21.66333,0 c -0.94876,-4.26942 -1.26501,-11.38511 -1.26501,-18.65893 l 0,-27.03964 z m -23.2446,17.55205 c 0,1.42314 -0.15813,2.84627 -0.47438,4.11129 -1.58127,4.90192 -6.64131,8.85508 -12.492,8.85508 -5.3763,0 -9.48759,-3.0044 -9.48759,-9.17134 0,-9.17134 9.80385,-12.17574 22.45397,-12.17574 l 0,8.38071 z" />
      <path
         id="path4377"
         style="font-style:normal;font-variant:normal;font-weight:bold;font-stretch:normal;font-family:'Myriad Pro';-inkscape-font-specification:'Myriad Pro Bold';fill:#008663;fill-opacity:1"
         d="m -736.40628,554.87549 24.03523,0 0,-112.42796 -24.03523,0 0,112.42796 z" />
      <path
         id="path4379"
         style="font-style:normal;font-variant:normal;font-weight:bold;font-stretch:normal;font-family:'Myriad Pro';-inkscape-font-specification:'Myriad Pro Bold';fill:#008663;fill-opacity:1"
         d="m -660.25847,554.40111 c 5.3763,0.79063 14.23138,1.58126 26.09087,1.58126 21.18896,0 34.15533,-3.47878 41.90353,-9.64571 6.64132,-5.21818 11.06886,-12.80825 11.06886,-22.6121 0,-13.75701 -9.01321,-23.08647 -21.18896,-26.249 l 0,-0.31625 c 11.85949,-4.58567 17.39392,-13.28263 17.39392,-22.6121 0,-9.80384 -5.21817,-17.07766 -12.65012,-21.03082 -7.7482,-4.58567 -16.76141,-6.00881 -31.46718,-6.00881 -12.17574,0 -24.82586,1.10688 -31.15092,2.3719 l 0,104.52163 z m 23.8771,-88.55086 c 1.89752,-0.47438 4.90192,-0.79063 10.27823,-0.79063 10.91073,0 17.07766,4.26942 17.07766,12.33387 0,7.90633 -6.64131,13.1245 -19.44956,13.1245 l -7.90633,0 0,-24.66774 z m 0,41.90353 8.22258,0 c 12.01762,0 21.66334,4.26942 21.66334,15.02202 0,11.22699 -9.64572,15.4964 -20.55645,15.4964 -4.11129,0 -6.95757,0 -9.32947,-0.47438 l 0,-30.04404 z" />
      <path
         id="path4381"
         style="font-style:normal;font-variant:normal;font-weight:bold;font-stretch:normal;font-family:'Myriad Pro';-inkscape-font-specification:'Myriad Pro Bold';fill:#008663;fill-opacity:1"
         d="m -541.58205,554.87549 0,-77.32387 -24.03523,0 0,77.32387 24.03523,0 z m -12.01762,-86.81146 c 7.90633,0 12.80825,-5.37631 12.80825,-12.01762 -0.15812,-6.79944 -4.90192,-12.01762 -12.65012,-12.01762 -7.7482,0 -12.80825,5.21818 -12.80825,12.01762 0,6.64131 4.90192,12.01762 12.492,12.01762 l 0.15812,0 z" />
      <path
         id="path4383"
         style="font-style:normal;font-variant:normal;font-weight:bold;font-stretch:normal;font-family:'Myriad Pro';-inkscape-font-specification:'Myriad Pro Bold';fill:#008663;fill-opacity:1"
         d="m -486.64296,556.61488 c 20.55645,0 40.63852,-12.96638 40.63852,-41.1129 0,-23.40272 -15.81265,-39.68975 -39.3735,-39.68975 -24.98399,0 -41.42915,15.97077 -41.42915,40.95477 0,24.98399 17.39391,39.84788 40.00601,39.84788 l 0.15812,0 z m 0.31626,-17.23579 c -10.1201,0 -15.65453,-9.96197 -15.65453,-23.08647 0,-11.54324 4.42754,-23.2446 15.81265,-23.2446 10.91073,0 15.33828,11.70136 15.33828,23.08647 0,13.91513 -5.85068,23.2446 -15.33828,23.2446 l -0.15812,0 z" />
      <path
         id="path4385"
         style="font-style:normal;font-variant:normal;font-weight:bold;font-stretch:normal;font-family:'Myriad Pro';-inkscape-font-specification:'Myriad Pro Bold';fill:#008663;fill-opacity:1"
         d="m -380.35472,442.44753 0,42.06165 -0.31625,0 c -3.47878,-5.21817 -10.7526,-8.69695 -20.39832,-8.69695 -18.5008,0 -34.78784,15.18014 -34.62971,41.11289 0,24.03523 14.70577,39.68976 33.04844,39.68976 9.96198,0 19.44957,-4.42754 24.19336,-12.96638 l 0.47438,0 0.94876,11.22699 21.34708,0 c -0.31625,-5.21818 -0.6325,-14.38952 -0.6325,-23.08647 l 0,-89.34149 -24.03524,0 z m 0,78.1145 c 0,1.89752 -0.15812,3.79504 -0.47438,5.3763 -1.42313,6.79944 -7.11569,11.54324 -14.07326,11.54324 -9.96197,0 -16.44515,-8.22258 -16.44515,-21.18895 0,-12.17575 5.53442,-21.97959 16.60328,-21.97959 7.43195,0 12.65012,5.21817 14.07326,11.70136 0.31625,1.42314 0.31625,3.00441 0.31625,4.42754 l 0,10.1201 z" />
    </g>
    <g
       id="text4207"
       style="font-style:normal;font-weight:normal;font-size:158.12652588px;line-height:0%;font-family:'Bitstream Vera Sans';letter-spacing:0px;word-spacing:0px;fill:#008663;fill-opacity:1;stroke:none;stroke-width:1px;stroke-linecap:butt;stroke-linejoin:miter;stroke-opacity:1">
      <path
         id="path4321"
         style="font-style:normal;font-variant:normal;font-weight:bold;font-stretch:normal;font-family:'Myriad Pro';-inkscape-font-specification:'Myriad Pro Bold';fill:#008663;fill-opacity:1"
         d="m -956.3033,698.8959 c -4.90192,2.05565 -12.80824,3.47878 -20.24019,3.47878 -21.34708,0 -33.99721,-13.44075 -33.99721,-34.6297 0,-23.71898 14.8639,-35.26222 33.83908,-35.26222 8.69696,0 15.4964,1.89752 20.2402,3.95316 l 5.06005,-19.13331 c -4.26942,-2.05564 -13.75701,-4.58567 -26.24901,-4.58567 -32.25782,0 -58.19052,20.08207 -58.19052,56.29305 0,30.36029 18.9751,53.44676 55.81863,53.44676 12.80824,0 22.92834,-2.53002 27.19776,-4.58567 l -3.47879,-18.97518 z" />
      <path
         id="path4323"
         style="font-style:normal;font-variant:normal;font-weight:bold;font-stretch:normal;font-family:'Myriad Pro';-inkscape-font-specification:'Myriad Pro Bold';fill:#008663;fill-opacity:1"
         d="m -937.53318,720.87549 24.03523,0 0,-112.42796 -24.03523,0 0,112.42796 z" />
      <path
         id="path4325"
         style="font-style:normal;font-variant:normal;font-weight:bold;font-stretch:normal;font-family:'Myriad Pro';-inkscape-font-specification:'Myriad Pro Bold';fill:#008663;fill-opacity:1"
         d="m -869.95139,720.87549 0,-77.32387 -24.03523,0 0,77.32387 24.03523,0 z m -12.01762,-86.81146 c 7.90633,0 12.80825,-5.37631 12.80825,-12.01762 -0.15812,-6.79944 -4.90192,-12.01762 -12.65012,-12.01762 -7.7482,0 -12.80825,5.21818 -12.80825,12.01762 0,6.64131 4.90192,12.01762 12.492,12.01762 l 0.15812,0 z" />
      <path
         id="path4327"
         style="font-style:normal;font-variant:normal;font-weight:bold;font-stretch:normal;font-family:'Myriad Pro';-inkscape-font-specification:'Myriad Pro Bold';fill:#008663;fill-opacity:1"
         d="m -850.7489,720.87549 23.40272,0 0,-44.90794 c 0,-2.05564 0.15813,-4.26941 0.94876,-6.16693 1.42314,-3.79504 5.06005,-8.53883 11.22698,-8.53883 7.7482,0 11.22699,6.64131 11.22699,16.28703 l 0,43.32667 23.40272,0 0,-45.22419 c 0,-1.89752 0.31626,-4.26941 0.79064,-6.00881 1.73939,-4.58567 5.53442,-8.3807 11.22698,-8.3807 7.7482,0 11.38511,6.48319 11.38511,17.71017 l 0,41.90353 23.40272,0 0,-45.54044 c 0,-23.08647 -11.22698,-33.52282 -26.09087,-33.52282 -5.69256,0 -10.43635,1.42313 -14.70577,3.79503 -3.79504,2.21377 -7.11569,5.3763 -10.1201,9.48759 l -0.31625,0 c -3.32066,-8.06445 -11.06886,-13.28262 -21.18895,-13.28262 -13.12451,0 -20.08207,7.27382 -23.40273,12.33386 l -0.47438,0 -0.94876,-10.59447 -20.39832,0 c 0.31625,6.95756 0.63251,15.02202 0.63251,24.66774 l 0,52.65613 z" />
      <path
         id="path4329"
         style="font-style:normal;font-variant:normal;font-weight:bold;font-stretch:normal;font-family:'Myriad Pro';-inkscape-font-specification:'Myriad Pro Bold';fill:#008663;fill-opacity:1"
         d="m -650.50142,675.17692 c 0,-18.18455 -8.06446,-33.36469 -33.83908,-33.36469 -14.07326,0 -24.66774,3.95316 -30.04404,6.95756 l 4.42754,15.33828 c 5.06005,-3.00441 13.44076,-5.69256 21.34708,-5.69256 11.85949,0 14.07326,5.85068 14.07326,9.96197 l 0,0.94876 c -27.35589,0 -45.38231,9.48759 -45.38231,29.56966 0,12.33387 9.32947,23.71898 24.98399,23.71898 9.17134,0 17.07767,-3.32066 22.13772,-9.48759 l 0.47437,0 1.42314,7.7482 21.66334,0 c -0.94876,-4.26942 -1.26501,-11.38511 -1.26501,-18.65893 l 0,-27.03964 z m -23.2446,17.55205 c 0,1.42314 -0.15813,2.84627 -0.47438,4.11129 -1.58127,4.90192 -6.64132,8.85508 -12.492,8.85508 -5.3763,0 -9.48759,-3.0044 -9.48759,-9.17134 0,-9.17134 9.80384,-12.17574 22.45397,-12.17574 l 0,8.38071 z" />
      <path
         id="path4331"
         style="font-style:normal;font-variant:normal;font-weight:bold;font-stretch:normal;font-family:'Myriad Pro';-inkscape-font-specification:'Myriad Pro Bold';fill:#008663;fill-opacity:1"
         d="m -629.38659,629.00398 0,14.54764 -10.27823,0 0,17.71017 10.27823,0 0,31.6253 c 0,10.91073 2.21377,18.34268 6.64131,22.92835 3.95317,3.95316 10.43635,6.64131 18.18455,6.64131 6.64132,0 12.492,-0.94876 15.4964,-2.05564 l -0.15812,-18.18455 c -2.21377,0.47438 -3.79504,0.6325 -7.1157,0.6325 -7.11569,0 -9.48759,-4.26941 -9.48759,-13.59888 l 0,-27.98839 17.23579,0 0,-17.71017 -17.23579,0 0,-21.03083 -23.56085,6.48319 z" />
      <path
         id="path4333"
         style="font-style:normal;font-variant:normal;font-weight:bold;font-stretch:normal;font-family:'Myriad Pro';-inkscape-font-specification:'Myriad Pro Bold';fill:#008663;fill-opacity:1"
         d="m -507.26103,689.88269 c 0.31625,-1.73939 0.79063,-5.3763 0.79063,-9.48759 0,-19.13331 -9.48759,-38.58287 -34.47158,-38.58287 -26.72338,0 -39.05725,21.66333 -39.05725,41.27102 0,24.19336 15.02202,39.3735 41.27102,39.3735 10.43635,0 20.08207,-1.58126 27.9884,-4.90192 l -3.16253,-16.28703 c -6.48319,2.21377 -13.12451,3.32066 -21.34709,3.32066 -11.22698,0 -21.03082,-4.7438 -21.82146,-14.70577 l 49.80986,0 z m -49.96798,-16.44516 c 0.6325,-6.32506 4.74379,-15.65453 15.02202,-15.65453 10.91073,0 13.44075,9.80385 13.44075,15.65453 l -28.46277,0 z" />
      <path
         id="path4335"
         style="font-style:normal;font-variant:normal;font-weight:bold;font-stretch:normal;font-family:'Myriad Pro';-inkscape-font-specification:'Myriad Pro Bold';fill:#008663;fill-opacity:1"
         d="m -384.9477,698.8959 c -4.90193,2.05565 -12.80825,3.47878 -20.2402,3.47878 -21.34708,0 -33.9972,-13.44075 -33.9972,-34.6297 0,-23.71898 14.86389,-35.26222 33.83907,-35.26222 8.69696,0 15.4964,1.89752 20.2402,3.95316 l 5.06005,-19.13331 c -4.26942,-2.05564 -13.75701,-4.58567 -26.24901,-4.58567 -32.25781,0 -58.19056,20.08207 -58.19056,56.29305 0,30.36029 18.97519,53.44676 55.81867,53.44676 12.80825,0 22.92834,-2.53002 27.19776,-4.58567 l -3.47878,-18.97518 z" />
      <path
         id="path4337"
         style="font-style:normal;font-variant:normal;font-weight:bold;font-stretch:normal;font-family:'Myriad Pro';-inkscape-font-specification:'Myriad Pro Bold';fill:#008663;fill-opacity:1"
         d="m -366.17759,720.87549 24.03524,0 0,-45.85669 c 0,-1.7394 0.15812,-3.79504 0.79063,-5.21818 1.73939,-4.42754 5.69255,-8.53883 12.01762,-8.53883 9.01321,0 12.49199,6.95757 12.49199,17.07766 l 0,42.53604 24.03523,0 0,-45.06606 c 0,-23.40273 -11.70136,-33.9972 -27.03963,-33.9972 -4.42755,0 -8.85509,1.10688 -12.492,3.0044 -3.79504,1.89752 -6.95757,4.58567 -9.48759,8.06445 l -0.31625,0 0,-44.43355 -24.03524,0 0,112.42796 z" />
      <path
         id="path4339"
         style="font-style:normal;font-variant:normal;font-weight:bold;font-stretch:normal;font-family:'Myriad Pro';-inkscape-font-specification:'Myriad Pro Bold';fill:#008663;fill-opacity:1"
         d="m -209.16781,675.17692 c 0,-18.18455 -8.06445,-33.36469 -33.83907,-33.36469 -14.07326,0 -24.66774,3.95316 -30.04404,6.95756 l 4.42754,15.33828 c 5.06005,-3.00441 13.44075,-5.69256 21.34708,-5.69256 11.85949,0 14.07326,5.85068 14.07326,9.96197 l 0,0.94876 c -27.35589,0 -45.38231,9.48759 -45.38231,29.56966 0,12.33387 9.32946,23.71898 24.98399,23.71898 9.17134,0 17.07766,-3.32066 22.13771,-9.48759 l 0.47438,0 1.42314,7.7482 21.66334,0 c -0.94876,-4.26942 -1.26502,-11.38511 -1.26502,-18.65893 l 0,-27.03964 z m -23.2446,17.55205 c 0,1.42314 -0.15812,2.84627 -0.47438,4.11129 -1.58126,4.90192 -6.64131,8.85508 -12.49199,8.85508 -5.3763,0 -9.48759,-3.0044 -9.48759,-9.17134 0,-9.17134 9.80384,-12.17574 22.45396,-12.17574 l 0,8.38071 z" />
      <path
         id="path4341"
         style="font-style:normal;font-variant:normal;font-weight:bold;font-stretch:normal;font-family:'Myriad Pro';-inkscape-font-specification:'Myriad Pro Bold';fill:#008663;fill-opacity:1"
         d="m -190.13828,720.87549 24.03523,0 0,-44.59168 c 0,-2.21377 0.15813,-4.42754 0.79064,-6.00881 1.73939,-4.42754 5.69255,-9.01321 12.33387,-9.01321 8.69695,0 12.17574,6.79944 12.17574,16.76141 l 0,42.85229 24.03523,0 0,-45.69857 c 0,-22.77022 -11.85949,-33.36469 -27.67214,-33.36469 -12.96638,0 -20.71458,7.43194 -23.87711,12.49199 l -0.47438,0 -1.10688,-10.7526 -20.8727,0 c 0.31625,6.95756 0.6325,15.02202 0.6325,24.66774 l 0,52.65613 z" />
      <path
         id="path4343"
         style="font-style:normal;font-variant:normal;font-weight:bold;font-stretch:normal;font-family:'Myriad Pro';-inkscape-font-specification:'Myriad Pro Bold';fill:#008663;fill-opacity:1"
         d="m -24.273414,666.63809 c 0,-11.54324 0.316253,-18.02642 0.632506,-23.08647 l -20.872702,0 -0.790632,9.32946 -0.316253,0 c -3.953163,-6.48319 -10.594478,-11.06885 -21.188955,-11.06885 -19.133309,0 -35.10409,15.81265 -35.10409,40.79664 0,22.13771 13.598883,37.63411 32.732192,37.63411 8.855086,0 16.287033,-3.63691 20.872702,-9.96197 l 0.316253,0 0,4.90192 c 0,14.38952 -8.696959,20.39833 -20.082069,20.39833 -9.171338,0 -17.552044,-3.00441 -22.453967,-5.85069 l -4.743795,18.34268 c 6.957567,3.79504 17.552044,5.85068 27.830268,5.85068 11.38511,0 22.928346,-2.21377 31.309052,-9.48759 8.855086,-7.7482 11.85949,-19.92394 11.85949,-34.78784 l 0,-43.01041 z m -24.035232,19.76582 c 0,2.05564 -0.158127,4.58566 -0.790633,6.48318 -1.581265,5.53443 -6.483187,9.64572 -12.808248,9.64572 -9.961972,0 -15.654527,-9.01321 -15.654527,-20.55645 0,-14.07326 6.957568,-21.97958 15.812653,-21.97958 6.641314,0 11.226983,4.26941 12.966375,10.59447 0.316253,1.42314 0.47438,3.00441 0.47438,4.42755 l 0,11.38511 z" />
      <path
         id="path4345"
         style="font-style:normal;font-variant:normal;font-weight:bold;font-stretch:normal;font-family:'Myriad Pro';-inkscape-font-specification:'Myriad Pro Bold';fill:#008663;fill-opacity:1"
         d="m 63.168047,689.88269 c 0.316253,-1.73939 0.790633,-5.3763 0.790633,-9.48759 0,-19.13331 -9.487592,-38.58287 -34.471583,-38.58287 -26.7233827,0 -39.0572517,21.66333 -39.0572517,41.27102 0,24.19336 15.0220199,39.3735 41.2710237,39.3735 10.43635,0 20.082068,-1.58126 27.988395,-4.90192 L 56.526733,701.2678 c -6.483187,2.21377 -13.124502,3.32066 -21.347081,3.32066 -11.226983,0 -21.030828,-4.7438 -21.82146,-14.70577 l 49.809855,0 z M 13.200065,673.43753 c 0.632506,-6.32506 4.743796,-15.65453 15.02202,-15.65453 10.91073,0 13.440755,9.80385 13.440755,15.65453 l -28.462775,0 z" />
    </g>
    <g
       id="text4211"
       style="font-style:normal;font-weight:normal;font-size:90.31401825px;line-height:0%;font-family:'Bitstream Vera Sans';letter-spacing:0px;word-spacing:0px;fill:#008663;fill-opacity:1;stroke:none;stroke-width:1px;stroke-linecap:butt;stroke-linejoin:miter;stroke-opacity:1">
      <path
         id="path4388"
         style="font-style:normal;font-variant:normal;font-weight:normal;font-stretch:normal;font-family:'Myriad Pro';-inkscape-font-specification:'Myriad Pro';fill:#008663;fill-opacity:1"
         d="m -1213.6953,405.7172 c -3.161,1.53534 -8.038,2.5288 -12.9149,2.5288 -14.7212,0 -23.301,-9.48298 -23.301,-24.38479 0,-15.89527 9.4829,-25.01698 23.7525,-25.01698 5.0576,0 9.3024,1.08377 12.1924,2.52879 l 1.9869,-6.50261 c -2.0772,-0.99345 -6.9541,-2.61911 -14.4502,-2.61911 -18.8756,0 -31.7905,12.82459 -31.7905,31.88085 0,19.9594 12.8246,30.79708 29.9842,30.79708 7.4058,0 13.2762,-1.44502 16.0759,-2.89005 l -1.5353,-6.32198 z" />
      <path
         id="path4390"
         style="font-style:normal;font-variant:normal;font-weight:normal;font-stretch:normal;font-family:'Myriad Pro';-inkscape-font-specification:'Myriad Pro';fill:#008663;fill-opacity:1"
         d="m -1170.9655,378.98425 -23.572,0 0,-19.23688 25.017,0 0,-6.59293 -32.9646,0 0,60.87165 34.3193,0 0,-6.59292 -26.3717,0 0,-21.94631 23.572,0 0,-6.50261 z" />
      <path
         id="path4392"
         style="font-style:normal;font-variant:normal;font-weight:normal;font-stretch:normal;font-family:'Myriad Pro';-inkscape-font-specification:'Myriad Pro';fill:#008663;fill-opacity:1"
         d="m -1150.714,414.02609 0,-26.01043 c 0,-10.11517 -0.09,-17.43061 -0.5419,-25.1073 l 0.271,-0.0903 c 2.9803,6.59293 7.0445,13.54711 11.2892,20.32066 l 19.3272,30.88739 7.9476,0 0,-60.87165 -7.4057,0 0,25.55887 c 0,9.39266 0.1806,16.79841 0.9031,24.92667 l -0.2709,0.0903 c -2.7997,-6.23166 -6.4123,-12.64396 -10.8377,-19.77877 l -19.4175,-30.79708 -8.6701,0 0,60.87165 7.4057,0 z" />
      <path
         id="path4394"
         style="font-style:normal;font-variant:normal;font-weight:normal;font-stretch:normal;font-family:'Myriad Pro';-inkscape-font-specification:'Myriad Pro';fill:#008663;fill-opacity:1"
         d="m -1087.1146,414.02609 7.9477,0 0,-54.18841 18.6046,0 0,-6.68324 -45.0666,0 0,6.68324 18.5143,0 0,54.18841 z" />
      <path
         id="path4396"
         style="font-style:normal;font-variant:normal;font-weight:normal;font-stretch:normal;font-family:'Myriad Pro';-inkscape-font-specification:'Myriad Pro';fill:#008663;fill-opacity:1"
         d="m -1053.6942,414.02609 7.8574,0 0,-26.37169 7.4057,0 c 7.1348,0.27094 10.4764,3.43193 12.2827,11.83114 1.6257,7.58637 2.9804,12.73427 3.9738,14.54055 l 8.1283,0 c -1.1741,-2.34816 -2.6191,-8.21857 -4.606,-16.70809 -1.5354,-6.32198 -4.3351,-10.65706 -8.9411,-12.28271 l 0,-0.27094 c 6.322,-2.16754 11.4699,-7.49606 11.4699,-15.4437 0,-4.78664 -1.8063,-8.94108 -4.7867,-11.56019 -3.7932,-3.43193 -9.3023,-5.05759 -17.7015,-5.05759 -5.3285,0 -11.1086,0.54189 -15.0825,1.35471 l 0,59.96851 z m 7.8574,-54.45935 c 1.3547,-0.36126 3.9738,-0.72251 7.767,-0.72251 8.3089,0 13.9986,3.43193 13.9986,11.28925 0,6.95418 -5.3285,11.56019 -13.7277,11.56019 l -8.0379,0 0,-22.12693 z" />
      <path
         id="path4398"
         style="font-style:normal;font-variant:normal;font-weight:normal;font-stretch:normal;font-family:'Myriad Pro';-inkscape-font-specification:'Myriad Pro';fill:#008663;fill-opacity:1"
         d="m -973.57998,378.98425 -23.57196,0 0,-19.23688 25.01698,0 0,-6.59293 -32.96464,0 0,60.87165 34.31936,0 0,-6.59292 -26.3717,0 0,-21.94631 23.57196,0 0,-6.50261 z" />
      <path
         id="path4400"
         style="font-style:normal;font-variant:normal;font-weight:normal;font-stretch:normal;font-family:'Myriad Pro';-inkscape-font-specification:'Myriad Pro';fill:#008663;fill-opacity:1"
         d="m -941.59754,414.02609 7.94763,0 0,-27.54577 22.93976,0 0,-6.50261 -22.93976,0 0,-20.23034 24.83636,0 0,-6.59293 -32.78399,0 0,60.87165 z" />
      <path
         id="path4402"
         style="font-style:normal;font-variant:normal;font-weight:normal;font-stretch:normal;font-family:'Myriad Pro';-inkscape-font-specification:'Myriad Pro';fill:#008663;fill-opacity:1"
         d="m -873.74206,415.01955 c 15.4437,0 28.17798,-11.19894 28.17798,-32.06148 0,-18.0628 -10.74737,-30.79708 -27.45546,-30.79708 -16.25653,0 -28.17798,12.64396 -28.17798,31.97116 0,18.42406 11.19894,30.8874 27.36515,30.8874 l 0.0903,0 z m 0.27095,-6.4123 c -12.37302,0 -19.41752,-11.83113 -19.41752,-24.65573 0,-13.18584 6.50261,-25.37823 19.59814,-25.37823 13.09554,0 19.41752,12.64396 19.41752,24.74604 0,13.81804 -7.0445,25.28792 -19.50783,25.28792 l -0.0903,0 z" />
      <path
         id="path4404"
         style="font-style:normal;font-variant:normal;font-weight:normal;font-stretch:normal;font-family:'Myriad Pro';-inkscape-font-specification:'Myriad Pro';fill:#008663;fill-opacity:1"
         d="m -835.49408,414.02609 7.85732,0 0,-26.37169 7.40575,0 c 7.13481,0.27094 10.47643,3.43193 12.28271,11.83114 1.62565,7.58637 2.98036,12.73427 3.97382,14.54055 l 8.12826,0 c -1.17408,-2.34816 -2.61911,-8.21857 -4.60602,-16.70809 -1.53533,-6.32198 -4.33507,-10.65706 -8.94108,-12.28271 l 0,-0.27094 c 6.32198,-2.16754 11.46988,-7.49606 11.46988,-15.4437 0,-4.78664 -1.80628,-8.94108 -4.78665,-11.56019 -3.79319,-3.43193 -9.30234,-5.05759 -17.70154,-5.05759 -5.32853,0 -11.10863,0.54189 -15.08245,1.35471 l 0,59.96851 z m 7.85732,-54.45935 c 1.35471,-0.36126 3.97382,-0.72251 7.76701,-0.72251 8.30889,0 13.99867,3.43193 13.99867,11.28925 0,6.95418 -5.32852,11.56019 -13.72773,11.56019 l -8.03795,0 0,-22.12693 z" />
    </g>
    <text
       xml:space="preserve"
       style="font-style:normal;font-weight:normal;font-size:158.41311646px;line-height:0%;font-family:'Bitstream Vera Sans';letter-spacing:0px;word-spacing:0px;fill:#008663;fill-opacity:1;stroke:none;stroke-width:1px;stroke-linecap:butt;stroke-linejoin:miter;stroke-opacity:1"
       x="-1159.5367"
       y="721.35419"
       id="text4215"><tspan
         id="tspan4217"
         x="-1159.5367"
         y="721.35419"
         style="font-style:normal;font-variant:normal;font-weight:300;font-stretch:normal;font-family:'Myriad Pro';-inkscape-font-specification:'Myriad Pro Light';fill:#008663;fill-opacity:1">&amp;</tspan></text>
    <g
       id="text4145"
       style="font-style:normal;font-weight:normal;font-size:158.12652588px;line-height:0%;font-family:'Bitstream Vera Sans';letter-spacing:0px;word-spacing:0px;fill:#008663;fill-opacity:1;stroke:none;stroke-width:1px;stroke-linecap:butt;stroke-linejoin:miter;stroke-opacity:1">
      <path
         id="path4348"
         style="font-style:normal;font-variant:normal;font-weight:bold;font-stretch:normal;font-family:'Myriad Pro';-inkscape-font-specification:'Myriad Pro Bold';fill:#008663;fill-opacity:1"
         d="m -303.95223,477.55162 28.14652,77.32387 24.03524,0 28.77902,-77.32387 -25.30024,0 -9.96197,35.89472 c -1.73939,6.64131 -3.00441,12.49199 -4.26942,18.81706 l -0.47438,0 c -1.26501,-6.16694 -2.53002,-12.33387 -4.42754,-18.81706 l -10.43635,-35.89472 -26.09088,0 z" />
      <path
         id="path4350"
         style="font-style:normal;font-variant:normal;font-weight:bold;font-stretch:normal;font-family:'Myriad Pro';-inkscape-font-specification:'Myriad Pro Bold';fill:#008663;fill-opacity:1"
         d="m -146.19384,523.88269 c 0.31626,-1.73939 0.79063,-5.3763 0.79063,-9.48759 0,-19.13331 -9.48759,-38.58287 -34.47158,-38.58287 -26.72338,0 -39.05725,21.66333 -39.05725,41.27102 0,24.19336 15.02202,39.3735 41.27102,39.3735 10.43635,0 20.08207,-1.58126 27.9884,-4.90192 l -3.16253,-16.28703 c -6.48319,2.21377 -13.1245,3.32066 -21.34708,3.32066 -11.22699,0 -21.03083,-4.7438 -21.82146,-14.70577 l 49.80985,0 z m -49.96798,-16.44516 c 0.63251,-6.32506 4.7438,-15.65453 15.02202,-15.65453 10.91073,0 13.44075,9.80385 13.44075,15.65453 l -28.46277,0 z" />
      <path
         id="path4352"
         style="font-style:normal;font-variant:normal;font-weight:bold;font-stretch:normal;font-family:'Myriad Pro';-inkscape-font-specification:'Myriad Pro Bold';fill:#008663;fill-opacity:1"
         d="m -131.11747,554.87549 24.03524,0 0,-39.05725 c 0,-2.05565 0.15812,-3.79504 0.47438,-5.37631 1.58126,-7.59007 7.590069,-12.17574 16.445155,-12.17574 2.688151,0 4.585669,0.31626 6.483187,0.63251 l 0,-22.6121 c -1.739392,-0.31625 -2.846277,-0.47437 -5.060049,-0.47437 -7.590073,0 -16.919533,4.74379 -20.872703,16.1289 l -0.6325,0 -0.94876,-14.38951 -20.55645,0 c 0.47438,6.64131 0.6325,14.07326 0.6325,25.45837 l 0,51.8655 z" />
      <path
         id="path4354"
         style="font-style:normal;font-variant:normal;font-weight:bold;font-stretch:normal;font-family:'Myriad Pro';-inkscape-font-specification:'Myriad Pro Bold';fill:#008663;fill-opacity:1"
         d="m -75.32104,550.92233 c 5.850682,3.16253 14.863894,5.53442 24.983991,5.53442 22.137714,0 33.364697,-10.59447 33.364697,-25.14211 -0.158126,-11.22699 -6.166934,-18.65893 -20.872701,-23.71898 -9.487592,-3.16253 -12.491996,-5.21818 -12.491996,-8.85509 0,-3.79504 3.320657,-6.16693 9.171339,-6.16693 6.483187,0 13.282628,2.53002 16.761412,4.26941 l 4.111289,-16.44516 c -4.743796,-2.37189 -12.650122,-4.58566 -21.663334,-4.58566 -19.133309,0 -31.467178,10.91073 -31.467178,25.45837 -0.158127,9.01321 6.008808,17.71017 22.137713,23.08647 8.855086,2.84628 11.226984,4.90192 11.226984,8.85508 0,3.95317 -3.004404,6.32507 -10.278225,6.32507 -7.115693,0 -16.287032,-3.00441 -20.714575,-5.69256 l -4.269416,17.07767 z" />
      <path
         id="path4356"
         style="font-style:normal;font-variant:normal;font-weight:bold;font-stretch:normal;font-family:'Myriad Pro';-inkscape-font-specification:'Myriad Pro Bold';fill:#008663;fill-opacity:1"
         d="m 22.013256,554.87549 0,-77.32387 -24.035232,0 0,77.32387 24.035232,0 z M 9.99564,468.06403 c 7.906326,0 12.808249,-5.37631 12.808249,-12.01762 -0.158127,-6.79944 -4.901923,-12.01762 -12.650123,-12.01762 -7.7481993,0 -12.8082481,5.21818 -12.8082481,12.01762 0,6.64131 4.9019223,12.01762 12.4919955,12.01762 l 0.1581266,0 z" />
      <path
         id="path4358"
         style="font-style:normal;font-variant:normal;font-weight:bold;font-stretch:normal;font-family:'Myriad Pro';-inkscape-font-specification:'Myriad Pro Bold';fill:#008663;fill-opacity:1"
         d="m 44.536382,463.00398 0,14.54764 -10.278224,0 0,17.71017 10.278224,0 0,31.6253 c 0,10.91073 2.213772,18.34268 6.641315,22.92835 3.953163,3.95316 10.43635,6.64131 18.18455,6.64131 6.641314,0 12.491996,-0.94876 15.4964,-2.05564 L 84.70052,536.21656 c -2.213771,0.47438 -3.795037,0.6325 -7.115694,0.6325 -7.115693,0 -9.487591,-4.26941 -9.487591,-13.59888 l 0,-27.98839 17.235791,0 0,-17.71017 -17.235791,0 0,-21.03083 -23.560853,6.48319 z" />
      <path
         id="path4360"
         style="font-style:normal;font-variant:normal;font-weight:bold;font-stretch:normal;font-family:'Myriad Pro';-inkscape-font-specification:'Myriad Pro Bold';fill:#008663;fill-opacity:1"
         d="m 91.507383,477.55162 28.462777,70.84068 c 0.79063,1.89752 0.94876,3.0044 0.94876,3.95316 0,0.94876 -0.47438,2.21378 -1.26501,3.47879 -2.21378,3.79503 -6.32507,7.7482 -9.96198,9.64572 -3.63691,2.05564 -7.43194,3.47878 -10.436347,4.11129 l 5.060047,20.24019 c 6.16694,-0.63251 15.02202,-3.32066 23.2446,-10.59448 8.69696,-7.7482 16.12891,-19.92394 27.19776,-50.75861 l 18.02643,-50.91674 -25.77463,0 -9.48759,37.95036 c -1.10688,4.58567 -2.3719,10.27823 -3.47878,14.54764 l -0.47438,0 c -0.94876,-4.11129 -2.53003,-9.96197 -3.79504,-14.38951 l -11.54323,-38.10849 -26.723387,0 z" />
    </g>
  </g>
</svg>
