<svg xmlns="http://www.w3.org/2000/svg" viewBox="0 0 433.2 174.6"><defs><style>.a{fill:#4e9d2d;}.b{fill:#231f20;}</style></defs><title>GBIF-2015</title><path class="a" d="M142.5,184.5c0-34.1,16.6-63.6,66.1-63.6,0,34.2-22.5,63.6-66.1,63.6" transform="translate(-65.5 -99.4)"/><path class="a" d="M221.7,274a65.1,65.1,0,0,0,23.7-4c0-27-16.1-46.2-44.5-60.1-21.7-10.9-48.5-16.6-72.9-16.6,10.7-32.2,2.9-72-7.5-93.9-11.5,22.9-18.7,62.3-7.6,94.3-21.7,1.6-38.9,11-46.2,23.5-.5.9-1.7,3-1,3.3s1.4-.6,1.9-1a41.7,41.7,0,0,1,28.2-10.8c23,0,39.3,19.1,50.8,30.6,24.7,24.7,48.8,34.9,75.2,34.8" transform="translate(-65.5 -99.4)"/><path class="b" d="M316.8,147.3l-12,6.1a4.6,4.6,0,0,1-1.8.8c-.5,0-.9-.3-1.2-1-2.7-6.4-6.6-8.8-10.6-8.8h-9.9a11,11,0,0,0-10.8,10.8v44.4a11,11,0,0,0,10.8,10.8h7.3a10.6,10.6,0,0,0,10.6-10.8v-7c0-1-.5-1.5-1.5-1.5H283.7c-1,0-1.5-.5-1.5-1.5V176.7c0-1,.5-1.5,1.5-1.5H315c1,0,1.5.5,1.5,1.5v22.8c0,15.6-10.9,26.5-27.9,26.5h-7.3c-17.1,0-27.9-10.9-27.9-26.5V155.1c0-15.6,10.8-26.5,27.9-26.5h9.9c12.4,0,19.2,5.1,23.7,12.1,1.3,2.3,2.8,4.6,2.8,5.5S317.4,147,316.8,147.3Z" transform="translate(-65.5 -99.4)"/><path class="b" d="M364.5,224.6H330.8c-1,0-1.5-.5-1.5-1.5V131.6c0-1.1.5-1.5,1.5-1.5h33.7c17.1,0,27.9,10.9,27.9,27.9v1.5c0,5.5-3.6,12-8,16.2a1.2,1.2,0,0,0,0,2.1c4.4,4.2,8,11.4,8,16.9V197C392.4,213.9,381.6,224.6,364.5,224.6Zm10.8-67.9a11,11,0,0,0-10.8-10.8H348c-1,0-1.5.4-1.5,1.5v19.9c0,1.1.5,1.5,1.5,1.5h16.5A11,11,0,0,0,375.3,158Zm0,38.5a10.6,10.6,0,0,0-10.8-10.6H348c-1,0-1.5.5-1.5,1.5v21.3c0,1.1.5,1.5,1.5,1.5h16.5A10.8,10.8,0,0,0,375.3,198Z" transform="translate(-65.5 -99.4)"/><path class="b" d="M422.4,224.6H408.2c-1,0-1.5-.5-1.5-1.5V131.6c0-1.1.5-1.5,1.5-1.5h14.2c1,0,1.5.4,1.5,1.5v91.5C423.9,224.1,423.5,224.6,422.4,224.6Z" transform="translate(-65.5 -99.4)"/><path class="b" d="M497.3,145.8H461.6c-1,0-1.5.4-1.5,1.5v19.9c0,1.1.5,1.5,1.5,1.5h29.2c1,0,1.5.5,1.5,1.5V183c0,1-.5,1.5-1.5,1.5H461.6c-1,0-1.5.5-1.5,1.5v37c0,1-.5,1.5-1.5,1.5H444.3c-1,0-1.5-.5-1.5-1.5V131.6c0-1.1.5-1.5,1.5-1.5h52.9c1,0,1.5.4,1.5,1.5v12.7C498.8,145.4,498.3,145.8,497.3,145.8Z" transform="translate(-65.5 -99.4)"/></svg>