<svg xmlns="http://www.w3.org/2000/svg" viewBox="0 0 189.3 283.8"><defs><style>.a{fill:#231f20;}</style></defs><title>WWF_logo</title><path class="a" d="M394.1,407.4a4,4,0,0,0-3.8,2.6l-7.6,19.3-.7,2.2-.6-2.2-5.9-18.8v-.2h0a4,4,0,0,0-3.8-2.7h-9.5a4,4,0,0,0-3.8,4,7.8,7.8,0,0,0,.4,2l1.3,3.9-4.7,11.8-.8,2.2-.6-2.2-5.9-18.8v-.2h0a4,4,0,0,0-3.8-2.7h-9.5a4,4,0,0,0-3.8,4,8.2,8.2,0,0,0,.4,2l14.3,42.5a4,4,0,0,0,7.7.2l10-25.3.7-2.2.6,2.2,8.4,25a4,4,0,0,0,7.8.1l16.9-43.1a4,4,0,0,0-3.6-5.8Z" transform="translate(-328 -175.4)"/><path class="a" d="M465.1,407.4a4,4,0,0,0-3.8,2.6l-7.6,19.3-.7,2.2-.6-2.2-5.9-18.8v-.2h0a4,4,0,0,0-3.8-2.7h-9.5a4,4,0,0,0-3.8,4,7.9,7.9,0,0,0,.4,2l1.3,3.9-4.7,11.8-.8,2.2-.6-2.2-5.9-18.8v-.2h0a4,4,0,0,0-3.8-2.7h-9.5a4,4,0,0,0-3.8,4,7.8,7.8,0,0,0,.4,2l14.3,42.5a4,4,0,0,0,7.7.2l10-25.3.7-2.2.6,2.2,8.4,25a4,4,0,0,0,7.8.1l16.9-43.1a4,4,0,0,0-3.6-5.8Z" transform="translate(-328 -175.4)"/><path class="a" d="M511.3,407.5H478a3.5,3.5,0,0,0-3.5,3.5h0v44.3h0a3.8,3.8,0,0,0,3.7,3.6h9.4a3.7,3.7,0,0,0,3.7-3.7V434.5H505a3.7,3.7,0,0,0-.1-7.3H491.4V415.3h20.1a3.9,3.9,0,0,0-.2-7.8Z" transform="translate(-328 -175.4)"/><path class="a" d="M459.6,266.4c6.1,6.8,6.7,27,22,18.9,9.1-4.8,9-25.2-3.2-32.6-9.9-5.9-15.3,2-18.9,11.7a2,2,0,0,0,.1,1.9Z" transform="translate(-328 -175.4)"/><path class="a" d="M435.9,263.2c-6.3,5.3-10.7,19.8-22.5,14.9-9.5-4.8-10.4-23.6,6-32.3,11.4-5.2,17.1,5.1,17.2,16.1a2.1,2.1,0,0,1-.7,1.3Z" transform="translate(-328 -175.4)"/><path class="a" d="M451.7,300.1c6.3-.6,4.9-6.5.1-7.9a56.2,56.2,0,0,0-15.3-2c-8.1.2-7.9,6.4-3.7,7.4s5.2,1.5,8,5,1.4-1.5,10.9-2.5Z" transform="translate(-328 -175.4)"/><path class="a" d="M481.4,195.6c7.9-13.2,21.7-10.6,28.6-4.1s8.7,15.4,5.8,21.1c-3.9,7.8-14.1,17.2-20.6,8.1-2.9-4-9.1-8.8-12.4-10.2-5.1-2.2-6.2-6.9-1.3-14.9Z" transform="translate(-328 -175.4)"/><path class="a" d="M512.9,253.7c-.7-2.3-1.9-2.2-1.9-.3.7,24-13.7,49.7-44.3,49.8-7.8,0-5.5,12.6-19.8,6.3-10.3-6.9-16.2,6.7-23.5-8-1.6-4.3-4.1-5.9-7.1-6.7-30.3-7.5-39.9-49.2-13.2-82.8,5.2,3.2,7.2,3.6,12.8-1.5a40.6,40.6,0,0,1,10.6-6.7c6.4-2.4,9.9-5.2,4.4-17.4-7.2-15.9-21.7-11.4-28.4-5.9s-12.8,16.2-3.1,28c-27.1,18.3-31.7,40.8-31.1,60.3s-4.7,19,2,40.1c.6,1.8-.7,1.8-1.7,1.2-28.3-18.1-43.5-73.3.5-103.7,1-.8.6-2-3,.1-38.1,20.2-41.6,59.2-35.3,85.5,3.1,12.8-1.6,15.1,3.3,31.8,11.4,34.9,21,37.6,34.7,38.7,24.9,0,8-13.7,8.9-31,0-1,1.2-1.5,1.9.6,13.7,30.7,23.4,58.6,59.4,56,20.8-2.7,9.2-13,8-18.9-15.3-50.9,21.9-62.8,11.3-13.2-6.9,28.4,15,25.5,30.5,15.4s35.9-79.6,24.3-117.7Zm-60.6,60.1c-3.4,9.1-21.4,6-21.9-2.8,0-.4.5-.3.7-.2a97.4,97.4,0,0,0,20.7,2.7c.2,0,.6-.1.6.4Z" transform="translate(-328 -175.4)"/><path class="a" d="M372.4,375.5a6.7,6.7,0,1,1-6.7-6.7A6.7,6.7,0,0,1,372.4,375.5Zm-6.7-8a8,8,0,1,0,8,8A8,8,0,0,0,365.7,367.5Z" transform="translate(-328 -175.4)"/><path class="a" d="M368,376.7a2,2,0,0,1-2,1.6,2.7,2.7,0,0,1-2.5-2.9c0-1.6.9-2.8,2.5-2.8a2,2,0,0,1,2.1,1.6h1.2a3.1,3.1,0,0,0-3.3-2.7,3.7,3.7,0,0,0-3.8,4,3.8,3.8,0,0,0,3.9,4,3.2,3.2,0,0,0,3.2-2.8Z" transform="translate(-328 -175.4)"/><path class="a" d="M512.6,394.5a6.7,6.7,0,1,1-6.7-6.7A6.7,6.7,0,0,1,512.6,394.5Zm-6.7-8a8,8,0,1,0,8,8A8,8,0,0,0,506,386.5Z" transform="translate(-328 -175.4)"/><path class="a" d="M504.6,395h1.3l2,3.3h1.3L507,395a2,2,0,0,0,2-2.1c0-1.5-.9-2.1-2.7-2.1h-2.9v7.5h1.1Zm0-1v-2.3h1.6c.8,0,1.6.2,1.6,1.1s-.9,1.2-1.8,1.2Z" transform="translate(-328 -175.4)"/></svg>