<svg xmlns="http://www.w3.org/2000/svg" xmlns:xlink="http://www.w3.org/1999/xlink" id="Layer_1" viewBox="0 0 128.6 45.9"><style id="style2">.st0{clip-path:url(#SVGID_2_);fill:#FFFFFF;} .st1{clip-path:url(#SVGID_2_);fill:#E6E6E5;} .st2{clip-path:url(#SVGID_4_);fill:url(#SVGID_5_);} .st3{clip-path:url(#SVGID_7_);fill:#F4F4F4;} .st4{clip-path:url(#SVGID_9_);fill:#808080;} .st5{clip-path:url(#SVGID_11_);fill:#676766;} .st6{clip-path:url(#SVGID_13_);fill:#FFFFFF;} .st7{clip-path:url(#SVGID_13_);fill:#E6E6E5;} .st8{clip-path:url(#SVGID_15_);fill:url(#SVGID_16_);} .st9{fill:#FFFFFF;} .st10{clip-path:url(#SVGID_18_);fill:#336798;} .st11{fill:#336798;} .st12{font-family:&apos;Myriad-Roman&apos;;} .st13{font-size:3.6013px;} .st14{clip-path:url(#SVGID_20_);fill:none;stroke:#336798;stroke-width:0.424;}</style><g id="g16"><defs id="defs5"><path id="SVGID_1_" d="M0 0h128.6v45.9H0z"/></defs><clipPath id="SVGID_2_"><use xlink:href="#SVGID_1_" id="use7" overflow="visible"/></clipPath><path class="st0" d="M8.2 29.1c-1.1.1-.5.7-.2 1.4 0 0-1.8 3.8-.4 4.3.7.3 1.6 2.2 2.5 2.5 1.1.3 3.3.6 4.2.6.9 0 4.4.5 6.1.6 2.6.1 11.2-4 14.2-4.2 2.9-.1 8.8-.1 8.8-.1l1.1-7.2c-1.1 0-4.7.3-5.5.2s-2.6-.6-3.5-.7c-1-.1-3.4.7-4.7.5" clip-path="url(#SVGID_2_)" id="path10"/><path class="st1" d="M12.7 30c-.4 0-4.6-.3-5-.3-.3 0-.6 0-.9-.1-.4-.1-.7.1-1.1-.2-.5-.3-1-.4-1.3-.6-.6-.4-.4-.7-1-1.3-.6-.6-1.4-.7-1.6-.4-.3.4-.1.6.2 1.2 0 0 0 .1.1.1l.3.6c.1.2.3.4.6.6C5.2 32 8.2 32 8.2 32c.4 0 4.4.4 4.8.4l-.3-2.4z" clip-path="url(#SVGID_2_)" id="path12"/><path class="st1" d="M13 31c-.4.1-4.6.1-5 .1h-.9c-.4-.1-.7.1-1.1-.1-.5-.3-1-.3-1.3-.5-.7-.4-.5-.6-1.1-1.2-.6-.5-1.4-.5-1.7-.2-.3.4 0 .6.3 1.2l.1.1c.1.2.2.4.4.6.1.2.4.4.7.6 2.4 2.2 4.9 3.6 4.9 3.6.4 0 4.9-1.6 5.3-1.6L13 31z" clip-path="url(#SVGID_2_)" id="path14"/></g><g id="g37"><defs id="defs19"><path id="SVGID_3_" d="M17.1 0C7.9.6.5 8 0 17.2v2.2C.6 29 8.5 36.6 18.3 36.6c10.1 0 18.3-8.2 18.3-18.3C36.6 8.5 29 .6 19.4 0h-2.3z"/></defs><clipPath id="SVGID_4_"><use xlink:href="#SVGID_3_" id="use21" overflow="visible"/></clipPath><linearGradient id="SVGID_5_" gradientUnits="userSpaceOnUse" x1="-192.008" y1="372.853" x2="-191.009" y2="372.853" gradientTransform="matrix(0 36.6083 36.6083 0 -13631.234 7029.082)"><stop offset="0" id="stop24" stop-color="#336698"/><stop offset=".295" id="stop26" stop-color="#316193"/><stop offset=".634" id="stop28" stop-color="#2B5385"/><stop offset=".993" id="stop30" stop-color="#203D6F"/><stop offset="1" id="stop32" stop-color="#203C6E"/></linearGradient><path class="st2" clip-path="url(#SVGID_4_)" id="rect35" d="M0 0h36.6v36.6H0z"/></g><g id="g217"><defs id="defs40"><path id="SVGID_6_" d="M1.4.8h34.1v31.3H1.4z"/></defs><clipPath id="SVGID_7_"><use xlink:href="#SVGID_6_" id="use42" overflow="visible"/></clipPath><path class="st3" d="M29.2 6.2c.3.1.6-.1.9-.1.4 0 .8.3 1.2.4.2 0 .2-.1.4-.1-.2-.5-.9-.5-1.2-.9.3 0 .1-.3.2-.3-.1 0-.6.1-.6.2s.3.1.3.2c-.2.3-.5.1-.7 0-.4-.3-.3-.2-.7-.2 0 .1-.1.1-.1.3.2.2-.1.1.3.5" clip-path="url(#SVGID_7_)" id="path45"/><path class="st3" d="M7 6.7c.1.2.5-.5.6-.5.2-.3.8-.5.4 0h.1c0 .1-.1.1 0 .2.1 0 .3-.3.4-.4 0 .1.4-.1-.2-.2-.2-.1 0-.6-.3-.4 0-.2-.8.2-1 .3.3 0 .5-.1.8-.2l-.2.2c.2 0 .4.1.6.1-.2.1-.6 0-.8.3.1 0 .1-.1.2-.1-.1.1-.7.5-.6.7" clip-path="url(#SVGID_7_)" id="path47"/><path class="st3" d="M32.8 7.1c-.3-.1-.6-.8-1-.7.3.1.6.6 1 .7" clip-path="url(#SVGID_7_)" id="path49"/><path class="st3" d="M8.5 6.4c0-.1.7 0 .8-.2-.1 0-.8.1-.8.2" clip-path="url(#SVGID_7_)" id="path51"/><path class="st3" d="M13 1.2h-.2.2c.1 0 0 0 0 0" clip-path="url(#SVGID_7_)" id="path53"/><path class="st3" d="M13.4 1.1" clip-path="url(#SVGID_7_)" id="path55"/><path class="st3" d="M7.8 6.6c0 .1-.1.2 0 .2s.4-.1.6-.2h-.6" clip-path="url(#SVGID_7_)" id="path57"/><path class="st3" d="M13 2.6" clip-path="url(#SVGID_7_)" id="path59"/><path class="st3" d="M6.6 13.7" clip-path="url(#SVGID_7_)" id="path61"/><path class="st3" d="M19 1.1h-.1.1" clip-path="url(#SVGID_7_)" id="path63"/><path class="st3" d="M16.9 1h.2-.2" clip-path="url(#SVGID_7_)" id="path65"/><path class="st3" d="M17.5 1.1h.3c0-.1-.1-.1-.3 0 .1 0 0 0 0 0" clip-path="url(#SVGID_7_)" id="path67"/><path class="st3" d="M9.6 2.6" clip-path="url(#SVGID_7_)" id="path69"/><path class="st3" d="M8.1 2.6h.3-.3" clip-path="url(#SVGID_7_)" id="path71"/><path class="st3" d="M12 2.4l.1-.1s-.1 0-.1.1" clip-path="url(#SVGID_7_)" id="path73"/><path class="st3" d="M8.3 2.6c.1 0 .1 0 0 0 .1 0 .1 0 0 0" clip-path="url(#SVGID_7_)" id="path75"/><path class="st3" d="M11.5 1.9c.1 0 0 0 0 0" clip-path="url(#SVGID_7_)" id="path77"/><path class="st3" d="M3.1 10.3c.3-.4.6-.7 1-.9.3-.2.5.3.7.2 0-.1.1-.1.1-.3h-.1.4c0 .1.8.2.8.2 0 .1-.5 1.4-.2 1.4s.5-.9.5-1.1c.1-.7.7-1 1.4-1.3.1-.1.3-.2.5-.3-.1-.1 0-.1.1-.2 0 0-.1 0-.1-.1.1 0 .2-.1.2-.2s.2-.4.2-.4l-.1.4c.2 0 .3-.4.4-.5 0-.1.6-.3.8-.4h-.2c.3-.1.6-.1.9-.2-.4 0 .3-.6.5-.5.2 0 .7-.3 1-.3-.1.1 0 .1.1.1-.4 0-.7.5-.4.3.2-.1.9-.2 1-.4 0-.1-.8 0-.4-.5H12c.1-.1.3 0 .4-.2.1-.2-1 .1-1.1.1.4-.4 2.6-.3 2.4-1-.1 0-.8.2-.8.1.2-.1.6-.1.6-.2.1-.1-.6 0-.4-.2-.1 0-.2-.1-.3-.1.4-.1-.1-.7-.3-.4l.1.1c-.1 0-.2-.1-.1-.2-.2.3-.9.1-1.1 0-.8-.4-.6.2-1.2.3-.1.4.4.4-.2.6-.5.2-.2.3-.4.6h-.3.1c.1-.1-.1-.1-.1 0 0-.1.3-.2.1-.4-.6-.1-.5-.4-1.1-.4.2-.2.2-.3-.1-.2.3-.2 1-.4 1.2-.7h-.1c.3 0 .8 0 1-.2-.1 0-.3 0-.3-.1h.5c-.2.1-.4.2-.5.3h.2s-.1.1 0 .1c.2 0 .6-.1.9-.1h-.2c0-.1-.3-.1-.3-.1H10.9s0-.1 0 0c.3-.1.6-.3.8-.4h-.3.3c-.1.1.3 0 .4 0h.3c-.1 0-.2 0-.3.1 0 0 .3.1.3 0 .2.1-.4.3-.2.3-.2.1-.6 0-.8.2h.7c.2.1.5.3.7.2.2 0-.2-.2-.2-.2.4-.1.4.1.4-.2-.1 0-.2-.1-.3-.1 0-.1.1 0 .1-.1.2 0 .5.1.5-.1l-.5-.2h0c-.4 0-.7-.1-1.1-.1.3-.3.3-.4.3-.4-.1-.2-1 .2-.8.1-.1 0 .2-.1.3-.1h-.6c.1 0 .1 0 .2-.1-.4 0-.6 0-.9.2.1 0 .2 0 .3-.1h-.1.5c-.1 0-.4.1-.4.2h.3c-.1.1-.2.1-.3 0-.1.1.7.1.8.1-.1 0-.5.4-.7.3 0-.1 0-.1.2-.1.1-.1-.4 0-.4 0 .1-.1-.1-.1.1-.1h-.2c.1 0 .1 0 .2-.1s-.4-.1-.6 0l.2.1s-.1 0-.1.1h.1c-.2.1-.4 0-.5.1-.1 0-.1 0 0 0-.2.1-.8 0-1.2 0-.2.1-.4.1-.5.1-.5-.2-1.4.1-1.7.4C5.3 3.9 4.8 5 4.1 6c-1.5 2.1-2.3 4.4-2.7 6.9.1 0 .2.5.4.6.1 0 .3-.4.4-.1.1 0 .1.6.1.7.1.3.3.5.6.5-.1.3 0 .5 0 .7 0 .3-.2.6-.1.8h.1V16c.3.1.1 1.4.4 1.6.2.1.2-.8.6-.7.2.1 0 .5.1.7l.3-.3c-.3-.1-.3-.7-.7-.6-.8.4-.5-1.1-.3-1.5.2-.5.9-1.4-.1-1.4-.8 0 .1-.8.2-1 .1-.1.1-.2.2-.3.1-.2.3-.4.4-.6-.9-.2-.9 1-1.7.8-.5-.1.8-2.2.8-2.4M13 2.6c-.1 0 0 0 0 0M7.8 6.7c-.1 0 0-.1 0-.2 0 .1.5 0 .6 0-.2.1-.5.2-.6.2m1.5-.5c-.1.2-.7.1-.8.2 0-.1.7-.2.8-.2m-1.9-.1c.2-.3.6-.2.8-.3-.2 0-.4-.1-.6-.1.1 0 .1-.1.2-.1-.3 0-.5.1-.8.1.2-.1 1-.5 1-.3.3-.2.1.3.3.4.6.1.2.3.2.2-.1.1-.3.4-.4.4v-.2H8c.5-.5-.1-.4-.4-.1-.1.1-.5.7-.6.6-.1-.2.5-.6.6-.7-.1 0-.1.1-.2.1" clip-path="url(#SVGID_7_)" id="path79"/><path class="st3" d="M12.8 5.7c-.1 0-.2.1-.3.1-.1.1.2.1.3-.1-.2.1-.1.1 0 0" clip-path="url(#SVGID_7_)" id="path81"/><path class="st3" d="M13.4 5.3h-.1.1-.2s0-.1.1-.1h-.2s.4-.3.3-.4c-.3 0-.6.5-.9.6 0 .1-.2.1-.2.1s.8.1.9.1l-.1.1s.3-.2.3-.1c.2.2.1.4.3 0h-.1c0-.1 0-.1.1-.2h-.1c0-.1.1-.1.1-.2-.1.1-.2.1-.3.1" clip-path="url(#SVGID_7_)" id="path83"/><path class="st3" d="M9.9 3.3c.1 0 .3-.1.4-.1-.2 0-.3 0-.4.1" clip-path="url(#SVGID_7_)" id="path85"/><path class="st3" d="M8.7 1.7c-.1 0-.2 0-.2.1.1 0 .1 0 .2-.1 0 0 .1 0 0 0" clip-path="url(#SVGID_7_)" id="path87"/><path class="st3" d="M8.8 1.8h.1c0-.1-.1-.1-.1 0-.1 0 0 0 0 0" clip-path="url(#SVGID_7_)" id="path89"/><path class="st3" d="M9 1.6h-.1c0 .1.1.1.1 0" clip-path="url(#SVGID_7_)" id="path91"/><path class="st3" d="M12.3 5.1c.1.1.3.2.4.1-.1-.1-.2-.2-.4-.1" clip-path="url(#SVGID_7_)" id="path93"/><path class="st3" d="M9.4 1.6c-.2 0-.1 0 0 0s.1 0 0 0c.1 0 .1 0 .1-.1h-.4c.1.1.2.1.3.1-.2 0-.4.1-.3.1.1 0 .3 0 .3-.1" clip-path="url(#SVGID_7_)" id="path95"/><path class="st3" d="M7.4 2.6l-.1.1s.1 0 .1-.1" clip-path="url(#SVGID_7_)" id="path97"/><path class="st3" d="M9.6 1.6" clip-path="url(#SVGID_7_)" id="path99"/><path class="st3" d="M7.5 2.4c.1.1 1.2 0 1.4-.1 0 0 0-.1 0 0 .1 0 .2 0 .3-.1-.1-.1-.2 0-.1-.2l.3-.2c-.4-.1-.6.2-.8.2 0 0-.3-.1-.5-.1v-.1-.1s-.1 0-.1.1c-.1.2-.4.4-.4.4h.3c-.2 0-.3 0-.5.2h.1" clip-path="url(#SVGID_7_)" id="path101"/><path class="st3" d="M8.5 1.9s.1 0 0 0c.1 0 .1 0 0 0 .4-.1.8 0 1.1-.1 0 0-.4 0-.2-.1 0 0-.4.1-.2.1h-.1.1c-.2.1-.4 0-.6 0 0 0-.1 0-.1.1 0-.1 0-.1 0 0 0-.1-.1-.1-.1 0h.1c-.2-.1-.2 0-.2 0h.2" clip-path="url(#SVGID_7_)" id="path103"/><path class="st3" d="M8.5 1.7s0 .2-.1.3c.1 0 .1-.2.1-.3" clip-path="url(#SVGID_7_)" id="path105"/><path class="st3" d="M6.7 10.6s0 .1 0 0c0 .1 0 0 0 0" clip-path="url(#SVGID_7_)" id="path107"/><path class="st3" d="M14.4 20.4c-.4-.1-.6-.3-.9-.4-.3-.1-.7 0-1 0-.1-.3-.2-.3-.4-.4-.6-.3-.3.3-.6.3s-.7-.4-.4-.7c.2-.2-.4-1.1-.8-1.1-.3 0-1.1-.1-1.3-.3-.2-.4-1.1-.4-1.2-.8h.1c-.2 0-.6.2-.8.2-.1 0-.5 0-.6-.1-.1-.1-.4-.3-.6-.3 0 .1.1.1.2.2-.6 0-.2.6-.3.6-.3 0-.2-.5-.2-.6.1-.1.1-.1 0-.2s-.2.1-.3.1c-.4.2-.9.5-.8 1-.4.2 0 .8.1 1.1 0 .1 0 .1.1.2 0 .4-.5.7-.5 1.1 0 .4-.1.5.3.7 0 .3-.3.4-.2.7.1.3.3.3.5.5.3.4.6.8.9 1.1.4.4.5 1 1.1 1.1.5.1 1.1.4 1.3.8.2.4.3.9.4 1.3.1.5 0 1.3.3 1.6.3.6.3 1 .3 1.7 0 .3.2.4.3.6.1.2-.1.4.3.6 0-.1.1-.1.1-.1.3.6 1.5 1 2.1 1.2 0-.3-.9-.4-.4-.7.3-.1.1-.5 0-.7.1 0 .3.1.2-.1.1.1-.7-.2-.4-.3.2 0 .6.1.5-.2 0-.1-.3-.4 0-.5.2-.1.6-.1.7-.3.3-.7-.3-.5-.5-.9 0 .1.9 0 1-.3l.3-1.2c0-.2 0-.3.2-.4-.1-.2-.1-.4-.2-.6 0-.2.3-.5.4-.6.6-.4.7-.6.8-1.3.1-.4-.3-1.3-.2-1.5.1-.5.9-2 .1-2.1" clip-path="url(#SVGID_7_)" id="path109"/><path class="st3" d="M6.7 12.5c.1 0 .2 0 .2-.2 0 .1-.3.2-.2.2" clip-path="url(#SVGID_7_)" id="path111"/><path class="st3" d="M14.4 2.1s.1 0 0 0c.1 0 0 0 0 0" clip-path="url(#SVGID_7_)" id="path113"/><path class="st3" d="M34 14.7c-.6.1-.8.3-1-.4-.1-.5-1-.8-1.1-1.3-.1-.4-.2-.5-.4-.8-.2-.3-.2-.7-.4-1.1-.2-.3-.2-.6-.4-.9-.2-.4-.7-1-.7-1.5.2.2.3.6.5.6.1-.5.1-.6-.1-1.1-.3.1-.6-.1-.9 0-.4.2-.7.1-1.1 0-.3-.1-1.5-.8-1.4 0 0 .9-1.1-.3-1.4-.4-.3-.1-.8.1-.8-.4 0-.3.1-.5.1-.8-.1.1-.2.1-.2 0-.1-.2-.3.1-.5.1h-.9c-.5 0-.9.3-1.3.5-.5.3-.9-.1-1.2.2-.2.3-.5.6-.8.9-.2.2-.1.5-.2.8-.1.2-.3.5-.6.6-.4.2-.6.6-.7 1-.1.3-.2.6-.4.9-.2.4.1 1 .1 1.4 0 .3-.1.6-.3.9-.1.2 0 .5 0 .8.2.3.4.5.6.7.4.4.4.9.8 1.3.3.3.6.7 1.1.6.2-.1.4-.2.6-.2.2 0 .3.2.5.2.4 0 .9-.6 1.4-.6.4 0 .4.7.7.6 1.1 0 1 .8.7 1.5-.2.5.3.9.6 1.3.3.3.3.9.4 1.3.1.4.3 1 .2 1.4-.1.4-.4.7-.5 1.1-.1.6.1 1.2.4 1.7.2.5.3.7.3 1.2.1 1.2 1 2 1 3.1.1-.1.5.2.8 0 .3-.2.6-.1 1-.1 0-.1.6-.4.8-.5.3-.4.5-.9.8-1.3.4-.4-.1-.7.4-1.1.4-.3.5-.2.5-.8 0-.3-.5-.9 0-1.1.1-.4.5-.6.8-.8.9-.5.2-1.3.5-2.1.1-.3-.3-.6-.3-.9 0-.3-.1-.6-.1-.9 0-.3.2-.4.3-.7.2-1 1.1-1.3 1.6-2.1.5-.7 1.3-2.3 1-3.1-.2 0-.5.2-.8.3" clip-path="url(#SVGID_7_)" id="path115"/><path class="st3" d="M17.4 2c0-.1.3.2.4 0-.1 0-.1-.1-.2-.1.1 0 .3.1.5 0 .1 0 .2 0 .2-.1h-.2c0-.1.1 0 .2-.1 0-.1-.2-.1-.2-.1 0-.1.4 0 .5-.1-.1 0-.1 0-.2-.1h.1-.3c.1-.1.8-.2.8-.3.2 0 .5 0 .6-.1 0 0-1.7.2-1.8.2l.4-.1H18c.1 0 .2-.1.3-.1-.9 0-1.8-.1-2.7.1h-.1.1c-.1 0-.4-.1-.5 0h-.2c-.1 0-1 0-1.1.2h.2c-.1.2-.5 0-.6.2 0 .1.4 0 .4 0-.1.1-.3 0-.4.1H13.7c.2 0 .8-.1.7.3.1 0 .1 0 0 .1.1 0 .3.1.3.1-.1.1-.2 0-.2 0 0 .1.2.1.3.1-.1.1-.3.1-.4.3h.1c-.1.1.1.2.1.2-.2.1.4.4.5.4.1 0 .5-.5.7-.6.3 0 .4-.2.7-.2.4 0 .8-.1 1.2-.2-.1 0-.5 0-.5-.1.1 0 .1 0 .1-.1.1 0 .5.2.5.1 0 .1-.3 0-.4 0m1.6-.9h-.1.1m-1.5 0s.1 0 0 0h.3c-.1-.1-.2 0-.3 0m-.6-.1h.2-.2" clip-path="url(#SVGID_7_)" id="path117"/><path class="st3" d="M6.5 10.5s-.1 0-.1.1c0-.1.1-.1.1-.1.1 0 .1 0 0 0" clip-path="url(#SVGID_7_)" id="path119"/><path class="st3" d="M18.1 2.5c.4.1.7.3 1.2 0 0-.1-.2-.2 0-.2-.1 0-.6-.1-.6 0-.1 0-.2 0-.2-.1-.1 0-.2.1-.1-.1h-.2l.2.1h-.3c-.1.2 0 .1 0 .3.1-.1.1-.1 0 0" clip-path="url(#SVGID_7_)" id="path121"/><path class="st3" d="M12.7 5c-.1.1.2 0 0 0" clip-path="url(#SVGID_7_)" id="path123"/><path class="st3" d="M5.3 13.7c-.1 0-.3.3.2.3v-.1c0-.1-.1-.2-.2-.2" clip-path="url(#SVGID_7_)" id="path125"/><path class="st3" d="M6.1 13.9c.2-.4.5.2.5.2.1.1.4-.3.4-.1h.6s-.1-.2-.1-.3c-.1-.2-.1-.4-.3-.5-.1 0-.3.1-.4 0-.2-.3-.2.5-.2.6-.1-.2-.9-.1-.5.1m.5-.2" clip-path="url(#SVGID_7_)" id="path127"/><path class="st3" d="M12 5.6c-.1.1.2.3.3.1-.1.1-.2 0-.3-.1" clip-path="url(#SVGID_7_)" id="path129"/><path class="st3" d="M6.3 13c-.1-.2.1-.3-.2-.4 0-.1-.3-.6-.5-.8-.5-.5-.8-.4-1.2.2.4.1.5-.5.6-.1.5.1.6.6.5 1 .3.1.6.5.8.1" clip-path="url(#SVGID_7_)" id="path131"/><path class="st3" d="M7.8 14.2c-.1.2.3.3.4.2 0-.1-.3-.4-.4-.2" clip-path="url(#SVGID_7_)" id="path133"/><path class="st3" d="M7.5 13.6c-.1-.1-.1 0 0 0" clip-path="url(#SVGID_7_)" id="path135"/><path class="st3" d="M6.3 11.2V11c-.1.1-.1.4 0 .2" clip-path="url(#SVGID_7_)" id="path137"/><path class="st3" d="M4.8 12.1c-.1 0-.1.1-.1.1s0 .2.1-.1c0-.1 0 0 0 0" clip-path="url(#SVGID_7_)" id="path139"/><path class="st3" d="M10.7 1.8s-.1 0 0 0h.3c-.1-.1-.2-.1-.3 0" clip-path="url(#SVGID_7_)" id="path141"/><path class="st3" d="M25 6.1c.1.6.5-.2-.1-.1 0 0 .1 0 .1.1" clip-path="url(#SVGID_7_)" id="path143"/><path class="st3" d="M21.2 3.5c.4 0 .6-.1.6-.4 0 0 .3-.2-.1-.3-.1 0-.4 0-.3.1-.1 0-.3 0-.3.1l.1.1c0 .1-.4.3 0 .4" clip-path="url(#SVGID_7_)" id="path145"/><path class="st3" d="M25.1 5.8v-.3-.1s-.1.1-.2.1c.1.1.1.3.2.3" clip-path="url(#SVGID_7_)" id="path147"/><path class="st3" d="M28.9 7.6c-.1 0-.3-.1-.5-.1.2.1.4.1.5.1" clip-path="url(#SVGID_7_)" id="path149"/><path class="st3" d="M23.7 6.1s.2.1.2 0c-.1-.1-.1-.1-.2 0" clip-path="url(#SVGID_7_)" id="path151"/><path class="st3" d="M22.1 3c-.1 0-.1 0 0 0 0 .1 0 .1 0 0" clip-path="url(#SVGID_7_)" id="path153"/><path class="st3" d="M21.7 2.4c.1 0 .1 0 .1-.1 0 0-.3.1-.1.1" clip-path="url(#SVGID_7_)" id="path155"/><path class="st3" d="M21.7 2.4c0 .1 0 .1.1.1v.3h.1v-.1c.2.1 0 0 0 .2 0 .1.3 0 .3 0-.1.1 0 .1.1.1 0 .1-.2.1-.3.1 0 .2-.1.2-.1.3 0 0 .4.1.4 0 0 .1-.4.1-.5.3.1 0 1.3-.1 1.3-.2H23c.2-.2.2-.4 0-.3h-.1c0-.3-.4-.5-.7-.6 0-.1.3-.2.2-.3-.2.1-.3.1-.4-.1.1 0 .1-.1.2-.1 0-.2-.6.1-.4.1.1.3-.1.2-.1.2" clip-path="url(#SVGID_7_)" id="path157"/><path class="st3" d="M9.6 1.9h.1c0-.1-.1-.1-.1 0" clip-path="url(#SVGID_7_)" id="path159"/><path class="st3" d="M25.9 6.6c0 .1.5.3.6.3v-.3h-.6" clip-path="url(#SVGID_7_)" id="path161"/><path class="st3" clip-path="url(#SVGID_7_)" id="polyline163" d="M23.6.9"/><path class="st3" d="M27 2.7c.1 0 .1-.1.1-.1s-.2-.1-.1.1c0-.1 0-.1 0 0-.1 0-.1 0 0 0" clip-path="url(#SVGID_7_)" id="path165"/><path class="st3" d="M23.6.9c-.1 0 0 0 .1.1 0-.1 0-.1-.1-.1" clip-path="url(#SVGID_7_)" id="path167"/><path class="st3" d="M23.8.9h.3c0 .1-.2.1-.3 0 .1.1.4.1.4.1h-.3c0 .2.6 0 .8 0h.5-.4-.1c.3 0 .7-.1.8-.1-.3-.1-.7-.1-1-.1h-.1-.1c0 .1.2 0 .2 0h.2-.5s-.4-.1-.2 0h-.2c.1.1.1.1 0 .1.1 0 .1 0 0 0 0-.1-.1-.1-.2-.1h.1c0 .1.1.1.1.1" clip-path="url(#SVGID_7_)" id="path169"/><path class="st3" d="M25 2.8" clip-path="url(#SVGID_7_)" id="path171"/><path class="st3" d="M26.3 2.8l.1-.1s-.2 0-.1.1" clip-path="url(#SVGID_7_)" id="path173"/><path class="st3" d="M22.7 3.9v.2c-.1 0-.6-.1-.6 0 0 .2 1 .3.8.6 0 .5-.1.4-.5.4-.3 0-.6-.1-.9-.1-.4 0-.2.2-.2.4 0 .1-.2 1.1 0 1.1.3 0 .4-.1.6.2.1.2.6-.1.8 0 .2-.1.4-.2.5-.4-.5-.2.6-.6.6-.7-.2-.5.6-.1.8-.2.5-.2.5-.1.9.3-.1-.1 1.5 1.1 1 1.1 0 .2.3-.2.3-.2-.1-.3-.2-.3.2-.2 0-.3-.5-.2-.6-.5-.3 0-.9-.5-.9-.8 0-.2 1 .5 1.1.5 0 .2.5.3.6.6 0 .2.5.6.6.6-.1.2 0 .3.3.4l-.1-.3c.1.1.2.2.3.1-.2-.2-.3-.4-.5-.5 0-.2.3.1.3.1v-.1c.2 0 .2-.1.4 0 .3.2.2-.1.4 0l.1.1c-.1 0-.7-.1-.6.2 0 .2.3.1 0 .3.3-.2.4-.1.6.1h-.1c.6.1 1.1.3 1.8.1.1.3 0 .5 0 .8v.4s.3.6.3.7c0 .8 1.2 1.2 1.3 1.9.1.4.4.7.7 1 .3.4.5.8.7 1.2.5.9 1 .2 1.8-.1-.1-.8-.3-1.7-.6-2.5-.2-.1-.1-.3-.2-.5-.1 0 0 .1-.1.1-.1-.3-.5-.5-.7-.8-.3-.7 1.2-.1 1.4.2-.3-1.1-3.4-4.9-5.6-6.5-1-.7-1.9-1.6-3.2-2.3h-.7.1-.2-.4.3c0 .1-1 .5-1.2.5h.1c-.2 0-1.1.1-.6.5 0 0-.1 0-.1.1h.2c0 .1-.1 0-.1.1 0 .2.7.1.7 0 .2-.1.3 0 .4.2 0 .1.3.5.4.5.1 0 .6-.1.6-.3-.4-.1.2-.4.2-.4.1.1-.2.1-.3-.1 0-.2.7-.2.6-.3.1-.1.5-.3.7 0 0 0-.6.3-.7.3.1.1 0 .2.2.2-.2.3 1.3.2 1.4.4-.3.1-.7-.1-1 0-.1 0 .2.2.3.3 0-.1-.8.1-.7.5h-.2c-.2-.1-1 .2-1 0h-.7v-.1s.1 0 .1.1c.1-.4.1-.4 0-.4 0-.1 0-.2.1-.2 0-.1-.1-.1-.1-.2-.4.2-.4.2-.2.5.1.2-.3.2-.4.1-.4 0-.3.3-.7.4-.4.2-.5.3-.9.3m10.1 3.2c-.5 0-.7-.6-1.1-.7.5-.1.8.6 1.1.7m-3.7-1.9c.4-.1.3-.2.7.2.2.1.5.3.7 0-.1 0-.3 0-.3-.1s.4-.2.6-.2c-.1 0 .2.3-.2.3.3.4 1 .4 1.2.9-.2 0-.2.1-.4.1-.4 0-.8-.3-1.2-.4-.3 0-.6.1-.9.1-.4-.4-.1-.3-.2-.7-.1 0 0-.1 0-.2" clip-path="url(#SVGID_7_)" id="path175"/><path class="st3" d="M25.1 3.1c.2.2.1-.1.2-.1-.1-.3-.4 0-.2.1.1 0 .1 0 0 0" clip-path="url(#SVGID_7_)" id="path177"/><path class="st3" d="M30.7 7.6c-.1 0-.3.1-.4.1 0 .3.4 0 .4-.1" clip-path="url(#SVGID_7_)" id="path179"/><path class="st3" d="M10.4 1.6s-.1 0 0 0c.2 0 .3 0 .3-.1h.1c-.1-.1-.4 0-.5 0h-.1l.2.1h-.3.3" clip-path="url(#SVGID_7_)" id="path181"/><path class="st3" d="M9.9 1.7c.1 0 .1-.1 0 0 0-.1.1-.1 0 0 0-.1 0 0 0 0" clip-path="url(#SVGID_7_)" id="path183"/><path class="st3" d="M10.3 1.8c-.1 0-.2 0-.2.1.1-.1.5.1.5-.2 0 0-.3 0-.3.1-.1-.1 0-.1 0 0-.1 0-.1-.1-.2 0 .1-.1.2-.1.2 0" clip-path="url(#SVGID_7_)" id="path185"/><path class="st3" d="M11.2 1.7c-.3.1.2.1.3.1.3-.2.9.1 1.2-.1h-.1.1c0-.1-1.3 0-1.2 0h-.1.2c0-.1-.7-.1-.8 0h.2c.1-.1.2 0 .2 0" clip-path="url(#SVGID_7_)" id="path187"/><path class="st3" d="M9.8 2.5c.1-.2-.5 0-.3 0h.3" clip-path="url(#SVGID_7_)" id="path189"/><path class="st3" d="M9.5 2.1c.2.2.6.1.7 0h-.1c.1-.1 0 0-.1 0 .1 0 .2 0 .2-.1h-.4c-.1.1-.2 0-.3.1" clip-path="url(#SVGID_7_)" id="path191"/><path class="st3" d="M11.2 1.6h.1-.4.3" clip-path="url(#SVGID_7_)" id="path193"/><path class="st3" d="M10.1 1.8" clip-path="url(#SVGID_7_)" id="path195"/><path class="st3" d="M9.9 1.8h.2c0-.1-.2-.1-.2 0 0-.1 0-.1 0 0-.1 0 0 0 0 0" clip-path="url(#SVGID_7_)" id="path197"/><path class="st3" d="M11.1 1.4c-.2 0 .1 0 0 0" clip-path="url(#SVGID_7_)" id="path199"/><path class="st3" d="M11.7 1.5c-.1 0-.1 0 0 0-.1 0-.1 0 0 0-.1 0-.1 0 0 0" clip-path="url(#SVGID_7_)" id="path201"/><path class="st3" d="M11.6 1.4c-.1 0-.1 0 0 0-.1 0-.1 0 0 0" clip-path="url(#SVGID_7_)" id="path203"/><path class="st3" d="M11.2 1.5c.1-.1-.3-.1-.2 0h.2" clip-path="url(#SVGID_7_)" id="path205"/><path class="st3" d="M11.6 1.4h.3-.3c0 .1 0 .1 0 0 .1.1.4.1.5.1h.4H11.9c.4 0 1.1.2 1.3-.1h-.1c.1-.1.2 0 .3-.1.2 0 .3-.1.4-.1h-.1 0c.4-.1.8-.1 1.1-.2h-.2s.4 0 .5-.1c0-.1-.7 0-.4 0-.5-.2-1.9 0-2.4.1h.3-.1.3-.3H12.7s.2 0 .1.1c-.2.2-.3 0-.4.1.1 0 .1-.1 0-.1-.1.1-.4-.1-.5-.1h.1-.2c-.2.3-.2.3-.2.4 0-.1 0-.1 0 0h-.2.2m1.2-.2H13.1h-.3m.5-.1c.1 0 .1 0 0 0 .1 0 .1 0 0 0" clip-path="url(#SVGID_7_)" id="path207"/><path class="st3" d="M11.9 1.6c-.1 0-.2 0-.2.1 0-.1.1-.1.2-.1" clip-path="url(#SVGID_7_)" id="path209"/><path class="st3" d="M11.2 1.5" clip-path="url(#SVGID_7_)" id="path211"/><path class="st3" d="M12.6 1.2" clip-path="url(#SVGID_7_)" id="path213"/><path class="st3" d="M12.3 1.9l.1.1c.1 0 .3 0 .5-.1-.1 0-.4-.1-.6 0" clip-path="url(#SVGID_7_)" id="path215"/></g><g id="g227"><defs id="defs220"><path id="SVGID_8_" d="M7 42.6h23.1v3.3H7z"/></defs><clipPath id="SVGID_9_"><use xlink:href="#SVGID_8_" id="use222" overflow="visible"/></clipPath><path class="st4" d="M30.1 44.3c0 .9-5.2 1.7-11.5 1.7-6.5-.1-11.6-.8-11.6-1.7 0-.9 5.2-1.7 11.5-1.7 6.4 0 11.6.7 11.6 1.7" clip-path="url(#SVGID_9_)" id="path225"/></g><g id="g237"><defs id="defs230"><path id="SVGID_10_" d="M8.5 31.8h7.1v4.6H8.5z"/></defs><clipPath id="SVGID_11_"><use xlink:href="#SVGID_10_" id="use232" overflow="visible"/></clipPath><path class="st5" d="M8.6 31.8v.1c.6.5 1.1 1.1 1.7 1.6l.8.8c.2.3.5.5.8.7.6.4 1.3.6 1.9.8l1.8.6-1.8-.6c-.6-.2-1.3-.4-1.9-.8-.3-.2-.6-.4-.8-.7l-.8-.8-1.7-1.7z" clip-path="url(#SVGID_11_)" id="path235"/></g><g id="g257"><defs id="defs240"><path id="SVGID_12_" d="M0 0h128.6v45.9H0z"/></defs><clipPath id="SVGID_13_"><use xlink:href="#SVGID_12_" id="use242" overflow="visible"/></clipPath><path class="st6" d="M35.3 26.6c-2.4-.4-6.7.5-7.6.3-.8-.2-1.8-.6-2.7-1-.3-.1-.9-.8-1.2-1-.5-.3-1.1-.4-1.7-.7-1.9-.8-2.7.5-2.5.9.2.5 1.2 1.3 1.2 1.3.2.1.6.5 1.2.9.2.3.6.9 1.5 1.2.1 0 .2.1.3.1.1 0 .1.1.2.1.3.3.7.8 1 1.4-.6.7-1.5 1.6-2.5 2.2-1.9.4-3.9.5-6.4.2l-1.5-.3c-.6-.2-1.2 0-1.7-.4-.7-.6-1.5-.8-2-1.2-1-.8-.6-1.2-1.5-2.3-.9-1.1-2.1-1.3-2.6-.9-.6.6-.3 1 .2 2 0 .1.1.1.1.2.1.3.3.7.4 1.1.1.4.5.8.9 1.1.1.1.2.3.3.4-.8-.8-1.6-1.3-1.9-1.5-.8-.7-.7-1.1-1.4-2-.7-.9-2.1-1.2-2.4-.7-.4.6 0 1.2.4 2 0 .1.3-.1.3 0 .1.3.6.5.7.8.1.3.7 1.7 1 1.9 2.6 3.4 3.9 4.2 3.9 4.2 4.4 1.2 8.5.8 8.9.9v-.7c10.7 1.5 18.1-5.4 18.5-6.2" clip-path="url(#SVGID_13_)" id="path245"/><path class="st7" d="M43.3 34.5l.1-.8-.1-.4s-3.4.5-5 .6c-1.6-.4-3.7-.6-5.2-.3s-3.1.7-4.4 1.2c-1.7 1.4-4.5 2.7-6.9 3.8-.1.1 10.2-3.7 12.7-3.9 2.9-.2 8.8-.2 8.8-.2" clip-path="url(#SVGID_13_)" id="path247"/><path class="st7" d="M6.8 28.1c1 .6 1.1 2.7 1.9 3.4.8.7 2.2 2.8 3.1 3.2.9.4 3.9 2.1 3.9 2.1s-4.3-1.4-5.4-2.3c-1-.8-2.9-4.1-2.9-4.1" clip-path="url(#SVGID_13_)" id="path249"/><path class="st7" d="M3.3 27.8c.3 1.1 1.3 2.8 2.1 3.5.8.7 1.2 2.4 1.8 3.1-1-.8-3.8-4.9-3.8-4.9-.5-1.1-.1-1.7-.1-1.7" clip-path="url(#SVGID_13_)" id="path251"/><path class="st7" d="M5.8 32.9c.7.6 1.1 1.1 2 1.8.8.7 1.1 1.8 2 2.1.9.4 4.4 1.3 4.4 1.3s-3.6 0-4.8-.9c-1-.8-2.8-3.1-2.8-3.1" clip-path="url(#SVGID_13_)" id="path253"/><path class="st7" d="M20.9 26.4c.2.1.6.5 1.2.9.2.3.6.9 1.5 1.2.1 0 .2.1.3.1.1 0 .1.1.2.1.3.3.7.8 1 1.4-.1.1-2 2-2.1 2 .3-.2 1.8-.7 2.5-1.4.1.1.2-1.4.2-1.4-.2-.6-2.1-1.4-2.8-1.9-.6-.4-2-1-2-1" clip-path="url(#SVGID_13_)" id="path255"/></g><g id="g272"><defs id="defs260"><path id="SVGID_14_" d="M29.1 31.8h9v4.4h-9z"/></defs><clipPath id="SVGID_15_"><use xlink:href="#SVGID_14_" id="use262" overflow="visible"/></clipPath><linearGradient id="SVGID_16_" gradientUnits="userSpaceOnUse" x1="-200.221" y1="408.949" x2="-199.221" y2="408.949" gradientTransform="matrix(9.0436 0 0 -9.0436 1839.742 3732.335)"><stop offset="0" id="stop265" stop-color="#FFF"/><stop offset="1" id="stop267" stop-color="#FFF"/></linearGradient><path class="st8" clip-path="url(#SVGID_15_)" id="rect270" d="M29.1 31.8h9v4.4h-9z"/></g><path class="st9" id="rect274" d="M37.8 30.9h6.8v6.7h-6.8z"/><g id="g314"><defs id="defs277"><path id="SVGID_17_" d="M0 0h128.6v45.9H0z"/></defs><clipPath id="SVGID_18_"><use xlink:href="#SVGID_17_" id="use279" overflow="visible"/></clipPath><path class="st10" d="M48.2 4.7c.1 0 .3 0 .4-.1h.8c.2 0 .3 0 .4.1 0 0 0 .1.1.3 0 .1 0 .3.1.5 0 .2 0 .3.1.5v.3c.1-.2.3-.4.5-.6.2-.2.4-.4.7-.6.3-.2.6-.3.9-.4.3-.1.7-.1 1.1-.1.6 0 1.2.1 1.7.3.5.2 1 .5 1.4 1 .4.4.7 1 .9 1.7.2.7.3 1.5.3 2.4 0 1.8-.5 3.3-1.5 4.3s-2.4 1.5-4.2 1.5c-.3 0-.6 0-.9-.1-.3 0-.6-.1-.8-.2v4.9c-.2 0-.3 0-.5.1h-1c-.2 0-.4 0-.5-.1V4.7zm2.1 9c.3.1.5.2.8.2.3 0 .6.1 1.1.1.5 0 1-.1 1.4-.2.4-.2.8-.4 1.1-.7.3-.3.5-.8.7-1.3.2-.5.3-1.1.3-1.8 0-1.1-.2-2-.6-2.6-.4-.7-1.1-1-2-1-.3 0-.7.1-1 .2-.3.1-.6.3-.9.6l-.6.9c-.2.4-.2.8-.2 1.4v4.2z" clip-path="url(#SVGID_18_)" id="path282"/><path class="st10" d="M59.5 4.7c.2 0 .3 0 .4-.1h.9c.2 0 .3 0 .4.1 0 .2.1.5.1.8 0 .3.1.6.1.9.3-.5.7-.9 1.2-1.2.5-.3 1.1-.5 1.8-.5h.6c0 .1 0 .3.1.4V6c0 .2 0 .4-.1.5h-.6c-.4 0-.7.1-1.1.2-.3.1-.6.3-.8.5-.3.3-.5.6-.6 1.1-.2.5-.2 1-.2 1.8v5.3c-.2 0-.3 0-.5.1h-1c-.2 0-.4 0-.5-.1V4.7z" clip-path="url(#SVGID_18_)" id="path284"/><path class="st10" d="M70.2 15.7c-.8 0-1.6-.1-2.2-.4-.6-.3-1.1-.7-1.6-1.2-.4-.5-.7-1.1-.9-1.8-.2-.7-.3-1.4-.3-2.2 0-.8.1-1.5.3-2.2.2-.7.5-1.3.9-1.8s.9-.9 1.6-1.2c.6-.3 1.4-.4 2.2-.4.8 0 1.6.1 2.2.4.6.3 1.2.7 1.6 1.2.4.5.7 1.1.9 1.8.2.7.3 1.4.3 2.2 0 .8-.1 1.5-.3 2.2-.2.7-.5 1.3-.9 1.8s-.9.9-1.6 1.2c-.6.2-1.3.4-2.2.4m0-1.7c1 0 1.7-.3 2.1-1 .5-.7.7-1.7.7-2.9s-.2-2.2-.7-2.9c-.5-.7-1.2-1-2.1-1-1 0-1.7.3-2.1 1-.5.7-.7 1.6-.7 2.9 0 1.2.2 2.2.7 2.9.5.7 1.2 1 2.1 1" clip-path="url(#SVGID_18_)" id="path286"/><path class="st10" d="M77.3 6.4h-1.6l-.1-.3 3.6-4h.2v2.6H82c.1.2.1.5.1.8v.4c0 .1 0 .3-.1.4h-2.7v4.9c0 .6 0 1 .1 1.4 0 .3.1.6.3.8.1.2.3.3.5.4.2.1.5.1.8.1.2 0 .5 0 .7-.1.2 0 .4-.1.6-.1.1.3.2.6.2.9v.8c-.3.1-.6.1-.9.2-.3 0-.6.1-1 .1-1 0-1.8-.2-2.3-.7-.6-.5-.8-1.3-.8-2.4V6.4z" clip-path="url(#SVGID_18_)" id="path288"/><path class="st10" d="M84.8 10.6c0 1.2.3 2 .9 2.6.6.5 1.4.8 2.6.8 1 0 1.9-.2 2.8-.5.1.2.2.5.3.8.1.3.1.6.1.9-.5.2-1 .3-1.5.4-.5.1-1.2.1-1.8.1-1 0-1.8-.1-2.5-.4-.7-.3-1.3-.7-1.7-1.1-.5-.5-.8-1.1-1-1.7-.2-.7-.3-1.4-.3-2.2 0-.8.1-1.5.3-2.2.2-.7.5-1.3.9-1.8s.9-.9 1.6-1.2c.6-.3 1.4-.4 2.2-.4.7 0 1.4.1 1.9.4.6.2 1 .6 1.4 1 .4.4.7 1 .9 1.6.2.6.3 1.3.3 2v1.2h-7.4zM90.1 9c0-.4-.1-.8-.2-1.1-.1-.4-.3-.7-.5-.9s-.4-.5-.7-.6c-.3-.2-.7-.2-1.1-.2-.8 0-1.5.3-1.9.8-.5.5-.7 1.2-.8 2.1h5.2z" clip-path="url(#SVGID_18_)" id="path290"/><path class="st10" d="M100.9 13.6c.1.2.2.4.3.7.1.3.1.6.1.9-.8.3-1.8.5-2.8.5-1.8 0-3.1-.5-4-1.5-.9-1-1.4-2.4-1.4-4.1 0-.8.1-1.5.3-2.2.2-.7.6-1.3 1-1.8s1-.9 1.6-1.2c.7-.3 1.4-.4 2.3-.4.6 0 1.1 0 1.5.1s.9.2 1.3.3c0 .2 0 .5-.1.8-.1.3-.1.6-.3.8-.7-.2-1.5-.4-2.3-.4-1.1 0-1.9.4-2.4 1.1-.5.7-.8 1.6-.8 2.8 0 1.3.3 2.3.9 2.9.6.6 1.4.9 2.5.9.4 0 .8 0 1.2-.1.4.1.8 0 1.1-.1" clip-path="url(#SVGID_18_)" id="path292"/><path class="st10" d="M103.1 6.4h-1.6l-.1-.3 3.6-4h.2v2.6h2.7c.1.2.1.5.1.8v.4c0 .1 0 .3-.1.4h-2.7v4.9c0 .6 0 1 .1 1.4 0 .3.1.6.2.8.1.2.3.3.5.4.2.1.5.1.8.1.2 0 .5 0 .7-.1.2 0 .4-.1.6-.1.1.3.2.6.2.9v.8c-.3.1-.6.1-.9.2-.3 0-.6.1-1 .1-1 0-1.8-.2-2.3-.7-.6-.5-.8-1.3-.8-2.4V6.4z" clip-path="url(#SVGID_18_)" id="path294"/><path class="st10" d="M110.7 10.6c0 1.2.3 2 .9 2.6.6.5 1.4.8 2.5.8 1 0 1.9-.2 2.8-.5.1.2.2.5.3.8.1.3.1.6.1.9-.5.2-1 .3-1.5.4-.6.1-1.2.1-1.8.1-1 0-1.8-.1-2.5-.4-.7-.3-1.3-.7-1.7-1.1-.5-.5-.8-1.1-1-1.7-.2-.7-.3-1.4-.3-2.2 0-.8.1-1.5.3-2.2.2-.7.5-1.3.9-1.8s.9-.9 1.6-1.2c.6-.3 1.4-.4 2.2-.4.7 0 1.4.1 1.9.4.6.2 1 .6 1.4 1 .4.4.7 1 .9 1.6.2.6.3 1.3.3 2v1.2h-7.3zM116 9c0-.4-.1-.8-.2-1.1-.1-.4-.3-.7-.5-.9-.2-.3-.5-.5-.8-.6-.3-.2-.7-.2-1.1-.2-.8 0-1.5.3-1.9.8-.5.5-.7 1.2-.8 2.1h5.3z" clip-path="url(#SVGID_18_)" id="path296"/><path class="st10" d="M126.5.1c.2 0 .3 0 .5-.1h1c.2 0 .4 0 .5.1v15c-.5.2-1.1.3-1.8.4-.7.1-1.4.2-2.2.2-.7 0-1.5-.1-2.1-.3-.7-.2-1.3-.5-1.8-.9s-.9-1-1.2-1.7-.4-1.5-.4-2.5c0-.9.1-1.6.4-2.4.3-.7.6-1.3 1.1-1.8.5-.5 1-.9 1.7-1.2.7-.3 1.4-.4 2.2-.4.4 0 .7 0 1.1.1.4.1.7.1 1 .2V.1zm0 6.4l-.9-.3c-.3-.1-.7-.1-1-.1-.6 0-1.1.1-1.5.3-.4.2-.8.5-1 .9-.3.4-.5.8-.6 1.3-.1.5-.2 1-.2 1.6 0 1.3.3 2.3.9 2.8.6.6 1.4.9 2.5.9.4 0 .7 0 1-.1.3 0 .6-.1.8-.2V6.5z" clip-path="url(#SVGID_18_)" id="path298"/><path class="st10" d="M48.2 22.3c.1 0 .3 0 .4-.1h.8c.2 0 .3 0 .4.1 0 0 0 .1.1.3 0 .1 0 .3.1.5 0 .2.1.7.1.8.1-.2.3-.4.5-.6.2-.2.4-.4.7-.6.3-.2.6-.3.9-.4.3-.1.7-.1 1.1-.1.6 0 1.2.1 1.7.3.5.2 1 .5 1.4 1 .4.4.7 1 .9 1.7.2.7.3 1.5.3 2.4 0 1.8-.5 3.3-1.5 4.3s-2.4 1.5-4.2 1.5c-.3 0-.6 0-.9-.1h-.8V38c-.2 0-.3 0-.5.1h-1c-.2 0-.4 0-.5-.1V22.3zm2.1 8.9c.3.1.5.2.8.2.3 0 .6.1 1.1.1.5 0 1-.1 1.4-.2.4-.2.8-.4 1.1-.7.3-.3.5-.8.7-1.3.2-.5.3-1.1.3-1.8 0-1.1-.2-2-.6-2.6-.4-.7-1.1-1-2-1-.3 0-.7.1-1 .2-.3.1-.6.3-.9.6-.2.2-.4.6-.6.9-.2.4-.2.8-.2 1.4v4.2z" clip-path="url(#SVGID_18_)" id="path300"/><path class="st10" d="M59.5 17.7c.2 0 .3 0 .5-.1h1c.2 0 .4 0 .5.1v12c0 .4 0 .7.1.9.1.2.2.4.3.5.1.1.3.2.4.2.2 0 .3.1.5.1h.4c.2 0 .3 0 .4-.1.1.5.2 1 .2 1.6-.2.1-.4.1-.7.1h-.8c-.4 0-.8 0-1.1-.1-.3-.1-.7-.3-.9-.5-.3-.2-.5-.5-.6-.9-.2-.4-.2-.8-.2-1.4V17.7z" clip-path="url(#SVGID_18_)" id="path302"/><path class="st10" d="M70.3 25.9c0-.8-.2-1.4-.6-1.7-.4-.3-1-.5-1.8-.5-.5 0-.9 0-1.4.1l-1.2.3c-.3-.5-.4-1-.4-1.6.5-.2 1-.3 1.6-.4.6-.1 1.1-.1 1.6-.1 1.4 0 2.4.3 3.2.9.7.6 1.1 1.6 1.1 3v6.7c-.5.1-1.1.2-1.8.3-.7.1-1.4.2-2.1.2-.7 0-1.3-.1-1.8-.2s-1-.3-1.4-.6c-.4-.3-.7-.6-.9-1.1-.2-.4-.3-1-.3-1.6 0-.6.1-1.1.4-1.6.2-.5.6-.8 1-1.1.4-.3.9-.5 1.4-.7.5-.1 1.1-.2 1.7-.2h1.1c.3 0 .5 0 .7.1v-.2zm0 2c-.2 0-.5-.1-.8-.1h-.8c-.9 0-1.5.2-2 .5s-.7.8-.7 1.5c0 .4.1.7.2 1 .2.2.3.4.6.5.2.1.5.2.8.2h.8c.3 0 .6 0 1-.1.3 0 .6-.1.9-.2v-3.3z" clip-path="url(#SVGID_18_)" id="path304"/><path class="st10" d="M74.4 22.3c.2 0 .3 0 .4-.1h.8c.1 0 .3 0 .4.1 0 .2.1.5.1.8 0 .4.1.6.1.9.1-.2.3-.5.5-.7.2-.2.5-.4.7-.6.3-.2.6-.3 1-.5.4-.1.8-.2 1.2-.2 1.2 0 2.1.4 2.7 1.1.6.7.9 1.7.9 3.1V33c-.2 0-.3 0-.5.1h-1c-.2 0-.4 0-.5-.1v-6.2c0-1-.2-1.7-.5-2.2-.3-.5-.8-.7-1.5-.7-.4 0-.8.1-1.1.2-.3.1-.7.4-.9.6-.3.3-.5.7-.6 1.1-.2.5-.2 1-.2 1.7v5.4c-.2 0-.3 0-.5.1h-1c-.2 0-.4 0-.5-.1V22.3z" clip-path="url(#SVGID_18_)" id="path306"/><path class="st10" d="M86.9 28.1c0 1.2.3 2 .9 2.6.6.5 1.4.8 2.5.8 1 0 1.9-.2 2.8-.5.1.2.2.5.3.8.1.3.1.6.1.9-.5.2-1 .3-1.5.4-.5.1-1.2.1-1.8.1-1 0-1.8-.1-2.5-.4-.7-.3-1.3-.7-1.7-1.1-.5-.5-.8-1.1-1-1.7-.2-.7-.3-1.4-.3-2.2 0-.8.1-1.5.3-2.2.2-.7.5-1.3.9-1.8s.9-.9 1.6-1.2c.6-.3 1.4-.4 2.2-.4.7 0 1.4.1 1.9.4.6.2 1 .6 1.4 1 .4.4.7 1 .9 1.6.2.6.3 1.3.3 2v1.2h-7.3zm5.3-1.5c0-.4-.1-.8-.2-1.1-.1-.4-.3-.7-.5-.9-.2-.3-.5-.5-.8-.6-.3-.2-.7-.2-1.1-.2-.8 0-1.5.3-1.9.8-.5.5-.7 1.2-.8 2.1h5.3z" clip-path="url(#SVGID_18_)" id="path308"/><path class="st10" d="M96.3 23.9h-1.6l-.1-.3 3.6-4h.2v2.6h2.7c.1.2.1.5.1.8v.4c0 .1 0 .3-.1.4h-2.7v4.9c0 .6 0 1 .1 1.4 0 .3.1.6.2.8.1.2.3.3.5.4.2.1.5.1.8.1.2 0 .5 0 .7-.1.2 0 .4-.1.6-.1.1.3.2.6.2.9v.8c-.3.1-.6.1-.9.2-.3 0-.6.1-1 .1-1 0-1.8-.2-2.3-.7-.6-.5-.8-1.3-.8-2.4v-6.2z" clip-path="url(#SVGID_18_)" id="path310"/><path clip-path="url(#SVGID_18_)" d="M49.8 32.6H52v.6h-2.2z" id="rect312" fill="#336798"/></g><g id="text316" font-size="3.601" font-family="Myriad-Roman" fill="#336798"><path d="M105.056 21.672h-.452l-.875-1.04h-.492v1.04h-.348v-2.618h.733q.238 0 .396.03.157.03.284.11.142.09.22.227.082.136.082.346 0 .283-.142.475-.143.19-.392.287zm-.814-1.882q0-.112-.04-.198-.04-.088-.13-.148-.076-.05-.18-.07-.104-.02-.244-.02h-.41v.987h.352q.165 0 .288-.027.123-.03.21-.11.08-.073.115-.168.04-.097.04-.245z" id="path336"/></g><g id="g326"><defs id="defs319"><path id="SVGID_19_" d="M0 0h128.6v45.9H0z"/></defs><clipPath id="SVGID_20_"><use xlink:href="#SVGID_19_" id="use321" overflow="visible"/></clipPath><path clip-path="url(#SVGID_20_)" d="M105.2 20.5a1.7 1.7 0 0 1-1.7 1.7 1.7 1.7 0 0 1-1.7-1.7 1.7 1.7 0 0 1 1.7-1.7 1.7 1.7 0 0 1 1.7 1.7z" id="circle324" fill="none" stroke="#336798" stroke-width=".424"/></g></svg>